<svg width="44" height="36" viewBox="0 0 44 36" fill="none" xmlns="http://www.w3.org/2000/svg">
<path d="M40.4688 4.75C42.2461 4.75 43.75 6.25391 43.75 8.03125V23.3438C43.75 25.1895 42.2461 26.625 40.4688 26.625H35V32.0938C35 33.9395 33.4961 35.375 31.7188 35.375H3.28125C1.43555 35.375 0 33.9395 0 32.0938V12.4062C0 10.6289 1.43555 9.125 3.28125 9.125H8.75V3.65625C8.75 1.87891 10.1855 0.375 12.0312 0.375H22.0117C22.627 0.375 23.1738 0.648438 23.584 1.05859L27.3438 4.75H40.4688ZM31.7188 32.0938V26.625H12.0312C10.1855 26.625 8.75 25.1895 8.75 23.3438V12.4062H3.28125V32.0938H31.7188ZM40.4688 23.3438V8.03125H26.8652C26.25 8.03125 25.7031 7.82617 25.293 7.41602L21.6016 3.65625H12.0312V23.3438H40.4688Z" fill="#6844ED"/>
</svg>
