<svg width="40" height="32" viewBox="0 0 40 32" fill="none" xmlns="http://www.w3.org/2000/svg">
<path d="M32.8125 26.8125V27.9062C32.8125 29.752 31.3086 31.1875 29.5312 31.1875H3.28125C1.43555 31.1875 0 29.752 0 27.9062V10.4062C0 8.62891 1.43555 7.125 3.28125 7.125H4.375V10.4062H3.69141C3.41797 10.4062 3.28125 10.6113 3.28125 10.8164V27.4961C3.28125 27.7695 3.41797 27.9062 3.69141 27.9062H29.1211C29.3262 27.9062 29.5312 27.7695 29.5312 27.4961V26.8125H32.8125ZM35.6836 3.84375H10.2539C9.98047 3.84375 9.84375 4.04883 9.84375 4.25391V20.9336C9.84375 21.207 9.98047 21.3438 10.2539 21.3438H35.6836C35.8887 21.3438 36.0938 21.207 36.0938 20.9336V4.25391C36.0938 4.04883 35.8887 3.84375 35.6836 3.84375ZM36.0938 0.5625C37.8711 0.5625 39.375 2.06641 39.375 3.84375V21.3438C39.375 23.1895 37.8711 24.625 36.0938 24.625H9.84375C7.99805 24.625 6.5625 23.1895 6.5625 21.3438V3.84375C6.5625 2.06641 7.99805 0.5625 9.84375 0.5625H36.0938ZM18.0469 8.21875C18.0469 9.79102 16.8164 10.9531 15.3125 10.9531C13.7402 10.9531 12.5781 9.79102 12.5781 8.21875C12.5781 6.71484 13.7402 5.48438 15.3125 5.48438C16.8164 5.48438 18.0469 6.71484 18.0469 8.21875ZM13.125 14.7812L15.791 12.1152C16.1328 11.7734 16.6113 11.7734 16.9531 12.1152L19.6875 14.7812L26.7285 7.74023C27.0703 7.39844 27.5488 7.39844 27.8906 7.74023L32.8125 12.5938V18.0625H13.125V14.7812Z" fill="#6844ED"/>
</svg>
