<svg width="41" height="36" viewBox="0 0 41 36" fill="none" xmlns="http://www.w3.org/2000/svg">
<path d="M16.9961 35.375L14.3984 34.623C14.0566 34.5547 13.9199 34.2129 13.9883 33.9395L23.627 0.785156C23.6953 0.511719 24.0371 0.375 24.3105 0.443359L26.9766 1.19531C27.25 1.26367 27.3867 1.60547 27.3184 1.87891L17.6797 35.0332C17.6113 35.3066 17.3379 35.4434 16.9961 35.375ZM11.3223 27.1035C11.1172 27.3086 10.7754 27.3086 10.5703 27.1035L1.13672 18.2852C0.931641 18.0801 0.931641 17.7383 1.13672 17.5332L10.5703 8.64648C10.7754 8.44141 11.1172 8.50977 11.3223 8.71484L13.168 10.6973C13.373 10.9023 13.373 11.2441 13.168 11.4492L5.92188 17.875L13.168 24.3691C13.373 24.5742 13.373 24.916 13.168 25.1211L11.3223 27.1035ZM30.7363 27.1035C30.5312 27.3086 30.1895 27.3086 29.9844 27.1035L28.1387 25.1211C27.9336 24.916 27.9336 24.5742 28.1387 24.3691L35.3848 17.875L28.1387 11.4492C27.9336 11.2441 27.9336 10.9023 28.1387 10.6973L29.9844 8.71484C30.1895 8.50977 30.5312 8.44141 30.7363 8.64648L40.1699 17.5332C40.375 17.7383 40.375 18.0801 40.1699 18.2852L30.7363 27.1035Z" fill="#6844ED"/>
</svg>
