<svg width="44" height="36" viewBox="0 0 44 36" fill="none" xmlns="http://www.w3.org/2000/svg">
<path d="M38.8281 25.5312C41.4941 25.5312 43.75 27.7871 43.75 30.4531C43.75 33.1875 41.4941 35.375 38.8281 35.375C36.0938 35.375 33.9062 33.1875 33.9062 30.4531C33.9062 30.248 33.9062 30.043 33.9746 29.8379L28.3008 26.625C26.9336 27.9922 25.0195 28.8125 22.9688 28.8125C18.7305 28.8125 15.3125 25.3945 15.3125 21.1562C15.3125 18.6953 16.4746 16.5078 18.3203 15.1406L15.9961 10.2188C15.9277 10.2188 15.8594 10.2871 15.8594 10.2871C13.125 10.2871 10.9375 8.03125 10.9375 5.36523C10.9375 2.63086 13.125 0.443359 15.8594 0.443359C18.5254 0.443359 20.7812 2.63086 20.7812 5.36523C20.7812 6.80078 20.0977 8.09961 19.0723 8.98828L21.2598 13.7051C21.8066 13.6367 22.3535 13.5 22.9688 13.5C27.1387 13.5 30.625 16.9863 30.625 21.1562C30.625 22.1133 30.4199 23.002 30.0781 23.8223L35.4102 26.8984C36.2988 26.0781 37.4609 25.5312 38.8281 25.5312ZM15.8594 6.9375C16.748 6.9375 17.5 6.25391 17.5 5.29688C17.5 4.4082 16.748 3.65625 15.8594 3.65625C14.9023 3.65625 14.2188 4.4082 14.2188 5.29688C14.2188 6.25391 14.9023 6.9375 15.8594 6.9375ZM22.9688 25.5312C25.3613 25.5312 27.3438 23.6172 27.3438 21.1562C27.3438 18.7637 25.3613 16.7812 22.9688 16.7812C20.5078 16.7812 18.5938 18.7637 18.5938 21.1562C18.5938 23.6172 20.5078 25.5312 22.9688 25.5312ZM38.8281 32.0938C39.7168 32.0938 40.4688 31.4102 40.4688 30.4531C40.4688 29.5645 39.7168 28.8125 38.8281 28.8125C37.8711 28.8125 37.1875 29.5645 37.1875 30.4531C37.1875 31.4102 37.8711 32.0938 38.8281 32.0938ZM35.0684 14.252L31.7871 16.7129L30.4883 15.0039L33.7695 12.543L35.0684 14.252ZM39.375 13.5C36.9141 13.5 35 11.5859 35 9.125C35 6.73242 36.9141 4.75 39.375 4.75C41.7676 4.75 43.75 6.73242 43.75 9.125C43.75 11.5859 41.7676 13.5 39.375 13.5ZM10.3906 22.25V20.0625H13.6719V22.25H10.3906ZM4.375 16.7812C6.76758 16.7812 8.75 18.7637 8.75 21.1562C8.75 23.6172 6.76758 25.5312 4.375 25.5312C1.91406 25.5312 0 23.6172 0 21.1562C0 18.7637 1.91406 16.7812 4.375 16.7812Z" fill="#6844ED"/>
</svg>
