<svg width="21" height="19" viewBox="0 0 21 19" fill="none" xmlns="http://www.w3.org/2000/svg">
<path d="M15.375 6.0625C15.6875 6.0625 16 6.375 16 6.6875V7.3125C16 7.66406 15.6875 7.9375 15.375 7.9375H6.625C6.27344 7.9375 6 7.66406 6 7.3125V6.6875C6 6.375 6.27344 6.0625 6.625 6.0625H15.375ZM11.625 9.8125C11.9375 9.8125 12.25 10.125 12.25 10.4375V11.0625C12.25 11.4141 11.9375 11.6875 11.625 11.6875H6.625C6.27344 11.6875 6 11.4141 6 11.0625V10.4375C6 10.125 6.27344 9.8125 6.625 9.8125H11.625ZM11 0.75C16.5078 0.75 21 4.42188 21 8.875C21 13.3672 16.5078 17 11 17C9.71094 17 8.5 16.8047 7.36719 16.4531C6.23438 17.2734 4.32031 18.25 1.9375 18.25C1.54688 18.25 1.19531 18.0547 1.03906 17.7031C0.921875 17.3516 0.960938 16.9609 1.23438 16.6875C1.27344 16.6875 2.48438 15.3594 3.03125 13.8359C1.74219 12.4688 1 10.75 1 8.875C1 4.42188 5.45312 0.75 11 0.75ZM11 15.125C15.4531 15.125 19.125 12.3516 19.125 8.875C19.125 5.4375 15.4531 2.625 11 2.625C6.50781 2.625 2.875 5.4375 2.875 8.875C2.875 10.5547 3.69531 11.8047 4.39844 12.5469L5.21875 13.4062L4.78906 14.5C4.59375 15.0469 4.32031 15.5938 4.00781 16.0625C4.94531 15.75 5.72656 15.3203 6.27344 14.9297L7.01562 14.3828L7.91406 14.6562C8.89062 14.9688 9.94531 15.125 11 15.125Z" fill="#6844ED"/>
</svg>
