<svg width="20" height="15" viewBox="0 0 20 15" fill="none" xmlns="http://www.w3.org/2000/svg">
<path d="M4.57031 8.35938L4.14062 7.92969C3.90625 7.69531 3.90625 7.26562 4.14062 7.03125L7.03125 4.14062C7.26562 3.90625 7.69531 3.90625 7.92969 4.14062L11.25 7.46094L14.6484 4.02344L13.5156 2.85156C12.8906 2.26562 13.3203 1.25 14.1797 1.25H18.125C18.4375 1.25 18.75 1.5625 18.75 1.875V5.82031C18.75 6.67969 17.7344 7.10938 17.1484 6.48438L15.9766 5.35156L11.6797 9.64844C11.4453 9.88281 11.0156 9.88281 10.7812 9.64844L7.5 6.32812L5.46875 8.35938C5.23438 8.59375 4.80469 8.59375 4.57031 8.35938ZM19.375 13.125C19.6875 13.125 20 13.4375 20 13.75V14.375C20 14.7266 19.6875 15 19.375 15H1.25C0.546875 15 0 14.4531 0 13.75V0.625C0 0.3125 0.273438 0 0.625 0H1.25C1.5625 0 1.875 0.3125 1.875 0.625V13.125H19.375Z" fill="#6844ED"/>
</svg>
