<svg width="25" height="19" viewBox="0 0 25 19" fill="none" xmlns="http://www.w3.org/2000/svg">
<path d="M21.25 8.25C19.4922 8.25 18.125 6.88281 18.125 5.125C18.125 3.40625 19.4922 2 21.25 2C22.9688 2 24.375 3.40625 24.375 5.125C24.375 6.88281 22.9688 8.25 21.25 8.25ZM21.25 3.875C20.5469 3.875 20 4.46094 20 5.125C20 5.82812 20.5469 6.375 21.25 6.375C21.9141 6.375 22.5 5.82812 22.5 5.125C22.5 4.46094 21.9141 3.875 21.25 3.875ZM3.75 8.25C1.99219 8.25 0.625 6.88281 0.625 5.125C0.625 3.40625 1.99219 2 3.75 2C5.46875 2 6.875 3.40625 6.875 5.125C6.875 6.88281 5.46875 8.25 3.75 8.25ZM3.75 3.875C3.04688 3.875 2.5 4.46094 2.5 5.125C2.5 5.82812 3.04688 6.375 3.75 6.375C4.41406 6.375 5 5.82812 5 5.125C5 4.46094 4.41406 3.875 3.75 3.875ZM19.2188 12.1172C19.6875 12.8594 20 13.7188 19.9609 14.6562V16.375C19.9609 17.4297 19.1406 18.25 18.0859 18.25H6.83594C5.82031 18.25 4.96094 17.4297 4.96094 16.375V14.6562C4.96094 13.7188 5.27344 12.8594 5.74219 12.1172C6.79688 10.5156 8.90625 9.92969 10.7422 10.5156C11.2891 10.6719 11.875 10.75 12.4609 10.75C13.0859 10.75 13.6719 10.6719 14.2188 10.5156C16.0547 9.92969 18.125 10.5547 19.2188 12.1172ZM18.125 16.375V14.6562C18.125 13.2109 16.9531 12.0391 15.5469 12C14.5703 12.4297 13.5156 12.625 12.5 12.625C11.4453 12.625 10.3906 12.4297 9.41406 12C8.00781 12.0391 6.875 13.2109 6.875 14.6562V16.375H18.125ZM21.7188 9.5C23.5156 9.5 25 10.9844 24.9609 12.7812C24.9609 13.3281 24.5703 13.7188 24.0234 13.7188C23.5156 13.7188 23.0859 13.3281 23.0859 12.7812C23.0859 12.0391 22.4609 11.375 21.6797 11.375H20.7422C20.5859 11.375 20.4297 11.4531 20.2734 11.4922C19.9219 10.9453 19.4531 10.4766 18.9453 10.0859C19.4531 9.73438 20.0781 9.5 20.7812 9.5H21.7188ZM12.5 9.5C10.0781 9.5 8.125 7.54688 8.125 5.125C8.125 2.74219 10.0781 0.75 12.5 0.75C14.8828 0.75 16.875 2.74219 16.875 5.125C16.875 7.54688 14.8828 9.5 12.5 9.5ZM12.5 2.625C11.0938 2.625 10 3.75781 10 5.125C10 6.53125 11.0938 7.625 12.5 7.625C13.8672 7.625 15 6.53125 15 5.125C15 3.75781 13.8672 2.625 12.5 2.625ZM6.01562 10.0859C5.50781 10.4766 5.03906 10.9453 4.6875 11.4922C4.53125 11.4531 4.375 11.375 4.21875 11.375H3.28125C2.5 11.375 1.875 12.0391 1.875 12.7812C1.875 13.3281 1.44531 13.7188 0.9375 13.7188C0.390625 13.7188 0 13.3281 0 12.7812C0 10.9844 1.44531 9.5 3.28125 9.5H4.21875C4.88281 9.5 5.50781 9.73438 6.01562 10.0859Z" fill="#6844ED"/>
</svg>
