<svg width="20" height="21" viewBox="0 0 20 21" fill="none" xmlns="http://www.w3.org/2000/svg">
<path d="M8.125 4.25C12.4609 4.60156 15.8984 8.03906 16.25 12.375C16.25 12.7266 15.9375 13 15.5859 13H14.9609C14.6484 13 14.375 12.7656 14.3359 12.4141C14.0625 9.09375 11.4062 6.35938 8.08594 6.125C7.73438 6.125 7.5 5.85156 7.5 5.53906V4.91406C7.5 4.52344 7.77344 4.25 8.125 4.25ZM8.125 0.5C14.5312 0.851562 19.6484 5.96875 20 12.375C20 12.7266 19.6875 13 19.3359 13H18.7109C18.3984 13 18.125 12.7656 18.125 12.4141C17.8516 7.02344 13.4766 2.6875 8.08594 2.41406C7.73438 2.375 7.5 2.10156 7.5 1.78906V1.16406C7.5 0.8125 7.77344 0.5 8.125 0.5ZM5.35156 9.25C8.55469 9.25 11.3281 11.8672 11.2109 15.0703C11.1328 18.0391 8.75 20.4219 5.82031 20.5C2.57812 20.6172 0 17.8438 0 14.6016V4.875C0 4.5625 0.273438 4.25 0.625 4.25H1.875C2.1875 4.25 2.5 4.5625 2.5 4.875V14.6797C2.5 16.5156 3.98438 18.1172 5.82031 18C7.38281 17.9219 8.63281 16.6719 8.71094 15.1094C8.82812 13.2734 7.22656 11.75 5.39062 11.75H5C4.64844 11.75 4.375 11.4766 4.375 11.125V9.875C4.375 9.5625 4.64844 9.25 5 9.25H5.35156Z" fill="#6844ED"/>
</svg>
