<svg width="22" height="21" viewBox="0 0 22 21" fill="none" xmlns="http://www.w3.org/2000/svg">
<path d="M16.5625 0.5C19.5312 0.5 21.25 4.28906 18.8672 6.39844L10.5859 13.8594L9.49219 17.2188C9.33594 17.6484 9.02344 17.9609 8.63281 18.0781L1.28906 20.5L0 19.1719L2.42188 11.8672C2.53906 11.4375 2.85156 11.125 3.28125 11.0078L6.60156 9.875L14.1016 1.63281C14.7656 0.890625 15.6641 0.5 16.5625 0.5ZM7.77344 16.3984L8.82812 13.2734V13.1953L7.26562 11.6328L7.22656 11.6719L4.10156 12.6875L2.73438 16.9062L4.6875 14.9531C4.6875 14.9141 4.64844 14.9141 4.64844 14.875C4.64844 14.3672 5.07812 13.9375 5.58594 13.9375C6.13281 13.9375 6.52344 14.3672 6.52344 14.875C6.52344 15.4219 6.13281 15.8125 5.58594 15.8125C5.58594 15.8125 5.58594 15.8125 5.54688 15.8125L3.59375 17.7656L7.77344 16.3984ZM17.5781 5.03125C17.9297 4.71875 18.0859 4.36719 18.0859 3.97656C18.125 3.11719 17.3828 2.375 16.5625 2.375C16.1719 2.375 15.7812 2.57031 15.5078 2.88281L8.67188 10.4219L10.0781 11.8281L17.5781 5.03125Z" fill="#6844ED"/>
</svg>
