<svg width="23" height="22" viewBox="0 0 23 22" fill="none" xmlns="http://www.w3.org/2000/svg">
<path d="M22.1641 7.71094C22.9062 8.41406 22.9062 9.625 22.1641 10.3281L16.5391 15.9531C15.3672 17.125 13.375 16.3047 13.375 14.625V12.5547C9.39062 12.8672 9.46875 13.7656 10.0547 15.6016C10.6406 17.3203 8.76562 18.7266 7.28125 17.7891C5.28906 16.5391 4 14.5469 4 12.125C4 10.6016 4.46875 9.3125 5.40625 8.25781C6.1875 7.39844 7.28125 6.77344 8.64844 6.34375C10.0547 5.875 11.6953 5.71875 13.375 5.64062V3.41406C13.375 1.73438 15.3672 0.914062 16.5391 2.08594L22.1641 7.71094ZM15.25 14.625L20.875 9L15.25 3.375V7.47656C10.9141 7.47656 5.875 7.86719 5.875 12.125C5.875 14.1953 7.125 15.4844 8.29688 16.1875C6.73438 11.5 10.2109 10.6797 15.25 10.6016V14.625ZM16.1875 17.9453C16.5 17.8672 16.7734 17.75 17.0078 17.5938C17.3203 17.3984 17.75 17.6328 17.75 17.9844V19.625C17.75 20.6797 16.8906 21.5 15.875 21.5H2.125C1.07031 21.5 0.25 20.6797 0.25 19.625V5.875C0.25 4.85938 1.07031 4 2.125 4H7.28125C7.51562 4 7.75 4.23438 7.75 4.46875V4.66406C7.75 4.85938 7.63281 5.01562 7.4375 5.09375C6.89062 5.28906 6.42188 5.5625 5.95312 5.83594C5.875 5.875 5.79688 5.875 5.71875 5.875H2.35938C2.20312 5.875 2.125 5.99219 2.125 6.10938V19.3906C2.125 19.5469 2.20312 19.625 2.35938 19.625H15.6406C15.7578 19.625 15.875 19.5469 15.875 19.3906V18.4141C15.875 18.1797 15.9922 17.9844 16.1875 17.9453Z" fill="#6844ED"/>
</svg>
