<svg width="96" height="30" viewBox="0 0 96 30" fill="none" xmlns="http://www.w3.org/2000/svg">
<g clip-path="url(#clip0_126_11338)">
<path d="M50.4592 7.53754C50.4592 8.61862 49.5918 9.48949 48.515 9.48949C47.4382 9.48949 46.5708 8.61862 46.5708 7.53754C46.5708 6.45646 47.4083 5.58559 48.515 5.58559C49.6217 5.61562 50.4592 6.48649 50.4592 7.53754ZM42.4431 11.4715C42.4431 11.6517 42.4431 11.952 42.4431 11.952C42.4431 11.952 41.5158 10.7508 39.5417 10.7508C36.2814 10.7508 33.739 13.2432 33.739 16.6967C33.739 20.1201 36.2515 22.6426 39.5417 22.6426C41.5458 22.6426 42.4431 21.4114 42.4431 21.4114V21.9219C42.4431 22.1622 42.6225 22.3423 42.8618 22.3423H45.2846V11.0511C45.2846 11.0511 43.0712 11.0511 42.8618 11.0511C42.6225 11.0511 42.4431 11.2613 42.4431 11.4715ZM42.4431 18.7087C41.9944 19.3694 41.0971 19.9399 40.0203 19.9399C38.106 19.9399 36.6404 18.7387 36.6404 16.6967C36.6404 14.6547 38.106 13.4535 40.0203 13.4535C41.0672 13.4535 42.0243 14.0541 42.4431 14.6847V18.7087ZM47.0793 11.0511H49.9507V22.3423H47.0793V11.0511ZM89.9714 10.7508C87.9973 10.7508 87.0701 11.952 87.0701 11.952V5.61562H84.1987V22.3423C84.1987 22.3423 86.4121 22.3423 86.6214 22.3423C86.8607 22.3423 87.0402 22.1321 87.0402 21.9219V21.4114C87.0402 21.4114 87.9674 22.6426 89.9415 22.6426C93.2018 22.6426 95.7442 20.1201 95.7442 16.6967C95.7442 13.2733 93.2018 10.7508 89.9714 10.7508ZM89.4929 19.9099C88.3862 19.9099 87.5188 19.3393 87.0701 18.6787V14.6547C87.5188 14.0541 88.4759 13.4234 89.4929 13.4234C91.4072 13.4234 92.8728 14.6246 92.8728 16.6667C92.8728 18.7087 91.4072 19.9099 89.4929 19.9099ZM82.7031 15.6456V22.3724H79.8317V15.976C79.8317 14.1141 79.2334 13.3634 77.6183 13.3634C76.7508 13.3634 75.8535 13.8138 75.2852 14.4745V22.3423H72.4138V11.0511H74.687C74.9263 11.0511 75.1058 11.2613 75.1058 11.4715V11.952C75.9433 11.0811 77.0499 10.7508 78.1567 10.7508C79.4129 10.7508 80.4598 11.1111 81.2973 11.8318C82.3143 12.6727 82.7031 13.7538 82.7031 15.6456ZM65.4445 10.7508C63.4704 10.7508 62.5432 11.952 62.5432 11.952V5.61562H59.6717V22.3423C59.6717 22.3423 61.8851 22.3423 62.0945 22.3423C62.3338 22.3423 62.5133 22.1321 62.5133 21.9219V21.4114C62.5133 21.4114 63.4405 22.6426 65.4146 22.6426C68.6749 22.6426 71.2173 20.1201 71.2173 16.6967C71.2472 13.2733 68.7048 10.7508 65.4445 10.7508ZM64.966 19.9099C63.8593 19.9099 62.9918 19.3393 62.5432 18.6787V14.6547C62.9918 14.0541 63.949 13.4234 64.966 13.4234C66.8803 13.4234 68.3459 14.6246 68.3459 16.6667C68.3459 18.7087 66.8803 19.9099 64.966 19.9099ZM57.1891 10.7508C58.0566 10.7508 58.5052 10.9009 58.5052 10.9009V13.5736C58.5052 13.5736 56.1124 12.7628 54.6168 14.4745V22.3724H51.7454V11.0511C51.7454 11.0511 53.9588 11.0511 54.1681 11.0511C54.4074 11.0511 54.5869 11.2613 54.5869 11.4715V11.952C55.1253 11.3213 56.2918 10.7508 57.1891 10.7508ZM27.368 21.3213C27.2185 20.961 27.0689 20.5706 26.9193 20.2402C26.6801 19.6997 26.4408 19.1892 26.2314 18.7087L26.2015 18.6787C24.1376 14.1742 21.9242 9.60961 19.5912 5.1051L19.5014 4.92492C19.2622 4.47447 19.0229 3.99399 18.7836 3.51351C18.4845 2.97297 18.1854 2.4024 17.7068 1.86186C16.7496 0.660661 15.3737 0 13.9081 0C12.4126 0 11.0666 0.660661 10.0795 1.8018C9.63086 2.34234 9.30184 2.91291 9.00273 3.45345C8.76345 3.93393 8.52416 4.41441 8.28487 4.86487L8.19514 5.04504C5.892 9.54955 3.64869 14.1141 1.58484 18.6186L1.55493 18.6787C1.34555 19.1592 1.10627 19.6697 0.866978 20.2102C0.717424 20.5405 0.567869 20.9009 0.418315 21.2913C0.0294738 22.4024 -0.0901697 23.4535 0.0593846 24.5345C0.388404 26.7868 1.88395 28.6787 3.9478 29.5195C4.72548 29.8498 5.53307 30 6.37058 30C6.60986 30 6.90897 29.97 7.14826 29.9399C8.13532 29.8198 9.15229 29.4895 10.1393 28.9189C11.3657 28.2282 12.5322 27.2372 13.8483 25.7958C15.1644 27.2372 16.3608 28.2282 17.5572 28.9189C18.5443 29.4895 19.5613 29.8198 20.5483 29.9399C20.7876 29.97 21.0867 30 21.326 30C22.1635 30 23.001 29.8498 23.7488 29.5195C25.8426 28.6787 27.3082 26.7568 27.6372 24.5345C27.8765 23.4835 27.7568 22.4324 27.368 21.3213ZM13.8782 22.8829C12.263 20.8408 11.2161 18.9189 10.8572 17.2973C10.7077 16.6066 10.6777 16.006 10.7675 15.4655C10.8273 14.985 11.0068 14.5646 11.246 14.2042C11.8144 13.3934 12.7715 12.8829 13.8782 12.8829C14.9849 12.8829 15.972 13.3634 16.5104 14.2042C16.7496 14.5646 16.9291 14.985 16.9889 15.4655C17.0787 16.006 17.0488 16.6366 16.8992 17.2973C16.5403 18.8889 15.4934 20.8108 13.8782 22.8829ZM25.8126 24.2943C25.6033 25.8559 24.5564 27.2072 23.0907 27.8078C22.3729 28.1081 21.5952 28.1982 20.8175 28.1081C20.0698 28.018 19.322 27.7778 18.5443 27.3273C17.4675 26.7267 16.3907 25.7958 15.1345 24.4144C17.1086 21.982 18.305 19.7598 18.7537 17.7778C18.9631 16.8468 18.993 16.006 18.9032 15.2252C18.7836 14.4745 18.5144 13.7838 18.0956 13.1832C17.1684 11.8318 15.613 11.0511 13.8782 11.0511C12.1434 11.0511 10.588 11.8619 9.66077 13.1832C9.24202 13.7838 8.97282 14.4745 8.85318 15.2252C8.73354 16.006 8.76345 16.8769 9.00273 17.7778C9.4514 19.7598 10.6777 22.012 12.6219 24.4444C11.3956 25.8258 10.2889 26.7568 9.21211 27.3574C8.43443 27.8078 7.68666 28.048 6.93888 28.1381C6.13129 28.2282 5.35361 28.1081 4.66566 27.8378C3.20003 27.2372 2.15315 25.8859 1.94377 24.3243C1.85404 23.5736 1.91386 22.8228 2.21297 21.982C2.3027 21.6817 2.45225 21.3814 2.60181 21.021C2.81118 20.5405 3.05047 20.03 3.28976 19.5195L3.31967 19.4595C5.38352 14.985 7.59692 10.4204 9.90006 5.97598L9.98979 5.7958C10.2291 5.34535 10.4684 4.86486 10.7077 4.41441C10.9469 3.93393 11.2161 3.48348 11.5452 3.09309C12.1733 2.37237 13.0108 1.98198 13.938 1.98198C14.8653 1.98198 15.7028 2.37237 16.3309 3.09309C16.6599 3.48348 16.9291 3.93393 17.1684 4.41441C17.4077 4.86486 17.647 5.34535 17.8863 5.7958L17.976 5.97598C20.2492 10.4504 22.4626 15.015 24.5265 19.4895V19.5195C24.7658 20 24.9751 20.5405 25.2144 21.021C25.364 21.3814 25.5135 21.6817 25.6033 21.982C25.8426 22.7628 25.9323 23.5135 25.8126 24.2943Z" fill="#696969"/>
</g>
<defs>
<clipPath id="clip0_126_11338">
<rect width="95.7447" height="30" fill="white"/>
</clipPath>
</defs>
</svg>
