<svg width="11" height="12" viewBox="0 0 11 12" fill="none" xmlns="http://www.w3.org/2000/svg">
<path d="M5.10938 0.914062C5.20312 0.796875 5.39062 0.796875 5.50781 0.914062L10.4062 5.8125C10.5234 5.92969 10.5234 6.09375 10.4062 6.21094L5.50781 11.1094C5.39062 11.2266 5.20312 11.2266 5.10938 11.1094L4.64062 10.6641C4.52344 10.5469 4.52344 10.3594 4.64062 10.2656L8.27344 6.60938H0.28125C0.117188 6.60938 0 6.49219 0 6.32812V5.67188C0 5.53125 0.117188 5.39062 0.28125 5.39062H8.27344L4.64062 1.75781C4.52344 1.66406 4.52344 1.47656 4.64062 1.35938L5.10938 0.914062Z" fill="white"/>
</svg>
