<svg width="26" height="26" viewBox="0 0 26 26" fill="none" xmlns="http://www.w3.org/2000/svg">
<path d="M7.03803 6.99536C7.01041 6.74677 7.23138 6.5258 7.50759 6.5258H19.0533C19.3295 6.5258 19.5229 6.71915 19.5229 6.99536V18.5411C19.5229 18.8173 19.3019 19.0383 19.0533 19.0107L17.9761 19.0383C17.6999 19.0383 17.4789 18.8173 17.5065 18.5687L17.4789 9.97847L8.06002 19.3974C7.86667 19.5907 7.59046 19.5907 7.39711 19.3974L6.62371 18.624C6.45798 18.4582 6.43036 18.1544 6.62371 17.961L16.0426 8.54216H7.47997C7.23138 8.56978 7.01041 8.34881 7.01041 8.07259L7.03803 6.99536Z" fill="#62647A"/>
</svg>
