<svg width="204" height="40" viewBox="0 0 204 40" fill="none" xmlns="http://www.w3.org/2000/svg">
<g clip-path="url(#clip0_214_1191)">
<path d="M23.5932 7.51651L11.7966 15.033L23.5932 22.5495L11.7966 30.066L0 22.5089L11.7966 14.9924L0 7.51651L11.7966 0L23.5932 7.51651ZM11.7356 32.4835L23.5322 24.967L35.3288 32.4835L23.5322 40L11.7356 32.4835ZM23.5932 22.5089L35.3898 14.9924L23.5932 7.51651L35.3288 0L47.1254 7.51651L35.3288 15.033L47.1254 22.5495L35.3288 30.066L23.5932 22.5089Z" fill="#0061FF"/>
<path d="M56.3799 7.51649H65.9189C72.0002 7.51649 77.0239 11.031 77.0239 19.0553V20.7415C77.0239 28.8268 72.3256 32.4632 66.1019 32.4632H56.3799V7.51649ZM61.7087 12.0467V27.9126H65.7968C69.2545 27.9126 71.5731 25.6577 71.5731 20.6399V19.3194C71.5731 14.3017 69.1324 12.0467 65.6138 12.0467H61.7087ZM79.8511 12.2905H84.1223L84.8138 16.9832C85.6273 13.7938 87.7019 12.0873 91.4646 12.0873H92.7867V17.4708H90.59C86.2578 17.4708 85.2002 18.9741 85.2002 23.2402V32.5241H79.9324V12.2905H79.8511ZM93.8443 22.8136V22.2448C93.8443 15.4799 98.1765 11.7826 104.075 11.7826C110.095 11.7826 114.305 15.4799 114.305 22.2448V22.8136C114.305 29.4566 110.217 33.032 104.075 33.032C97.546 32.971 93.8443 29.4769 93.8443 22.8136ZM108.915 22.7527V22.2448C108.915 18.4865 107.024 16.2316 104.014 16.2316C101.065 16.2316 99.1121 18.3037 99.1121 22.2448V22.7527C99.1121 26.389 101.004 28.4611 104.014 28.4611C107.024 28.4002 108.915 26.389 108.915 22.7527ZM117.071 12.2905H121.465L121.973 16.1097C123.031 13.55 125.288 11.7826 128.624 11.7826C133.77 11.7826 137.166 15.4799 137.166 22.326V22.8949C137.166 29.5378 133.404 33.0523 128.624 33.0523C125.431 33.0523 123.234 31.6099 122.156 29.294V39.5124H117.01L117.071 12.2905ZM131.817 22.7527V22.3057C131.817 18.2834 129.743 16.2925 126.976 16.2925C124.027 16.2925 122.075 18.5475 122.075 22.3057V22.6917C122.075 26.2671 123.966 28.5221 126.915 28.5221C129.946 28.4611 131.817 26.5312 131.817 22.7527ZM144.956 28.7862L144.509 32.4835H139.993V5.52563H145.139V15.8659C146.278 13.225 148.536 11.7826 151.729 11.7826C156.57 11.8436 160.149 15.1752 160.149 21.8791V22.5089C160.149 29.2128 156.753 33.0523 151.607 33.0523C148.21 32.971 146.014 31.4068 144.956 28.7862ZM154.739 22.5089V22.001C154.739 18.3037 152.726 16.2316 149.899 16.2316C147.01 16.2316 144.997 18.5475 144.997 22.0619V22.5089C144.997 26.2671 146.949 28.4611 149.838 28.4611C152.929 28.4611 154.739 26.5312 154.739 22.5089ZM162.407 22.8136V22.2448C162.407 15.4799 166.739 11.7826 172.637 11.7826C178.658 11.7826 182.868 15.4799 182.868 22.2448V22.8136C182.868 29.4566 178.719 33.032 172.637 33.032C166.109 32.971 162.407 29.4769 162.407 22.8136ZM177.519 22.7527V22.2448C177.519 18.4865 175.627 16.2316 172.617 16.2316C169.668 16.2316 167.715 18.3037 167.715 22.2448V22.7527C167.715 26.389 169.607 28.4611 172.617 28.4611C175.648 28.4002 177.519 26.389 177.519 22.7527ZM189.763 22.001L182.665 12.2905H188.746L192.834 18.3646L196.983 12.2905H203.004L195.804 21.9401L203.39 32.4835H197.431L192.793 25.7796L188.278 32.4835H182.054L189.763 22.001Z" fill="#696969"/>
</g>
<defs>
<clipPath id="clip0_214_1191">
<rect width="203.39" height="40" fill="white"/>
</clipPath>
</defs>
</svg>
