<svg width="188" height="40" viewBox="0 0 188 40" fill="none" xmlns="http://www.w3.org/2000/svg">
<g clip-path="url(#clip0_214_1217)">
<path d="M66.1839 23.0387L65.0664 26.2015H64.9733C64.787 25.4884 64.4455 24.4031 63.8868 23.1008L57.8955 8.062H52.0283V32.031H55.9087V17.2403C55.9087 16.3101 55.9087 15.2558 55.8777 13.9535C55.8466 13.3023 55.7845 12.8062 55.7535 12.4341H55.8466C56.0329 13.3643 56.2502 14.0465 56.4054 14.4806L63.6074 31.969H66.3392L73.4791 14.3256C73.6343 13.9225 73.7895 13.1163 73.9447 12.4341H74.0378C73.9447 14.2015 73.8826 15.7829 73.8516 16.7442V31.938H77.9803V7.99999H72.3305L66.1839 23.0387ZM81.8917 14.7597H85.9273V31.938H81.8917V14.7597ZM83.9406 7.50386C83.2576 7.50386 82.6989 7.75192 82.2332 8.18603C81.7676 8.62014 81.5192 9.17828 81.5192 9.86045C81.5192 10.5116 81.7676 11.0698 82.2332 11.5039C82.6989 11.938 83.2576 12.155 83.9406 12.155C84.6235 12.155 85.2133 11.907 85.6479 11.5039C86.1136 11.0698 86.3619 10.5116 86.3619 9.86045C86.3619 9.20929 86.1136 8.65115 85.6479 8.18603C85.2444 7.75192 84.6546 7.50386 83.9406 7.50386ZM100.238 14.6046C99.4931 14.4496 98.7171 14.3566 97.972 14.3566C96.1405 14.3566 94.4642 14.7597 93.0672 15.5659C91.6703 16.3721 90.5527 17.4884 89.8388 18.8837C89.0937 20.3101 88.7212 21.9535 88.7212 23.8449C88.7212 25.4884 89.0937 26.9457 89.8077 28.2791C90.5217 29.5814 91.5151 30.6356 92.8499 31.3488C94.1227 32.062 95.6128 32.4341 97.2891 32.4341C99.2138 32.4341 100.859 32.031 102.163 31.2868L102.194 31.2558V27.5349L102.039 27.6589C101.449 28.093 100.766 28.4651 100.083 28.6822C99.369 28.9302 98.7171 29.0542 98.1583 29.0542C96.5441 29.0542 95.2713 28.5891 94.371 27.5659C93.4398 26.5736 92.9741 25.2093 92.9741 23.5039C92.9741 21.7364 93.4398 20.3411 94.4021 19.3178C95.3644 18.2946 96.6372 17.7674 98.1893 17.7674C99.4931 17.7674 100.828 18.2015 102.039 19.0698L102.194 19.1938V15.2558L102.163 15.2248C101.635 15.0077 101.045 14.7597 100.238 14.6046ZM113.556 14.4806C112.562 14.4806 111.631 14.7907 110.824 15.4418C110.141 16 109.675 16.8062 109.272 17.7674H109.241V14.7597H105.205V31.938H109.241V23.1628C109.241 21.6744 109.551 20.4341 110.234 19.5349C110.917 18.6046 111.786 18.1395 112.842 18.1395C113.214 18.1395 113.587 18.2325 114.052 18.2946C114.487 18.4186 114.797 18.5426 115.015 18.6977L115.17 18.8217V14.7907L115.077 14.7597C114.797 14.5736 114.239 14.4806 113.556 14.4806ZM124.545 14.3876C121.72 14.3876 119.454 15.2248 117.871 16.8682C116.256 18.5116 115.48 20.7752 115.48 23.6279C115.48 26.2946 116.287 28.4651 117.84 30.0465C119.392 31.5969 121.503 32.4031 124.141 32.4031C126.904 32.4031 129.108 31.5659 130.691 29.8915C132.306 28.217 133.082 25.9845 133.082 23.2248C133.082 20.4961 132.337 18.3256 130.816 16.7442C129.357 15.1628 127.215 14.3876 124.545 14.3876ZM127.773 27.5969C127.028 28.5581 125.849 29.0232 124.39 29.0232C122.931 29.0232 121.751 28.5581 120.913 27.5349C120.075 26.5736 119.671 25.1783 119.671 23.4108C119.671 21.5814 120.106 20.186 120.913 19.1938C121.751 18.2015 122.9 17.7054 124.359 17.7054C125.787 17.7054 126.904 18.1705 127.711 19.1318C128.518 20.093 128.953 21.4884 128.953 23.3178C128.891 25.1783 128.549 26.6356 127.773 27.5969ZM142.084 21.8915C140.811 21.3643 140.004 20.9612 139.632 20.6201C139.321 20.3101 139.166 19.876 139.166 19.3178C139.166 18.8527 139.352 18.3876 139.818 18.0775C140.284 17.7674 140.811 17.6124 141.588 17.6124C142.27 17.6124 142.984 17.7364 143.667 17.9225C144.35 18.1085 144.971 18.3876 145.468 18.7597L145.623 18.8837V15.1008L145.53 15.0698C145.064 14.8837 144.443 14.6977 143.698 14.5426C142.953 14.4186 142.27 14.3566 141.712 14.3566C139.787 14.3566 138.204 14.8217 136.962 15.8449C135.72 16.8062 135.131 18.1085 135.131 19.6279C135.131 20.4341 135.255 21.1473 135.534 21.7364C135.814 22.3256 136.217 22.8837 136.776 23.3488C137.335 23.7829 138.142 24.2791 139.259 24.7442C140.191 25.1473 140.905 25.4574 141.339 25.7054C141.774 25.9535 142.053 26.2325 142.27 26.4496C142.426 26.6977 142.519 27.0077 142.519 27.4108C142.519 28.5581 141.65 29.1163 139.88 29.1163C139.197 29.1163 138.483 28.9922 137.645 28.7132C136.807 28.4341 136.031 28.031 135.379 27.5659L135.224 27.4418V31.3798L135.317 31.4108C135.907 31.6899 136.621 31.876 137.49 32.093C138.359 32.248 139.135 32.3721 139.818 32.3721C141.898 32.3721 143.605 31.907 144.816 30.8837C146.058 29.8915 146.71 28.6201 146.71 26.9767C146.71 25.8294 146.399 24.8062 145.716 24.031C144.816 23.2868 143.698 22.5116 142.084 21.8915ZM157.357 14.3876C154.532 14.3876 152.266 15.2248 150.683 16.8682C149.1 18.5116 148.293 20.7752 148.293 23.6279C148.293 26.2946 149.1 28.4651 150.652 30.0465C152.204 31.5969 154.315 32.4031 156.954 32.4031C159.717 32.4031 161.921 31.5659 163.504 29.8915C165.118 28.217 165.894 25.9845 165.894 23.2248C165.894 20.4961 165.149 18.3256 163.628 16.7442C162.169 15.1628 160.027 14.3876 157.357 14.3876ZM160.555 27.5969C159.81 28.5581 158.63 29.0232 157.171 29.0232C155.681 29.0232 154.532 28.5581 153.694 27.5349C152.856 26.5736 152.453 25.1783 152.453 23.4108C152.453 21.5814 152.887 20.186 153.694 19.1938C154.532 18.2015 155.681 17.7054 157.14 17.7054C158.537 17.7054 159.686 18.1705 160.493 19.1318C161.3 20.093 161.734 21.4884 161.734 23.3178C161.734 25.1783 161.331 26.6356 160.555 27.5969ZM187.469 18.0775V14.7597H183.403V9.6744L183.278 9.70541L179.429 10.8527L179.336 10.8837V14.7597H173.251V12.5891C173.251 11.5969 173.5 10.8217 173.934 10.3256C174.369 9.82944 175.021 9.58138 175.828 9.58138C176.387 9.58138 176.977 9.70541 177.629 9.98448L177.784 10.0775V6.57363L177.691 6.54262C177.132 6.35657 176.387 6.23254 175.424 6.23254C174.214 6.23254 173.158 6.51161 172.196 6.97673C171.234 7.50386 170.52 8.21704 169.992 9.17828C169.464 10.1085 169.185 11.1628 169.185 12.3721V14.7597H166.36V18.0465H169.185V31.938H173.251V18.0775H179.336V26.9147C179.336 30.5426 181.043 32.3721 184.458 32.3721C185.017 32.3721 185.607 32.2791 186.165 32.186C186.755 32.062 187.19 31.907 187.438 31.7829L187.469 31.7519V28.4341L187.314 28.5581C187.066 28.7132 186.848 28.8372 186.476 28.9302C186.165 29.0232 185.886 29.0542 185.669 29.0542C184.862 29.0542 184.303 28.8682 183.899 28.4031C183.527 27.969 183.34 27.2558 183.34 26.2015V18.0775H187.469Z" fill="#737373"/>
<path d="M0 0H19.0294V19.0078H0V0Z" fill="#F25022"/>
<path d="M21.0166 0H40.046V19.0078H21.0166V0Z" fill="#7FBA00"/>
<path d="M0 20.9922H19.0294V39.9999H0V20.9922Z" fill="#00A4EF"/>
<path d="M21.0166 20.9922H40.046V39.9999H21.0166V20.9922Z" fill="#FFB900"/>
</g>
<defs>
<clipPath id="clip0_214_1217">
<rect width="187.5" height="40" fill="white"/>
</clipPath>
</defs>
</svg>
