<svg width="128" height="40" viewBox="0 0 128 40" fill="none" xmlns="http://www.w3.org/2000/svg">
<g clip-path="url(#clip0_214_1202)">
<path d="M67.2789 10.05C67.2789 11.4915 66.1224 12.6527 64.6867 12.6527C63.2509 12.6527 62.0944 11.4915 62.0944 10.05C62.0944 8.60861 63.2111 7.44745 64.6867 7.44745C66.1623 7.48749 67.2789 8.64865 67.2789 10.05ZM56.5908 15.2953C56.5908 15.5355 56.5908 15.9359 56.5908 15.9359C56.5908 15.9359 55.3545 14.3343 52.7223 14.3343C48.3753 14.3343 44.9854 17.6577 44.9854 22.2623C44.9854 26.8268 48.3354 30.1902 52.7223 30.1902C55.3944 30.1902 56.5908 28.5485 56.5908 28.5485V29.2292C56.5908 29.5495 56.8301 29.7898 57.1491 29.7898H60.3795V14.7347C60.3795 14.7347 57.4283 14.7347 57.1491 14.7347C56.8301 14.7347 56.5908 15.015 56.5908 15.2953ZM56.5908 24.9449C55.9926 25.8258 54.7961 26.5866 53.3604 26.5866C50.808 26.5866 48.8539 24.985 48.8539 22.2623C48.8539 19.5395 50.808 17.9379 53.3604 17.9379C54.7563 17.9379 56.0325 18.7387 56.5908 19.5796V24.9449ZM62.7724 14.7347H66.601V29.7898H62.7724V14.7347ZM119.962 14.3343C117.33 14.3343 116.093 15.9359 116.093 15.9359V7.48749H112.265V29.7898C112.265 29.7898 115.216 29.7898 115.495 29.7898C115.814 29.7898 116.054 29.5095 116.054 29.2292V28.5485C116.054 28.5485 117.29 30.1902 119.922 30.1902C124.269 30.1902 127.659 26.8268 127.659 22.2623C127.659 17.6977 124.269 14.3343 119.962 14.3343ZM119.324 26.5465C117.848 26.5465 116.692 25.7858 116.093 24.9049V19.5395C116.692 18.7387 117.968 17.8979 119.324 17.8979C121.876 17.8979 123.83 19.4995 123.83 22.2222C123.83 24.9449 121.876 26.5465 119.324 26.5465ZM110.271 20.8609V29.8298H106.442V21.3013C106.442 18.8188 105.645 17.8178 103.491 17.8178C102.334 17.8178 101.138 18.4184 100.38 19.2993V29.7898H96.5517V14.7347H99.5827C99.9017 14.7347 100.141 15.015 100.141 15.2953V15.9359C101.258 14.7748 102.733 14.3343 104.209 14.3343C105.884 14.3343 107.28 14.8148 108.396 15.7758C109.752 16.8969 110.271 18.3383 110.271 20.8609ZM87.2594 14.3343C84.6273 14.3343 83.3909 15.9359 83.3909 15.9359V7.48749H79.5623V29.7898C79.5623 29.7898 82.5136 29.7898 82.7927 29.7898C83.1118 29.7898 83.3511 29.5095 83.3511 29.2292V28.5485C83.3511 28.5485 84.5874 30.1902 87.2195 30.1902C91.5666 30.1902 94.9565 26.8268 94.9565 22.2623C94.9964 17.6977 91.6065 14.3343 87.2594 14.3343ZM86.6213 26.5465C85.1457 26.5465 83.9892 25.7858 83.3909 24.9049V19.5395C83.9892 18.7387 85.2654 17.8979 86.6213 17.8979C89.1737 17.8979 91.1279 19.4995 91.1279 22.2222C91.1279 24.9449 89.1737 26.5465 86.6213 26.5465ZM76.2522 14.3343C77.4088 14.3343 78.007 14.5345 78.007 14.5345V18.0981C78.007 18.0981 74.8165 17.017 72.8224 19.2993V29.8298H68.9938V14.7347C68.9938 14.7347 71.945 14.7347 72.2242 14.7347C72.5433 14.7347 72.7825 15.015 72.7825 15.2953V15.9359C73.5004 15.0951 75.0558 14.3343 76.2522 14.3343ZM36.4907 28.4284C36.2913 27.9479 36.0919 27.4274 35.8925 26.987C35.5734 26.2663 35.2544 25.5856 34.9752 24.9449L34.9353 24.9049C32.1835 18.8989 29.2323 12.8128 26.1216 6.80681L26.0019 6.56657C25.6829 5.96597 25.3638 5.32533 25.0448 4.68468C24.646 3.96396 24.2472 3.2032 23.6091 2.48248C22.3329 0.880881 20.4983 0 18.5442 0C16.5501 0 14.7555 0.880881 13.4394 2.4024C12.8412 3.12312 12.4025 3.88388 12.0036 4.6046C11.6846 5.24525 11.3656 5.88589 11.0465 6.48649L10.9269 6.72673C7.85601 12.7327 4.86492 18.8188 2.11312 24.8248L2.07324 24.9049C1.79407 25.5455 1.47502 26.2262 1.15597 26.9469C0.956565 27.3874 0.757159 27.8679 0.557754 28.3884C0.0392984 29.8699 -0.120226 31.2713 0.0791795 32.7127C0.517872 35.7157 2.51193 38.2382 5.26373 39.3594C6.30064 39.7998 7.37743 40 8.49411 40C8.81316 40 9.21197 39.96 9.53102 39.9199C10.8471 39.7598 12.2031 39.3193 13.5191 38.5586C15.1543 37.6376 16.7096 36.3163 18.4644 34.3944C20.2192 36.3163 21.8144 37.6376 23.4097 38.5586C24.7257 39.3193 26.0817 39.7598 27.3978 39.9199C27.7168 39.96 28.1156 40 28.4347 40C29.5514 40 30.668 39.7998 31.6651 39.3594C34.4567 38.2382 36.4109 35.6757 36.8496 32.7127C37.1687 31.3113 37.0091 29.9099 36.4907 28.4284ZM18.5043 30.5105C16.3507 27.7878 14.9549 25.2252 14.4763 23.0631C14.2769 22.1421 14.237 21.3413 14.3566 20.6206C14.4364 19.98 14.6757 19.4194 14.9947 18.9389C15.7525 17.8579 17.0287 17.1772 18.5043 17.1772C19.9799 17.1772 21.296 17.8178 22.0138 18.9389C22.3329 19.4194 22.5722 19.98 22.6519 20.6206C22.7716 21.3413 22.7317 22.1822 22.5323 23.0631C22.0537 25.1852 20.6579 27.7477 18.5043 30.5105ZM34.4169 32.3924C34.1377 34.4745 32.7419 36.2763 30.7877 37.0771C29.8305 37.4775 28.7936 37.5976 27.7567 37.4775C26.7597 37.3574 25.7627 37.037 24.7257 36.4364C23.29 35.6356 21.8543 34.3944 20.1793 32.5526C22.8114 29.3093 24.4067 26.3463 25.0049 23.7037C25.2841 22.4625 25.324 21.3413 25.2043 20.3003C25.0448 19.2993 24.6859 18.3784 24.1275 17.5776C22.8912 15.7758 20.8174 14.7347 18.5043 14.7347C16.1912 14.7347 14.1174 15.8158 12.881 17.5776C12.3227 18.3784 11.9638 19.2993 11.8042 20.3003C11.6447 21.3413 11.6846 22.5025 12.0036 23.7037C12.6019 26.3463 14.237 29.3493 16.8293 32.5926C15.1941 34.4344 13.7185 35.6757 12.2828 36.4765C11.2459 37.0771 10.2489 37.3974 9.25185 37.5175C8.17506 37.6376 7.13815 37.4775 6.22088 37.1171C4.2667 36.3163 2.87086 34.5145 2.59169 32.4324C2.47205 31.4314 2.55181 30.4304 2.95062 29.3093C3.07027 28.9089 3.26967 28.5085 3.46908 28.028C3.74825 27.3874 4.0673 26.7067 4.38635 26.026L4.42623 25.9459C7.17803 19.98 10.1292 13.8939 13.2001 7.96797L13.3197 7.72773C13.6388 7.12713 13.9578 6.48649 14.2769 5.88589C14.5959 5.24524 14.9549 4.64464 15.3935 4.12412C16.2311 3.16316 17.3477 2.64264 18.584 2.64264C19.8204 2.64264 20.937 3.16316 21.7745 4.12412C22.2132 4.64464 22.5722 5.24524 22.8912 5.88589C23.2103 6.48649 23.5293 7.12713 23.8484 7.72773L23.968 7.96797C26.999 13.9339 29.9502 20.02 32.702 25.986V26.026C33.021 26.6667 33.3002 27.3874 33.6192 28.028C33.8186 28.5085 34.0181 28.9089 34.1377 29.3093C34.4567 30.3503 34.5764 31.3514 34.4169 32.3924Z" fill="#696969"/>
</g>
<defs>
<clipPath id="clip0_214_1202">
<rect width="127.66" height="40" fill="white"/>
</clipPath>
</defs>
</svg>
