<svg width="15" height="14" viewBox="0 0 15 14" fill="none" xmlns="http://www.w3.org/2000/svg">
<path d="M8.1875 0.21875C8.0625 0.0625 7.8125 0.0625 7.65625 0.21875L1.125 6.75C0.96875 6.90625 0.96875 7.125 1.125 7.28125L7.65625 13.8125C7.8125 13.9688 8.0625 13.9688 8.1875 13.8125L8.8125 13.2188C8.96875 13.0625 8.96875 12.8125 8.8125 12.6875L3.96875 7.8125H14.625C14.8438 7.8125 15 7.65625 15 7.4375V6.5625C15 6.375 14.8438 6.1875 14.625 6.1875H3.96875L8.8125 1.34375C8.96875 1.21875 8.96875 0.96875 8.8125 0.8125L8.1875 0.21875Z" fill="#6844ED"/>
</svg>
