<svg width="16" height="16" viewBox="0 0 16 16" fill="none" xmlns="http://www.w3.org/2000/svg">
<path d="M16 8C16 9.1875 15.25 10.1875 14.1875 10.5938C14.6562 11.5938 14.4688 12.8438 13.6562 13.6562C12.8125 14.5 11.5938 14.6875 10.5625 14.2188C10.1562 15.2812 9.15625 16 8 16C6.8125 16 5.8125 15.2812 5.40625 14.2188C4.40625 14.6875 3.15625 14.5 2.34375 13.6562C1.5 12.8438 1.3125 11.5938 1.78125 10.5938C0.71875 10.1875 0 9.1875 0 8C0 6.84375 0.71875 5.84375 1.78125 5.4375C1.3125 4.4375 1.5 3.1875 2.34375 2.34375C3.15625 1.53125 4.40625 1.34375 5.40625 1.8125C5.8125 0.75 6.8125 0 8 0C9.15625 0 10.1562 0.75 10.5625 1.8125C11.5625 1.34375 12.8125 1.53125 13.6562 2.34375C14.4688 3.1875 14.6562 4.4375 14.1875 5.4375C15.25 5.84375 16 6.84375 16 8ZM11.4688 6.625C11.5938 6.5 11.5938 6.28125 11.4688 6.15625L10.6562 5.34375C10.5312 5.1875 10.3125 5.1875 10.1562 5.34375L7.125 8.34375L5.8125 7.03125C5.6875 6.875 5.46875 6.875 5.3125 7L4.5 7.8125C4.375 7.96875 4.375 8.1875 4.5 8.3125L6.875 10.6875C7 10.8125 7.21875 10.8438 7.375 10.6875L11.4688 6.625Z" fill="#6844ED"/>
</svg>
