<svg width="32" height="26" viewBox="0 0 32 26" fill="none" xmlns="http://www.w3.org/2000/svg">
<path d="M30.8438 17.3125C31.2344 17.3125 31.625 17.7031 31.625 18.0938V20.4375C31.625 23.0254 29.4766 25.125 26.9375 25.125H5.0625C2.47461 25.125 0.375 23.0254 0.375 20.4375V18.0938C0.375 17.7031 0.716797 17.3125 1.15625 17.3125H3.5V3.25C3.5 1.54102 4.86719 0.125 6.625 0.125H25.375C27.084 0.125 28.5 1.54102 28.5 3.25V17.3125H30.8438ZM5.84375 3.25V17.3125H26.1562V3.25C26.1562 2.85938 25.7656 2.46875 25.375 2.46875H6.625C6.18555 2.46875 5.84375 2.85938 5.84375 3.25ZM29.2812 20.4375V19.6562H20.4434C20.1504 20.1445 19.6621 20.4375 19.125 20.4375H12.875C12.2891 20.4375 11.8008 20.1445 11.5078 19.6562H2.71875V20.4375C2.71875 21.7559 3.74414 22.7812 5.0625 22.7812H26.9375C28.207 22.7812 29.2812 21.7559 29.2812 20.4375ZM13.9004 12.918C13.6074 13.2109 13.1191 13.2109 12.8262 12.918L9.94531 10.0859C9.65234 9.79297 9.65234 9.25586 9.94531 8.96289L12.8262 6.13086C13.1191 5.83789 13.6074 5.83789 13.9004 6.13086L14.4375 6.66797C14.7793 6.96094 14.7793 7.49805 14.4375 7.79102L12.7285 9.5L14.4375 11.2578C14.7793 11.5508 14.7793 12.0879 14.4375 12.3809L13.9004 12.918ZM17.5137 12.3809C17.1719 12.0879 17.1719 11.5508 17.5137 11.2578L19.2227 9.5L17.5137 7.79102C17.1719 7.49805 17.1719 6.96094 17.5137 6.66797L18.0508 6.13086C18.3438 5.83789 18.832 5.83789 19.125 6.13086L22.0059 8.96289C22.2988 9.25586 22.2988 9.79297 22.0059 10.0859L19.125 12.918C18.832 13.2109 18.3438 13.2109 18.0508 12.918L17.5137 12.3809Z" fill="white"/>
</svg>
