<svg width="26" height="26" viewBox="0 0 26 26" fill="none" xmlns="http://www.w3.org/2000/svg">
<path d="M2.70898 17.3613C4.66211 15.3594 7.29883 15.2617 9.10547 17.0195C10.8633 18.8262 10.7656 21.4629 8.76367 23.416C7.54297 24.6855 4.36914 25.2715 1 25.125C0.853516 21.7559 1.43945 18.582 2.70898 17.3613ZM6.71289 21.4629C7.34766 20.7793 7.39648 19.9004 6.81055 19.3145C6.22461 18.7285 5.3457 18.7773 4.66211 19.4121C4.27148 19.8516 4.07617 20.877 4.125 22C5.24805 22.0488 6.27344 21.8535 6.71289 21.4629ZM25.6582 1.10156C26 2.66406 26 3.88477 25.9512 5.10547C25.9512 10.1348 23.2656 13.1621 19.7012 15.4082V20.5352C19.7012 21.3164 19.1641 22.2441 18.4316 22.6348L13.5977 25.0273C13.4512 25.0762 13.2559 25.125 13.1094 25.125C12.4258 25.125 11.9375 24.6367 11.9375 23.9531V18.875C11.9375 16.3359 9.83789 14.1875 7.25 14.1875H2.17188C1.48828 14.1875 1 13.6992 1 13.0156C1 12.8691 1.04883 12.6738 1.09766 12.5273L3.53906 7.69336C3.88086 6.96094 4.80859 6.375 5.58984 6.375H10.7168C12.9629 2.85938 15.9902 0.125 21.0195 0.125C22.2402 0.125 23.4609 0.125 25.0234 0.466797C25.3164 0.564453 25.5605 0.808594 25.6582 1.10156ZM18.4805 13.4551C22.0938 11.1602 23.6074 8.62109 23.6074 5.10547C23.6562 4.27539 23.6562 3.49414 23.5098 2.61523C22.6309 2.46875 21.8984 2.46875 21.0195 2.46875C17.4551 2.46875 14.9648 4.03125 12.6699 7.64453C11.8887 8.91406 12.3281 8.03516 10.1309 12.5273C11.6934 13.2109 12.9141 14.4316 13.5977 15.9941C18.0898 13.7969 17.2109 14.2363 18.4805 13.4551ZM18.9688 5.20312C20.043 5.25195 20.9219 6.08203 20.9219 7.15625C20.9219 8.2793 20.043 9.10938 18.9688 9.10938C17.8457 9.10938 17.0156 8.2793 17.0156 7.15625C17.0156 6.08203 17.8457 5.25195 18.9688 5.20312Z" fill="white"/>
</svg>
