<svg width="25" height="25" viewBox="0 0 25 25" fill="none" xmlns="http://www.w3.org/2000/svg">
<path d="M22.6562 7.15625C23.9258 7.15625 25 8.23047 25 9.5V15.75C25 16.1895 24.6094 16.5312 24.2188 16.5312H23.4375V21.8047C23.4375 23.2207 22.2656 24.3438 20.8496 24.3438H4.10156C2.68555 24.3438 1.5625 23.2207 1.5625 21.8047V16.5312H0.78125C0.341797 16.5312 0 16.1895 0 15.75V9.5C0 8.23047 1.02539 7.15625 2.34375 7.15625H3.71094C3.36914 6.57031 3.22266 5.93555 3.22266 5.20312C3.22266 2.85938 5.12695 0.90625 7.51953 0.90625C9.52148 0.90625 10.8398 1.98047 12.5488 4.27539C14.209 1.98047 15.5273 0.90625 17.5781 0.90625C19.9219 0.90625 21.875 2.85938 21.875 5.20312C21.875 5.93555 21.6797 6.57031 21.3379 7.15625H22.6562ZM11.3281 22V9.5H2.34375V14.1875H9.375V16.5312H3.90625V21.8047C3.90625 21.9023 4.00391 22 4.10156 22H11.3281ZM7.4707 7.15625H11.7188L11.6211 7.00977C9.32617 3.64062 8.54492 3.25 7.4707 3.25C6.39648 3.25 5.51758 4.12891 5.51758 5.20312C5.51758 6.32617 6.39648 7.15625 7.4707 7.15625ZM13.4277 7.00977L13.3301 7.15625H17.5781C18.6523 7.15625 19.5312 6.32617 19.5312 5.20312C19.5312 4.12891 18.6523 3.25 17.5781 3.25C16.5039 3.25 15.7227 3.64062 13.4277 7.00977ZM22.6562 14.1875V9.5H13.6719V22H20.8496C20.9961 22 21.0938 21.9023 21.0938 21.8047V16.5312H15.625V14.1875H22.6562Z" fill="white"/>
</svg>
