<svg width="24" height="24" viewBox="0 0 24 24" fill="none" xmlns="http://www.w3.org/2000/svg">
<path d="M23.1562 7.73438C23.6719 8.15625 24 8.8125 24 9.46875V21.75C24 23.0156 22.9688 24 21.75 24H2.25C0.984375 24 0 23.0156 0 21.75V9.46875C0 8.76562 0.28125 8.15625 0.796875 7.73438C0.84375 7.6875 1.45312 7.21875 2.25 6.5625V4.5C2.25 3.28125 3.23438 2.25 4.5 2.25H7.59375C8.67188 1.35938 10.2188 0 12 0C13.7344 0 15.3281 1.35938 16.3594 2.25H19.5C20.7188 2.25 21.75 3.28125 21.75 4.5V6.5625C22.5 7.21875 23.1094 7.6875 23.1562 7.73438ZM4.5 4.5V11.8594C6.1875 13.2188 8.15625 14.8594 8.53125 15.1406C9.375 15.7969 10.875 17.25 12 17.25C13.0781 17.25 14.5781 15.8438 15.4219 15.1406C15.7969 14.8594 17.7656 13.2188 19.5 11.8594V4.5H4.5ZM21.75 21.4688V12.9375C19.9219 14.3906 17.25 16.5469 16.8281 16.9219C15.75 17.7656 14.0156 19.5 12 19.5C9.9375 19.5 8.15625 17.7188 7.125 16.9219C6.70312 16.5938 4.03125 14.4375 2.25 12.9375V21.4688C2.25 21.6562 2.34375 21.75 2.53125 21.75H21.4688C21.6094 21.75 21.75 21.6562 21.75 21.4688ZM8.25 9C7.82812 9 7.5 8.67188 7.5 8.25V7.5C7.5 7.125 7.82812 6.75 8.25 6.75H15.75C16.125 6.75 16.5 7.125 16.5 7.5V8.25C16.5 8.67188 16.125 9 15.75 9H8.25ZM16.5 12C16.5 12.4219 16.125 12.75 15.75 12.75H8.25C7.82812 12.75 7.5 12.4219 7.5 12V11.25C7.5 10.875 7.82812 10.5 8.25 10.5H15.75C16.125 10.5 16.5 10.875 16.5 11.25V12Z" fill="#6844ED"/>
</svg>
