<svg width="18" height="25" viewBox="0 0 18 25" fill="none" xmlns="http://www.w3.org/2000/svg">
<path d="M9 0C13.9219 0 18 4.03125 18 9C18 12.375 16.875 13.4062 10.875 22.9688C9.98438 24.375 7.96875 24.375 7.07812 22.9688C1.07812 13.4062 0 12.375 0 9C0 4.07812 3.98438 0 9 0ZM9 21.75C15 12.0938 15.75 11.5781 15.75 9C15.75 5.29688 12.7031 2.25 9 2.25C5.25 2.25 2.25 5.29688 2.25 9C2.25 11.5781 3 12.1875 9 21.75ZM5.25 9C5.25 6.9375 6.89062 5.25 9 5.25C11.0625 5.25 12.75 6.9375 12.75 9C12.75 11.1094 11.0625 12.75 9 12.75C6.89062 12.75 5.25 11.1094 5.25 9Z" fill="#6844ED"/>
</svg>
