<svg width="23" height="25" viewBox="0 0 23 25" fill="none" xmlns="http://www.w3.org/2000/svg">
<path d="M12.5938 19.3594C13.0156 20.3438 12.6406 21.4688 11.7031 22.0312L9.07812 23.6719C8.23438 24.2344 7.10938 24.1406 6.35938 23.3906C0.5 17.4844 0.546875 8.01562 6.35938 2.15625C7.10938 1.40625 8.23438 1.3125 9.07812 1.875L11.7031 3.51562C12.6406 4.07812 13.0156 5.20312 12.5938 6.1875L11.2812 9.46875C10.9062 10.4062 9.96875 10.9219 9.03125 10.8281L8 10.7344C7.67188 12.0938 7.71875 13.5 8 14.8125L9.03125 14.7188C9.96875 14.625 10.9062 15.1406 11.2812 16.0781L12.5938 19.3594ZM7.95312 21.75L10.4844 20.1562L9.21875 16.9219L6.40625 17.2031C5.23438 13.9688 5.23438 11.5781 6.40625 8.34375L9.21875 8.625L10.4844 5.39062L7.95312 3.79688C2.98438 8.76562 2.98438 16.7812 7.95312 21.75ZM15.2188 4.78125C15.4531 4.54688 15.875 4.54688 16.0625 4.82812C16.625 5.57812 17 6.51562 17 7.5C17 8.53125 16.625 9.46875 16.0625 10.2188C15.875 10.5 15.4531 10.5 15.2188 10.2656L14.7031 9.75C14.5156 9.5625 14.4688 9.23438 14.6094 9C14.9375 8.57812 15.125 8.0625 15.125 7.54688V7.5H15.0781C15.0781 6.98438 14.9375 6.46875 14.6094 6.04688C14.4688 5.8125 14.5156 5.48438 14.7031 5.29688L15.2188 4.78125ZM19.4844 0.515625C19.7188 0.28125 20.0938 0.28125 20.3281 0.515625C21.9688 2.39062 23 4.82812 23 7.5C23 10.2188 21.9688 12.6562 20.3281 14.5312C20.0938 14.7656 19.7188 14.7656 19.4844 14.5312L18.9688 14.0156C18.7344 13.7812 18.7344 13.4531 18.9219 13.2188C20.3281 11.6719 21.125 9.65625 21.125 7.5C21.125 5.39062 20.3281 3.375 18.9219 1.82812C18.7344 1.59375 18.7344 1.26562 18.9688 1.03125L19.4844 0.515625ZM17.375 2.625C17.6094 2.39062 17.9844 2.4375 18.1719 2.67188C19.2969 3.98438 20 5.67188 20 7.5C20 9.375 19.2969 11.0625 18.1719 12.375C17.9844 12.6094 17.6094 12.6562 17.375 12.4219L16.8125 11.8594C16.625 11.6719 16.625 11.3438 16.8125 11.1094C17.6562 10.125 18.125 8.85938 18.125 7.5C18.125 6.1875 17.6562 4.92188 16.8125 3.9375C16.625 3.70312 16.625 3.375 16.8125 3.1875L17.375 2.625Z" fill="#6844ED"/>
</svg>
