<svg width="14" height="13" viewBox="0 0 14 13" fill="none" xmlns="http://www.w3.org/2000/svg">
<path d="M0.875 4.67188V1.28125C0.875 0.925781 1.14844 0.625 1.53125 0.625H4.92188C5.08594 0.625 5.25 0.789062 5.25 0.953125V1.60938C5.25 1.80078 5.08594 1.9375 4.92188 1.9375H2.1875V4.67188C2.1875 4.86328 2.02344 5 1.85938 5H1.20312C1.01172 5 0.875 4.86328 0.875 4.67188ZM8.75 0.953125C8.75 0.789062 8.88672 0.625 9.07812 0.625H12.4688C12.8242 0.625 13.125 0.925781 13.125 1.28125V4.67188C13.125 4.86328 12.9609 5 12.7969 5H12.1406C11.9492 5 11.8125 4.86328 11.8125 4.67188V1.9375H9.07812C8.88672 1.9375 8.75 1.80078 8.75 1.60938V0.953125ZM12.7969 8.5C12.9609 8.5 13.125 8.66406 13.125 8.82812V12.2188C13.125 12.6016 12.8242 12.875 12.4688 12.875H9.07812C8.88672 12.875 8.75 12.7383 8.75 12.5469V11.8906C8.75 11.7266 8.88672 11.5625 9.07812 11.5625H11.8125V8.82812C11.8125 8.66406 11.9492 8.5 12.1406 8.5H12.7969ZM5.25 12.5469C5.25 12.7383 5.08594 12.875 4.92188 12.875H1.53125C1.14844 12.875 0.875 12.6016 0.875 12.2188V8.82812C0.875 8.66406 1.01172 8.5 1.20312 8.5H1.85938C2.02344 8.5 2.1875 8.66406 2.1875 8.82812V11.5625H4.92188C5.08594 11.5625 5.25 11.7266 5.25 11.8906V12.5469Z" fill="#696969"/>
</svg>
