<svg width="16" height="12" viewBox="0 0 16 12" fill="none" xmlns="http://www.w3.org/2000/svg">
<path d="M14.8906 3.37109L12.2656 5.99609C12.0469 6.21484 11.6914 6.05078 11.6914 5.77734V3.78125H1.32812C1.13672 3.78125 1 3.64453 1 3.45312V2.79688C1 2.63281 1.13672 2.46875 1.32812 2.46875H11.6914V0.5C11.6914 0.226562 12.0469 0.0625 12.2656 0.28125L14.8906 2.90625C15.0273 3.04297 15.0273 3.23438 14.8906 3.37109ZM1.08203 8.62109C0.945312 8.48438 0.945312 8.29297 1.08203 8.15625L3.70703 5.53125C3.92578 5.3125 4.28125 5.47656 4.28125 5.75V7.71875H14.6719C14.8359 7.71875 15 7.88281 15 8.04688V8.70312C15 8.89453 14.8359 9.03125 14.6719 9.03125H4.28125V11.0273C4.28125 11.3008 3.92578 11.4648 3.70703 11.2461L1.08203 8.62109Z" fill="#696969"/>
</svg>
