<svg width="16" height="15" viewBox="0 0 16 15" fill="none" xmlns="http://www.w3.org/2000/svg">
<path d="M15.0664 2.5C15.5039 2.5 15.8047 2.91016 15.7227 3.32031L14.4922 9.00781C14.4102 9.30859 14.1641 9.5 13.8359 9.5H5.30469L5.55078 10.8125H13.2617C13.6992 10.8125 14 11.2227 13.918 11.6328L13.8906 11.7422C14.2188 12.0703 14.4375 12.5078 14.4375 13C14.4375 13.9844 13.6445 14.75 12.6875 14.75C11.7031 14.75 10.9375 13.9844 10.9375 13C10.9375 12.6992 11.0195 12.3984 11.1562 12.125H7.19141C7.32812 12.3984 7.4375 12.6992 7.4375 13C7.4375 13.9844 6.64453 14.75 5.6875 14.75C4.70312 14.75 3.9375 13.9844 3.9375 13C3.9375 12.5352 4.10156 12.125 4.40234 11.7969L2.51562 2.0625H0.328125C0.136719 2.0625 0 1.92578 0 1.73438V1.07812C0 0.914062 0.136719 0.75 0.328125 0.75H3.0625C3.36328 0.75 3.63672 0.996094 3.69141 1.29688L3.9375 2.5H15.0664ZM5.6875 13.6562C6.04297 13.6562 6.34375 13.3828 6.34375 13C6.34375 12.6445 6.04297 12.3438 5.6875 12.3438C5.30469 12.3438 5.03125 12.6445 5.03125 13C5.03125 13.3828 5.30469 13.6562 5.6875 13.6562ZM12.6875 13.6562C13.043 13.6562 13.3438 13.3828 13.3438 13C13.3438 12.6445 13.043 12.3438 12.6875 12.3438C12.3047 12.3438 12.0312 12.6445 12.0312 13C12.0312 13.3828 12.3047 13.6562 12.6875 13.6562ZM13.3164 8.1875L14.2734 3.8125H4.18359L5.03125 8.1875H13.3164Z" fill="#6844ED"/>
</svg>
