<svg width="153" height="30" viewBox="0 0 153 30" fill="none" xmlns="http://www.w3.org/2000/svg">
<g clip-path="url(#clip0_126_11327)">
<path d="M17.6949 5.63738L8.84746 11.2748L17.6949 16.9121L8.84746 22.5495L0 16.8817L8.84746 11.2443L0 5.63738L8.84746 0L17.6949 5.63738ZM8.8017 24.3626L17.6492 18.7252L26.4966 24.3626L17.6492 30L8.8017 24.3626ZM17.6949 16.8817L26.5424 11.2443L17.6949 5.63738L26.4966 0L35.3441 5.63738L26.4966 11.2748L35.3441 16.9121L26.4966 22.5495L17.6949 16.8817Z" fill="#0061FF"/>
<path d="M42.2847 5.63743H49.4389C53.9999 5.63743 57.7677 8.27329 57.7677 14.2916V15.5562C57.7677 21.6202 54.244 24.3474 49.5762 24.3474H42.2847V5.63743ZM46.2813 9.03509V20.9345H49.3474C51.9406 20.9345 53.6796 19.2433 53.6796 15.48V14.4896C53.6796 10.7263 51.8491 9.03509 49.2101 9.03509H46.2813ZM59.8881 9.21793H63.0914L63.6101 12.7375C64.2203 10.3454 65.7762 9.06557 68.5982 9.06557H69.5898V13.1031H67.9423C64.6931 13.1031 63.8999 14.2306 63.8999 17.4302V24.3931H59.9491V9.21793H59.8881ZM70.383 17.1103V16.6836C70.383 11.61 73.6321 8.83702 78.0559 8.83702C82.5711 8.83702 85.7287 11.61 85.7287 16.6836V17.1103C85.7287 22.0925 82.6626 24.774 78.0559 24.774C73.1592 24.7283 70.383 22.1077 70.383 17.1103ZM81.6864 17.0646V16.6836C81.6864 13.865 80.2677 12.1737 78.0101 12.1737C75.7982 12.1737 74.3338 13.7278 74.3338 16.6836V17.0646C74.3338 19.7918 75.7525 21.3459 78.0101 21.3459C80.2677 21.3002 81.6864 19.7918 81.6864 17.0646ZM87.8033 9.21793H91.0982L91.4796 12.0823C92.2728 10.1626 93.966 8.83702 96.4677 8.83702C100.327 8.83702 102.874 11.61 102.874 16.7446V17.1712C102.874 22.1534 100.052 24.7893 96.4677 24.7893C94.0728 24.7893 92.4253 23.7075 91.6169 21.9706V29.6344H87.7575L87.8033 9.21793ZM98.8626 17.0646V16.7294C98.8626 13.7126 97.3067 12.2195 95.2321 12.2195C93.0203 12.2195 91.5559 13.9107 91.5559 16.7294V17.0188C91.5559 19.7004 92.9745 21.3916 95.1864 21.3916C97.4592 21.3459 98.8626 19.8985 98.8626 17.0646ZM108.717 21.5897L108.381 24.3627H104.995V4.14429H108.854V11.8995C109.708 9.91879 111.402 8.83702 113.797 8.83702C117.427 8.88273 120.112 11.3815 120.112 16.4094V16.8817C120.112 21.9097 117.564 24.7893 113.705 24.7893C111.158 24.7283 109.51 23.5552 108.717 21.5897ZM116.054 16.8817V16.5008C116.054 13.7278 114.544 12.1737 112.424 12.1737C110.258 12.1737 108.747 13.9107 108.747 16.5465V16.8817C108.747 19.7004 110.212 21.3459 112.378 21.3459C114.697 21.3459 116.054 19.8985 116.054 16.8817ZM121.805 17.1103V16.6836C121.805 11.61 125.054 8.83702 129.478 8.83702C133.993 8.83702 137.151 11.61 137.151 16.6836V17.1103C137.151 22.0925 134.039 24.774 129.478 24.774C124.581 24.7283 121.805 22.1077 121.805 17.1103ZM133.139 17.0646V16.6836C133.139 13.865 131.72 12.1737 129.463 12.1737C127.251 12.1737 125.786 13.7278 125.786 16.6836V17.0646C125.786 19.7918 127.205 21.3459 129.463 21.3459C131.736 21.3002 133.139 19.7918 133.139 17.0646ZM142.322 16.5008L136.998 9.21793H141.559L144.625 13.7735L147.737 9.21793H152.252L146.852 16.4551L152.542 24.3627H148.073L144.595 19.3347L141.208 24.3627H136.541L142.322 16.5008Z" fill="#696969"/>
</g>
<defs>
<clipPath id="clip0_126_11327">
<rect width="152.542" height="30" fill="white"/>
</clipPath>
</defs>
</svg>
