<svg width="80" height="80" viewBox="0 0 80 80" fill="none" xmlns="http://www.w3.org/2000/svg">
<rect width="80" height="80" rx="25" fill="white"/>
<rect x="0.5" y="0.5" width="79" height="79" rx="24.5" stroke="url(#paint0_linear_6_259)" stroke-opacity="0.15"/>
<g clip-path="url(#clip0_6_259)">
<path d="M58.4632 61H21.5526C20.7019 61 20.0034 60.3015 20.0034 59.4509V22.5491C20.0034 21.6985 20.7019 21 21.5526 21H58.4632C59.3139 21 60.0124 21.6985 60.0124 22.5491V59.4598C60.0034 60.3105 59.3139 61 58.4632 61Z" fill="#4D4D4E"/>
<path d="M29.2266 33.0798L50.1623 26.4355C50.1623 26.4355 51.6488 25.6565 51.2906 27.0981L51.3443 33.5007C51.3443 33.5007 51.604 34.4409 50.3145 34.6737L41.8077 37.3332L29.2266 33.0798Z" fill="#F89820"/>
<path d="M29.2265 33.0796C29.2265 33.0796 28.4027 33.2766 28.6445 34.6825L28.5997 40.8521C28.5997 40.8521 28.528 41.6312 30.0055 41.9446L50.7533 48.6247C50.7533 48.6247 51.4517 48.9023 51.3711 48.0427L51.3801 41.1656C51.3801 41.1656 51.5771 40.4581 50.2876 39.9925L41.8077 37.333L29.2265 33.0796Z" fill="#F89820"/>
<path d="M38.3695 44.6311L29.5403 47.3264C29.5403 47.3264 28.4747 47.3622 28.6001 49.3591C28.7255 51.356 28.5911 55.3766 28.5911 55.3766C28.5911 55.3766 28.6807 56.1198 29.7015 55.69L50.6373 49.0099C50.6373 49.0099 51.3805 48.8218 50.7537 48.6159C50.1269 48.4189 38.3695 44.6311 38.3695 44.6311Z" fill="url(#paint1_linear_6_259)"/>
</g>
<defs>
<linearGradient id="paint0_linear_6_259" x1="19.3171" y1="-6.52474e-07" x2="80.1779" y2="38.0068" gradientUnits="userSpaceOnUse">
<stop stop-color="white" stop-opacity="0.6"/>
<stop offset="1" stop-color="white" stop-opacity="0.3"/>
</linearGradient>
<linearGradient id="paint1_linear_6_259" x1="29.8159" y1="51.7176" x2="50.9937" y2="44.3902" gradientUnits="userSpaceOnUse">
<stop offset="0.233" stop-color="#F89822"/>
<stop offset="1" stop-color="#C27818"/>
</linearGradient>
<clipPath id="clip0_6_259">
<rect width="40.016" height="40" fill="white" transform="translate(20 21)"/>
</clipPath>
</defs>
</svg>
