<svg width="80" height="80" viewBox="0 0 80 80" fill="none" xmlns="http://www.w3.org/2000/svg">
<rect width="80" height="80" rx="25" fill="white"/>
<rect x="0.5" y="0.5" width="79" height="79" rx="24.5" stroke="url(#paint0_linear_6_270)" stroke-opacity="0.15"/>
<g clip-path="url(#clip0_6_270)">
<path d="M20 20H60V60H20V20Z" fill="#F0DB4F"/>
<path d="M56.7261 50.4602C56.4333 48.6351 55.2432 47.1028 51.7185 45.6731C50.4942 45.1104 49.1292 44.7074 48.7223 43.7796C48.5778 43.2396 48.5588 42.9355 48.6501 42.6085C48.9124 41.5476 50.1786 41.2168 51.1824 41.521C51.8288 41.7377 52.4409 42.2359 52.8098 43.0305C54.536 41.9127 54.5322 41.9203 55.7375 41.1522C55.2965 40.4678 55.0607 40.1522 54.7717 39.8595C53.7337 38.6998 52.3193 38.1028 50.0569 38.1484C49.6653 38.1979 49.2699 38.2511 48.8782 38.3005C47.749 38.5857 46.6729 39.1788 46.0417 39.9735C44.1482 42.1218 44.6881 45.8822 46.9923 47.4298C49.2622 49.1332 52.5968 49.5211 53.0227 51.1142C53.4371 53.0648 51.5893 53.6959 49.7527 53.4716C48.3991 53.1903 47.6463 52.502 46.8326 51.2511C45.3345 52.118 45.3345 52.118 43.7946 53.0039C44.1596 53.8024 44.5436 54.1636 45.1558 54.8557C48.0531 57.7948 55.3041 57.6503 56.6045 53.2017C56.6577 53.0495 57.0075 52.0305 56.7261 50.4602ZM41.7451 38.3841H38.0037C38.0037 41.6161 37.9885 44.8252 37.9885 48.0571C37.9885 50.1142 38.095 52.0001 37.7604 52.578C37.2128 53.7149 35.7946 53.5742 35.1482 53.3537C34.4904 53.0305 34.1558 52.5704 33.768 51.9203C33.6615 51.7339 33.5817 51.5895 33.555 51.578C32.5398 52.1978 31.5284 52.8214 30.5132 53.4412C31.0189 54.4792 31.7641 55.3803 32.7185 55.9658C34.1444 56.8214 36.0607 57.0837 38.0646 56.6236C39.3687 56.2434 40.4942 55.4564 41.0835 54.2587C41.9352 52.6883 41.7527 50.7872 41.7451 48.6845C41.7641 45.2549 41.7451 41.8252 41.7451 38.3841Z" fill="#323330"/>
</g>
<defs>
<linearGradient id="paint0_linear_6_270" x1="19.3171" y1="-6.52474e-07" x2="80.1779" y2="38.0068" gradientUnits="userSpaceOnUse">
<stop stop-color="white" stop-opacity="0.6"/>
<stop offset="1" stop-color="white" stop-opacity="0.3"/>
</linearGradient>
<clipPath id="clip0_6_270">
<rect width="40" height="40" fill="white" transform="translate(20 20)"/>
</clipPath>
</defs>
</svg>
