<svg width="80" height="80" viewBox="0 0 80 80" fill="none" xmlns="http://www.w3.org/2000/svg">
<rect width="80" height="80" rx="25" fill="white"/>
<rect x="0.5" y="0.5" width="79" height="79" rx="24.5" stroke="url(#paint0_linear_6_258)" stroke-opacity="0.15"/>
<g clip-path="url(#clip0_6_258)">
<path d="M21.1643 34.2988C21.1643 34.2988 20.2 33.6038 21.3571 32.6757L24.053 30.2651C24.053 30.2651 24.8244 29.4535 25.6399 30.1606L50.5174 48.9955V58.0273C50.5174 58.0273 50.5054 59.4455 48.6853 59.2888L21.1643 34.2988Z" fill="#2489CA"/>
<path d="M27.5762 40.1206L21.1639 45.9503C21.1639 45.9503 20.505 46.4404 21.1639 47.3163L24.141 50.0242C24.141 50.0242 24.8481 50.7835 25.8927 49.9197L32.6907 44.765L27.5762 40.1206Z" fill="#1070B3"/>
<path d="M38.8339 40.1687L50.5937 31.1892L50.5174 22.2057C50.5174 22.2057 50.0151 20.245 48.3398 21.2655L32.6909 35.5082L38.8339 40.1687Z" fill="#0877B9"/>
<path d="M48.6854 59.301C49.3684 60.0001 50.196 59.7711 50.196 59.7711L59.3603 55.2552C60.5335 54.4557 60.3688 53.4633 60.3688 53.4633V26.4967C60.3688 25.3114 59.1554 24.9016 59.1554 24.9016L51.2125 21.0728C49.4768 20.0001 48.3398 21.2656 48.3398 21.2656C48.3398 21.2656 49.8023 20.213 50.5174 22.2058V57.8627C50.5174 58.1077 50.4652 58.3488 50.3607 58.5658C50.1518 58.9876 49.6978 59.3813 48.609 59.2166L48.6854 59.301Z" fill="#3C99D4"/>
</g>
<defs>
<linearGradient id="paint0_linear_6_258" x1="19.3171" y1="-6.52474e-07" x2="80.1779" y2="38.0068" gradientUnits="userSpaceOnUse">
<stop stop-color="white" stop-opacity="0.6"/>
<stop offset="1" stop-color="white" stop-opacity="0.3"/>
</linearGradient>
<clipPath id="clip0_6_258">
<rect width="40.7332" height="40" fill="white" transform="translate(20 20)"/>
</clipPath>
</defs>
</svg>
