<svg width="80" height="80" viewBox="0 0 80 80" fill="none" xmlns="http://www.w3.org/2000/svg">
<rect width="80" height="80" rx="25" fill="white"/>
<rect x="0.5" y="0.5" width="79" height="79" rx="24.5" stroke="url(#paint0_linear_6_263)" stroke-opacity="0.15"/>
<g clip-path="url(#clip0_6_263)">
<path d="M40 20C28.9539 20 20 28.9539 20 40C20 51.0461 28.9539 60 40 60C51.0461 60 60 51.0461 60 40C60 28.9553 51.0461 20.0014 40 20ZM49.1723 48.8448C48.8134 49.4343 48.045 49.6186 47.4582 49.2596C42.7622 46.3896 36.8502 45.7414 29.8888 47.3313C29.2173 47.4855 28.5486 47.0652 28.3958 46.3937C28.2416 45.7223 28.6605 45.0536 29.3333 44.9007C36.9512 43.1607 43.4869 43.9099 48.7588 47.1307C49.3456 47.4923 49.5326 48.2579 49.1723 48.8448ZM51.6192 43.4009C51.1675 44.1351 50.2068 44.3644 49.4739 43.914C44.0996 40.61 35.9031 39.6534 29.5449 41.5831C28.7206 41.8328 27.8499 41.3675 27.5988 40.5445C27.3504 39.7202 27.8158 38.8509 28.6387 38.5998C35.9017 36.3958 44.9321 37.463 51.1047 41.2569C51.839 41.7086 52.071 42.668 51.6192 43.4009ZM51.8294 37.7291C45.3825 33.9011 34.7485 33.549 28.5937 35.4159C27.6056 35.7161 26.5602 35.158 26.2613 34.1699C25.9625 33.1818 26.5193 32.1365 27.5087 31.8362C34.5739 29.6923 46.3173 30.1058 53.7387 34.5111C54.6271 35.0392 54.9191 36.187 54.3924 37.074C53.8669 37.9638 52.7165 38.2572 51.8294 37.7291Z" fill="#2EBD59"/>
</g>
<defs>
<linearGradient id="paint0_linear_6_263" x1="19.3171" y1="-6.52474e-07" x2="80.1779" y2="38.0068" gradientUnits="userSpaceOnUse">
<stop stop-color="white" stop-opacity="0.6"/>
<stop offset="1" stop-color="white" stop-opacity="0.3"/>
</linearGradient>
<clipPath id="clip0_6_263">
<rect width="40" height="40" fill="white" transform="translate(20 20)"/>
</clipPath>
</defs>
</svg>
