<svg width="80" height="80" viewBox="0 0 80 80" fill="none" xmlns="http://www.w3.org/2000/svg">
<rect width="80" height="80" rx="25" fill="white"/>
<rect x="0.5" y="0.5" width="79" height="79" rx="24.5" stroke="url(#paint0_linear_6_264)" stroke-opacity="0.15"/>
<path d="M21 55.1645V24.8418C21 21.125 25.0317 18.7946 28.2482 20.653L57.4984 37.5654C58.8851 38.3375 58.6134 39.1093 58.1275 39.9386C56.9839 41.9261 54.4391 42.6119 52.4377 41.4683L29.6635 28.2872C28.4342 27.5724 26.9046 28.4588 26.9046 29.8884V50.1174C26.9046 51.5328 28.4484 52.4191 29.678 51.7185L38.3129 46.7006C38.6703 46.5004 38.5988 46.086 38.2701 45.8571C36.4545 44.6564 35.9541 42.2259 37.1406 40.4103L37.5695 39.767C37.8126 39.3955 38.2556 39.2953 38.6275 39.5384L47.5627 44.7852C48.8065 45.6001 48.7637 47.4443 47.4626 48.202L28.2626 59.3388C25.0317 61.2117 21 58.8813 21 55.1645Z" fill="#15C4D5"/>
<defs>
<linearGradient id="paint0_linear_6_264" x1="19.3171" y1="-6.52474e-07" x2="80.1779" y2="38.0068" gradientUnits="userSpaceOnUse">
<stop stop-color="white" stop-opacity="0.6"/>
<stop offset="1" stop-color="white" stop-opacity="0.3"/>
</linearGradient>
</defs>
</svg>
