<svg width="80" height="80" viewBox="0 0 80 80" fill="none" xmlns="http://www.w3.org/2000/svg">
<rect width="80" height="80" rx="25" fill="white"/>
<rect x="0.5" y="0.5" width="79" height="79" rx="24.5" stroke="url(#paint0_linear_6_265)" stroke-opacity="0.15"/>
<g clip-path="url(#clip0_6_265)">
<path d="M39.9086 20.0112C29.7389 20.0112 30.3739 24.4214 30.3739 24.4214L30.3851 28.9905H40.0899V30.3623H26.5306C26.5306 30.3623 20.0229 29.6243 20.0229 39.8854C20.0229 50.1469 25.7029 49.783 25.7029 49.783H29.0928V45.0213C29.0928 45.0213 28.91 39.3413 34.6821 39.3413H44.3075C44.3075 39.3413 49.7153 39.4286 49.7153 34.1148V25.3286C49.7153 25.3286 50.5367 20.0112 39.9086 20.0112ZM34.5574 23.0839C34.7867 23.0837 35.0138 23.1287 35.2257 23.2163C35.4377 23.304 35.6302 23.4326 35.7924 23.5948C35.9545 23.7569 36.0831 23.9495 36.1708 24.1614C36.2585 24.3733 36.3035 24.6004 36.3033 24.8297C36.3035 25.0591 36.2585 25.2862 36.1708 25.4981C36.0831 25.71 35.9545 25.9026 35.7924 26.0647C35.6302 26.2269 35.4377 26.3555 35.2257 26.4431C35.0138 26.5308 34.7867 26.5758 34.5574 26.5756C34.328 26.5758 34.1009 26.5308 33.889 26.4431C33.6771 26.3555 33.4846 26.2269 33.3224 26.0647C33.1602 25.9026 33.0316 25.71 32.944 25.4981C32.8563 25.2862 32.8113 25.0591 32.8115 24.8297C32.8113 24.6004 32.8563 24.3733 32.944 24.1614C33.0316 23.9495 33.1602 23.7569 33.3224 23.5948C33.4846 23.4326 33.6771 23.304 33.889 23.2163C34.1009 23.1287 34.328 23.0837 34.5574 23.0839Z" fill="url(#paint1_linear_6_265)"/>
<path d="M40.1971 59.863C50.3668 59.863 49.7318 55.4528 49.7318 55.4528L49.7206 50.8838H40.0156V49.5121H53.575C53.575 49.5121 60.0826 50.2501 60.0826 39.9886C60.0826 29.7273 54.4026 30.0912 54.4026 30.0912H51.0128V34.8528C51.0128 34.8528 51.1955 40.5328 45.4235 40.5328H35.798C35.798 40.5328 30.3902 40.4454 30.3902 45.7594V54.5458C30.3902 54.5458 29.569 59.863 40.1969 59.863H40.1971ZM45.5483 56.7906C45.319 56.7909 45.0919 56.7458 44.88 56.6582C44.668 56.5705 44.4755 56.4419 44.3133 56.2798C44.1512 56.1176 44.0226 55.925 43.9349 55.7131C43.8472 55.5012 43.8022 55.2741 43.8024 55.0448C43.8022 54.8154 43.8472 54.5883 43.9349 54.3764C44.0225 54.1644 44.1511 53.9719 44.3133 53.8097C44.4754 53.6475 44.668 53.5189 44.8799 53.4312C45.0918 53.3435 45.319 53.2985 45.5483 53.2987C45.7776 53.2985 46.0048 53.3435 46.2167 53.4312C46.4286 53.5189 46.6211 53.6475 46.7833 53.8096C46.9455 53.9718 47.0741 54.1643 47.1617 54.3762C47.2494 54.5882 47.2944 54.8153 47.2942 55.0446C47.2944 55.2739 47.2494 55.5011 47.1617 55.713C47.0741 55.9249 46.9455 56.1174 46.7833 56.2796C46.6211 56.4418 46.4286 56.5703 46.2167 56.658C46.0048 56.7457 45.7776 56.7909 45.5483 56.7906Z" fill="url(#paint2_linear_6_265)"/>
</g>
<defs>
<linearGradient id="paint0_linear_6_265" x1="19.3171" y1="-6.52474e-07" x2="80.1779" y2="38.0068" gradientUnits="userSpaceOnUse">
<stop stop-color="white" stop-opacity="0.6"/>
<stop offset="1" stop-color="white" stop-opacity="0.3"/>
</linearGradient>
<linearGradient id="paint1_linear_6_265" x1="404.997" y1="378.453" x2="2390.25" y2="2343.9" gradientUnits="userSpaceOnUse">
<stop stop-color="#387EB8"/>
<stop offset="1" stop-color="#366994"/>
</linearGradient>
<linearGradient id="paint2_linear_6_265" x1="598.613" y1="642.796" x2="2730.54" y2="2658.18" gradientUnits="userSpaceOnUse">
<stop stop-color="#FFE052"/>
<stop offset="1" stop-color="#FFC331"/>
</linearGradient>
<clipPath id="clip0_6_265">
<rect width="40.1606" height="40" fill="white" transform="translate(20 20)"/>
</clipPath>
</defs>
</svg>
