<svg width="80" height="80" viewBox="0 0 80 80" fill="none" xmlns="http://www.w3.org/2000/svg">
<rect width="80" height="80" rx="25" fill="white"/>
<rect x="0.5" y="0.5" width="79" height="79" rx="24.5" stroke="url(#paint0_linear_6_268)" stroke-opacity="0.15"/>
<g clip-path="url(#clip0_6_268)">
<path d="M39.6478 54.8251C55.4696 54.8251 68.2956 48.1485 68.2956 39.9125C68.2956 31.6766 55.4696 25 39.6478 25C23.8261 25 11 31.6766 11 39.9125C11 48.1485 23.8261 54.8251 39.6478 54.8251Z" fill="#8993BE"/>
<path fill-rule="evenodd" clip-rule="evenodd" d="M19.0449 48.7424L22.1845 32.8486H29.4443C32.5837 33.0449 34.1535 34.6145 34.1535 37.3618C34.1535 42.071 30.4255 44.8181 27.0896 44.6218H23.5581L22.7732 48.7424H19.0449ZM24.3428 41.6787L25.3239 35.792H27.8747C29.2482 35.792 30.2292 36.3806 30.2292 37.5578C30.0332 40.8937 28.4633 41.4824 26.6975 41.6787H24.3428ZM33.4241 44.6218L36.5635 28.7283H40.2918L39.5069 32.8486H43.0386C46.1782 33.0449 47.3555 34.6145 46.9631 36.5769L45.5896 44.6218H41.6653L43.0388 37.3618C43.2349 36.3806 43.2349 35.792 41.8616 35.792H38.9182L37.1524 44.6218H33.4241ZM45.3383 48.7424L48.4776 32.8486H55.7376C58.8773 33.0449 60.4471 34.6145 60.4471 37.3618C60.4471 42.071 56.7188 44.8181 53.3831 44.6218H49.8512L49.0663 48.7424H45.3383ZM50.6359 41.6787L51.617 35.792H54.168C55.5416 35.792 56.5225 36.3806 56.5225 37.5578C56.3265 40.8937 54.7567 41.4824 52.9908 41.6787H50.6361H50.6359Z" fill="#232531"/>
</g>
<defs>
<linearGradient id="paint0_linear_6_268" x1="19.3171" y1="-6.52474e-07" x2="80.1779" y2="38.0068" gradientUnits="userSpaceOnUse">
<stop stop-color="white" stop-opacity="0.6"/>
<stop offset="1" stop-color="white" stop-opacity="0.3"/>
</linearGradient>
<clipPath id="clip0_6_268">
<rect width="57.2956" height="30" fill="white" transform="translate(11 25)"/>
</clipPath>
</defs>
</svg>
