<svg width="80" height="80" viewBox="0 0 80 80" fill="none" xmlns="http://www.w3.org/2000/svg">
<rect width="80" height="80" rx="25" fill="white"/>
<rect x="0.5" y="0.5" width="79" height="79" rx="24.5" stroke="url(#paint0_linear_6_269)" stroke-opacity="0.15"/>
<path d="M57.4294 30C56.2973 28.0507 42.4005 20 40.1372 20C37.8747 20 23.9724 28.0306 22.8467 30C21.7209 31.9695 21.7146 48.0313 22.8467 50.0009C23.9787 51.9695 37.8763 60 40.1372 60C42.3981 60 56.2974 51.9594 57.4287 50C58.5597 48.0406 58.5605 31.9493 57.4294 30ZM44.8223 52.3609C44.5128 52.3609 41.6261 49.5664 41.8535 49.3381C41.9214 49.2703 42.3426 49.2226 43.2246 49.1952C43.2246 47.1461 43.2707 43.8367 43.298 42.4514C43.3013 42.2937 43.2637 42.1835 43.2637 41.9944H37.0191C37.0191 42.5491 36.9833 44.8225 37.1263 47.6882C37.1441 48.0428 37.0028 48.1537 36.6777 48.1521C35.8863 48.1499 35.0942 48.1435 34.302 48.146C33.9817 48.1467 33.8434 48.0265 33.8536 47.6687C33.9254 45.0563 34.0849 41.1045 33.8419 31.0539V30.8061C33.0864 30.7788 32.5622 30.7312 32.4934 30.6625C32.2652 30.4343 35.1918 27.6399 35.5004 27.6399C35.8098 27.6399 38.7169 30.4351 38.4903 30.6625C38.4223 30.7304 37.873 30.7788 37.1801 30.8061V31.0531C36.991 33.0648 37.0216 37.271 36.9747 39.2867H43.2449C43.2449 38.9311 43.2754 36.5726 43.1512 32.7523C43.1433 32.4874 43.2254 32.3483 43.48 32.3461C44.3448 32.3398 45.2105 32.3359 46.0761 32.3413C46.3464 32.3429 46.4331 32.4757 46.4277 32.7616C46.1425 47.7061 46.376 46.6632 46.376 49.1943C47.0691 49.2217 47.6901 49.2694 47.7582 49.3382C47.9833 49.5656 45.1317 52.3609 44.8223 52.3609Z" fill="#2EC866"/>
<defs>
<linearGradient id="paint0_linear_6_269" x1="19.3171" y1="-6.52474e-07" x2="80.1779" y2="38.0068" gradientUnits="userSpaceOnUse">
<stop stop-color="white" stop-opacity="0.6"/>
<stop offset="1" stop-color="white" stop-opacity="0.3"/>
</linearGradient>
</defs>
</svg>
