<svg width="80" height="80" viewBox="0 0 80 80" fill="none" xmlns="http://www.w3.org/2000/svg">
<rect width="80" height="80" rx="25" fill="white"/>
<rect x="0.5" y="0.5" width="79" height="79" rx="24.5" stroke="url(#paint0_linear_6_260)" stroke-opacity="0.15"/>
<g clip-path="url(#clip0_6_260)">
<path fill-rule="evenodd" clip-rule="evenodd" d="M62.4151 38.1706C62.4359 37.8284 62.467 37.4892 62.467 37.1425C62.467 27.6751 54.6737 20.0002 45.0591 20.0002C38.1266 20.0002 32.158 24 29.3582 29.7757C27.9491 28.6972 26.2235 28.1135 24.449 28.1151C20.0139 28.1151 16.4187 31.6557 16.4187 36.0227C16.4187 36.8433 16.5444 37.6357 16.7814 38.3793C13.3246 40.4046 11 44.1081 11 48.3566C11 54.7087 16.1803 59.8609 22.6079 59.9587L22.7441 59.9661L22.7917 59.9677L22.839 59.9661H57.3607C57.571 59.9763 57.7767 59.9971 57.9902 59.9971C64.3543 59.9971 69.5138 54.9176 69.5138 48.65C69.5138 43.926 66.5821 39.8801 62.4151 38.1706ZM26.7084 51.2185C25.5395 50.1607 24.8122 48.8779 24.5203 47.3671C24.4219 46.8425 24.3733 46.3098 24.3752 45.776C24.3738 43.622 25.1574 41.8412 26.7276 40.4389C28.2963 39.0344 30.2917 38.3308 32.7152 38.3322C35.2025 38.3322 37.5474 39.2625 39.6185 41.1244C40.1355 41.5884 40.6347 42.1111 41.1161 42.6901L43.7794 45.822C44.2402 46.453 44.735 46.9979 45.2459 47.4574C46.6132 48.6855 48.0975 49.3001 49.351 49.3001C50.4175 49.3001 51.3075 48.9742 52.0248 48.3195C52.6499 47.7239 53.0026 47.0114 53.081 46.1863L53.097 45.8252C53.097 45.4663 53.0467 45.1273 52.9432 44.8089C52.7729 44.2787 52.4602 43.8014 52.0069 43.3763C51.2988 42.7008 50.407 42.3674 49.3258 42.3674C47.9969 42.3674 46.6829 42.8149 45.2429 44.2101L42.8847 41.4371L42.5972 41.1155C44.6596 39.0949 46.7183 38.3365 49.4902 38.3365C51.9461 38.3365 53.9342 39.0344 55.4556 40.4268L55.4897 40.4549C57.0359 41.8444 57.8108 43.6412 57.8108 45.8457C57.8108 46.3909 57.7619 46.9122 57.6656 47.4085C57.3753 48.9001 56.6467 50.1712 55.4821 51.2244C54.3388 52.2777 52.9432 52.9369 51.2959 53.199C50.7226 53.2885 50.1431 53.3326 49.5629 53.3309C47.0193 53.3293 44.6669 52.4198 42.6431 50.6036C42.0755 50.0903 41.5518 49.5304 41.0774 48.9298L38.4142 45.8204C37.9639 45.1968 37.4763 44.6574 36.9696 44.2012C35.6055 42.976 34.1017 42.3628 32.8131 42.3628C32.4131 42.3628 32.0382 42.4101 31.6885 42.5036C31.1079 42.659 30.5998 42.9466 30.1614 43.3644C29.6252 43.8752 29.289 44.4638 29.1557 45.1285C29.1099 45.3557 29.0876 45.587 29.089 45.8188C29.089 46.7639 29.4295 47.5728 30.1111 48.2439L30.1628 48.2928C30.8947 48.9625 31.7939 49.2957 32.8604 49.2957C34.2012 49.2957 35.5209 48.8455 36.9579 47.4382L39.3044 50.1771L39.5636 50.4896C37.4215 52.5339 35.3847 53.3071 32.7198 53.3055C30.265 53.3055 28.2622 52.6095 26.7084 51.2185Z" fill="#4679A4"/>
</g>
<defs>
<linearGradient id="paint0_linear_6_260" x1="19.3171" y1="-6.52474e-07" x2="80.1779" y2="38.0068" gradientUnits="userSpaceOnUse">
<stop stop-color="white" stop-opacity="0.6"/>
<stop offset="1" stop-color="white" stop-opacity="0.3"/>
</linearGradient>
<clipPath id="clip0_6_260">
<rect width="58.5138" height="40" fill="white" transform="translate(11 20)"/>
</clipPath>
</defs>
</svg>
