<svg width="158" height="30" viewBox="0 0 158 30" fill="none" xmlns="http://www.w3.org/2000/svg">
<g clip-path="url(#clip0_126_11340)">
<path d="M20.267 3.10146C19.4755 2.66213 17.2066 2.93377 14.4815 3.77733C9.71233 7.03737 5.68722 11.8402 5.40634 19.5528C5.3552 19.7372 4.8848 19.5277 4.79176 19.4707C3.50389 17.0022 2.99366 14.4029 4.069 10.6531C4.26943 10.3194 3.61414 9.90863 3.49632 10.026C3.26028 10.2624 2.27631 11.3106 1.62278 12.4442C-1.61662 18.0638 0.501806 25.2643 6.16933 28.4154C11.8357 31.5715 18.991 29.5357 22.146 23.8675C25.796 17.3254 22.4068 4.29662 20.2671 3.10166L20.267 3.10146Z" fill="#82B541"/>
<path d="M40.5494 6.24121C33.8308 6.24121 28.9541 11.2361 28.9541 18.1181C28.9541 25.0565 33.8181 29.9025 40.7834 29.9025C44.3017 29.9025 47.0871 28.8023 49.3023 26.5376C49.9639 25.8232 50.0351 25.1347 50.0351 24.8715C50.0351 23.7497 49.2008 22.9347 48.0513 22.9347C47.4719 22.9347 46.9873 23.1535 46.4314 23.6675C45.1771 24.8363 43.5252 26.0303 40.7834 26.0303C36.9709 26.0303 33.8702 23.1678 33.6749 19.4918H48.8491C50.4992 19.4918 51.3007 18.7204 51.3007 17.134C51.3007 16.6669 51.3007 16.3299 51.2068 15.6649C50.3893 9.76444 46.4057 6.242 40.5498 6.242L40.5494 6.24121ZM40.5494 9.92554C44.1925 9.92554 46.5302 12.2473 46.6744 15.9946H33.6796C34.0208 12.5265 36.953 9.92554 40.5492 9.92554H40.5494Z" fill="#696969"/>
<path d="M65.7905 6.24121C62.7385 6.24121 59.7166 7.99619 58.5361 10.4336V8.92727C58.5361 6.5937 56.7275 6.47548 56.3653 6.47548C55.2937 6.47548 54.1484 7.11948 54.1484 8.92727V27.1212C54.1484 29.5445 56.0735 29.6669 56.4592 29.6669C56.845 29.6669 58.7709 29.5445 58.7709 27.1212V17.368C58.7709 13.1243 61.1756 10.1603 64.6184 10.1603C67.953 10.1603 69.5746 12.3487 69.5746 16.8514V27.1212C69.5746 29.5445 71.5005 29.6669 71.8863 29.6669C72.272 29.6669 74.197 29.5445 74.197 27.1212V15.3998C74.197 10.9725 71.9885 6.24259 65.7905 6.24259V6.24121Z" fill="#696969"/>
<path d="M95.1118 6.47595C94.0437 6.47595 93.269 7.09901 92.8077 8.32485L86.4835 24.2282L80.2076 8.32485C79.7163 7.08061 78.9474 6.47595 77.8565 6.47595C76.5821 6.47595 75.5449 7.47038 75.5449 8.69298C75.5449 8.99561 75.5792 9.38803 75.8351 10.0009L83.1029 27.1622C83.9691 29.2325 85.3935 29.6669 86.4365 29.6669C87.4788 29.6669 88.9042 29.2325 89.772 27.1632L97.0872 9.90653C97.3371 9.30118 97.3757 8.85673 97.3757 8.64636C97.3757 7.4096 96.4014 6.47625 95.1118 6.47625V6.47595Z" fill="#696969"/>
<path d="M108.548 6.24129C105.592 6.24129 102.838 7.06469 100.796 8.55805C100.103 9.03594 99.7663 9.63214 99.7663 10.3818C99.7663 11.414 100.554 12.2231 101.562 12.2231C101.998 12.2231 102.486 12.0495 102.934 11.7359C104.69 10.5654 106.34 10.0195 108.126 10.0195C111.543 10.0195 113.505 11.7577 113.505 14.7889V15.2912C105.833 15.2995 98.0303 16.2261 98.0303 22.9005C98.0303 27.7041 102.135 29.8549 106.204 29.8549C109.443 29.8549 112.031 28.5711 113.691 26.1403V27.3092C113.691 29.0499 114.86 29.6671 115.863 29.6671C116.074 29.6671 117.939 29.6008 117.939 27.3092V15.0694C117.939 9.54038 114.427 6.24011 108.548 6.24011L108.548 6.24129ZM112.533 18.6945H113.505V19.7593C113.505 23.6541 111.025 26.1704 107.189 26.1704C106.147 26.1704 102.748 25.9281 102.748 22.8064C102.748 19.1205 108.332 18.6945 112.533 18.6945Z" fill="#696969"/>
<path d="M129.979 10.676C132.001 10.676 132.103 9.10219 132.103 8.78688C132.103 7.85108 131.545 6.85075 129.979 6.85075H125.82V2.6441C125.82 0.765009 124.601 0.0983887 123.556 0.0983887C123.17 0.0983887 121.245 0.220835 121.245 2.6441V22.6201C121.245 27.2301 123.519 29.6667 127.822 29.6667C128.935 29.6667 130.021 29.4696 130.73 29.1393C131.543 28.7335 132.009 28.0661 132.009 27.3089C132.009 26.2407 131.235 25.466 130.166 25.466C129.96 25.466 129.667 25.5171 129.343 25.6102C128.947 25.7092 128.679 25.7476 128.385 25.7476C126.635 25.7476 125.82 24.6048 125.82 22.1506V10.674H129.979V10.676Z" fill="#696969"/>
<path d="M145.262 6.24121C138.27 6.24121 133.198 11.1967 133.198 18.0237C133.198 21.3475 134.427 24.3769 136.658 26.5535C138.871 28.7126 141.927 29.9017 145.262 29.9017C152.166 29.9017 157.373 24.7953 157.373 18.0239C157.373 11.1968 152.278 6.24141 145.262 6.24141L145.262 6.24121ZM145.262 25.9822C140.467 25.9822 137.96 21.9784 137.96 18.0232C137.96 12.5881 141.745 10.1129 145.262 10.1129C148.778 10.1129 152.563 12.5881 152.563 18.0232C152.563 23.4919 148.778 25.9822 145.262 25.9822Z" fill="#696969"/>
</g>
<defs>
<clipPath id="clip0_126_11340">
<rect width="157.475" height="30" fill="white"/>
</clipPath>
</defs>
</svg>
