<svg width="20" height="21" viewBox="0 0 20 21" fill="none" xmlns="http://www.w3.org/2000/svg">
<path d="M19.2969 6.94531C19.7266 7.29688 20 7.80469 20 8.39062V18.625C20 19.6797 19.1406 20.5 18.125 20.5H1.875C0.820312 20.5 0 19.6797 0 18.625V8.39062C0 7.80469 0.234375 7.29688 0.664062 6.94531C0.820312 6.82812 5 3.46875 5.9375 2.6875C6.83594 1.98438 8.28125 0.5 10 0.5C11.6797 0.5 13.1641 2.02344 14.0234 2.6875C14.9219 3.42969 19.1016 6.78906 19.2969 6.94531ZM18.125 18.3906V8.50781C18.125 8.42969 18.0859 8.35156 18.0078 8.3125C17.3828 7.80469 13.75 4.91406 12.8516 4.17188C12.1484 3.625 10.8984 2.375 10 2.375C9.0625 2.375 7.8125 3.58594 7.10938 4.17188C6.21094 4.91406 2.57812 7.80469 1.95312 8.3125C1.875 8.35156 1.875 8.42969 1.875 8.50781V18.3906C1.875 18.5469 1.95312 18.625 2.10938 18.625H17.8906C18.0078 18.625 18.125 18.5469 18.125 18.3906ZM16.875 11.0859C17.0312 11.2812 16.9922 11.5938 16.7969 11.75C15.6641 12.6484 14.4531 13.5859 14.0234 13.9766C13.125 14.6797 11.6797 16.125 10 16.125C8.28125 16.125 6.79688 14.6406 5.9375 13.9766C5.50781 13.625 4.29688 12.6484 3.16406 11.75C2.96875 11.5938 2.92969 11.2812 3.08594 11.0859L3.71094 10.3438C3.86719 10.1484 4.14062 10.1094 4.375 10.3047C5.46875 11.2031 6.64062 12.1406 7.10938 12.4922C7.8125 13.0391 9.0625 14.25 10 14.25C10.8984 14.25 12.1484 13.0781 12.8516 12.4922C13.3203 12.1406 14.4922 11.2031 15.5859 10.3047C15.8203 10.1094 16.0938 10.1484 16.25 10.3438L16.875 11.0859Z" fill="#3468F0"/>
</svg>
