<svg width="44" height="36" viewBox="0 0 44 36" fill="none" xmlns="http://www.w3.org/2000/svg">
<path d="M41.2891 9.125C42.5879 9.125 43.75 10.2871 43.75 11.5859V32.9141C43.75 34.2812 42.5879 35.375 41.2891 35.375H28.7109C27.3438 35.375 26.25 34.2812 26.25 32.9141V11.5859C26.25 10.2871 27.3438 9.125 28.7109 9.125H41.2891ZM39.375 31V13.5H30.625V31H39.375ZM8.75 4.75V20.0625H24.0625V26.625H4.30664C1.91406 26.625 0 24.7109 0 22.25V21.1562C0 20.6094 0.478516 20.0625 1.09375 20.0625H4.375V3.65625C4.375 1.87891 5.81055 0.443359 7.58789 0.375H31.7188C33.4961 0.443359 34.9316 1.87891 35 3.65625V6.9375H30.625V4.75H8.75Z" fill="#6844ED"/>
</svg>
