<svg width="44" height="36" viewBox="0 0 44 36" fill="none" xmlns="http://www.w3.org/2000/svg">
<path d="M41.5625 15.6875C42.7246 15.6875 43.75 16.7129 43.75 17.875V33.1875C43.75 34.418 42.7246 35.375 41.5625 35.375H2.1875C0.957031 35.375 0 34.418 0 33.1875V9.125C0 7.96289 0.957031 6.9375 2.1875 6.9375H6.35742L4.23828 5.43359C3.75977 5.0918 3.62305 4.4082 4.0332 3.92969L4.64844 3.04102C4.99023 2.5625 5.67383 2.42578 6.15234 2.76758L8.33984 4.33984L7.58789 2.28906C7.38281 1.67383 7.65625 1.05859 8.20312 0.853516L9.22852 0.443359C9.77539 0.238281 10.459 0.580078 10.6641 1.12695L12.0312 4.75L13.3301 1.12695C13.6035 0.580078 14.2188 0.238281 14.7656 0.511719L15.791 0.853516C16.3379 1.05859 16.6797 1.67383 16.4062 2.28906L15.6543 4.33984L17.8418 2.76758C18.3203 2.42578 19.0039 2.5625 19.3457 3.04102L20.0293 3.92969C20.3711 4.4082 20.2344 5.0918 19.7559 5.43359L17.6367 6.9375H21.875C23.0371 6.9375 24.0625 7.96289 24.0625 9.125V9.19336C27.002 9.53516 28.7109 12.543 29.5312 14.3203C30.3516 12.4062 32.1973 9.125 35.4785 9.125C38.623 9.125 40.4688 11.6543 40.4688 14.1152C40.4688 14.6621 40.332 15.209 40.127 15.6875H41.5625ZM35.4785 12.4062C34.248 12.4062 33.0859 14.3203 32.4707 15.6875H36.0938C36.2305 15.6191 36.4355 15.4824 36.5723 15.4141C37.0508 14.9355 37.1875 14.457 37.1875 14.1152C37.1875 13.4316 36.709 12.4062 35.4785 12.4062ZM23.5156 12.4062C22.2852 12.4062 21.875 13.4316 21.875 14.1152C21.875 14.457 21.9434 14.9355 22.4219 15.4141C22.5586 15.4824 22.7637 15.6191 22.9688 15.6875H26.5234C25.9082 14.3203 24.7461 12.4062 23.5156 12.4062ZM15.3125 17.875C15.3125 16.7129 16.2695 15.6875 17.5 15.6875H18.8672C18.6621 15.209 18.5938 14.6621 18.5938 14.1152C18.5938 12.6797 19.209 11.1758 20.3711 10.2188H3.28125V32.0938H15.3125V17.875ZM27.8906 32.0938V27.1719H18.5938V32.0938H27.8906ZM27.8906 23.8906V18.9688H18.5938V23.8906H27.8906ZM29.4629 15.6875H29.5312H29.4629ZM40.4688 32.0938V27.1719H31.1719V32.0938H40.4688ZM40.4688 23.8906V18.9688H31.1719V23.8906H40.4688Z" fill="#6844ED"/>
</svg>
