<svg width="40" height="36" viewBox="0 0 40 36" fill="none" xmlns="http://www.w3.org/2000/svg">
<path d="M37.666 4.75C38.7598 4.75 39.5117 5.77539 39.3066 6.80078L36.2305 21.0195C36.0254 21.7715 35.4102 22.25 34.5898 22.25H13.2617L13.877 25.5312H33.1543C34.248 25.5312 35 26.5566 34.7949 27.582L34.7266 27.8555C35.5469 28.6758 36.0938 29.7695 36.0938 31C36.0938 33.4609 34.1113 35.375 31.7188 35.375C29.2578 35.375 27.3438 33.4609 27.3438 31C27.3438 30.248 27.5488 29.4961 27.8906 28.8125H17.9785C18.3203 29.4961 18.5938 30.248 18.5938 31C18.5938 33.4609 16.6113 35.375 14.2188 35.375C11.7578 35.375 9.84375 33.4609 9.84375 31C9.84375 29.8379 10.2539 28.8125 11.0059 27.9922L6.28906 3.65625H0.820312C0.341797 3.65625 0 3.31445 0 2.83594V1.19531C0 0.785156 0.341797 0.375 0.820312 0.375H7.65625C8.4082 0.375 9.0918 0.990234 9.22852 1.74219L9.84375 4.75H37.666ZM14.2188 32.6406C15.1074 32.6406 15.8594 31.957 15.8594 31C15.8594 30.1113 15.1074 29.3594 14.2188 29.3594C13.2617 29.3594 12.5781 30.1113 12.5781 31C12.5781 31.957 13.2617 32.6406 14.2188 32.6406ZM31.7188 32.6406C32.6074 32.6406 33.3594 31.957 33.3594 31C33.3594 30.1113 32.6074 29.3594 31.7188 29.3594C30.7617 29.3594 30.0781 30.1113 30.0781 31C30.0781 31.957 30.7617 32.6406 31.7188 32.6406ZM33.291 18.9688L35.6836 8.03125H10.459L12.5781 18.9688H33.291Z" fill="#6844ED"/>
</svg>
