<svg width="40" height="36" viewBox="0 0 40 36" fill="none" xmlns="http://www.w3.org/2000/svg">
<path d="M10.9375 31C12.6465 31 14.4238 29.4961 15.3125 28.8125C19.6875 25.8047 20.9863 24.7109 21.875 24.0273V33.1875C21.875 34.418 20.8496 35.375 19.6875 35.375H2.1875C0.957031 35.375 0 34.418 0 33.1875V24.0273C0.820312 24.7109 2.1875 25.8047 6.5625 28.8125C7.38281 29.4961 9.16016 31 10.9375 31ZM19.6875 17.875C20.8496 17.875 21.875 18.9004 21.875 20.0625V21.4297C20.0977 22.7285 20.3027 22.7285 13.9453 27.3086C13.3301 27.5137 12.0312 28.8125 10.9375 28.8125C9.84375 28.8125 8.47656 27.5137 7.86133 27.1035C1.50391 22.5234 1.70898 22.5234 0 21.1562V20.0625C0 18.9004 0.957031 17.875 2.1875 17.875H19.6875ZM37.1875 11.3125C38.3496 11.3125 39.375 12.3379 39.375 13.5V26.625C39.375 27.8555 38.3496 28.8125 37.1875 28.8125H24.0625V19.6523H23.9941C23.7891 17.4648 21.9434 15.6875 19.6875 15.6875H13.125V13.5C13.125 12.3379 14.082 11.3125 15.3125 11.3125H37.1875ZM35 20.0625V15.6875H30.625V20.0625H35ZM10.9375 13.5V15.6875H4.375V2.5625C4.375 1.40039 5.33203 0.375 6.5625 0.375H28.4375C29.5996 0.375 30.625 1.40039 30.625 2.5625V9.125H15.3125C12.8516 9.125 10.9375 11.1074 10.9375 13.5Z" fill="#6844ED"/>
</svg>
