<svg width="41" height="36" viewBox="0 0 41 36" fill="none" xmlns="http://www.w3.org/2000/svg">
<path d="M32.7188 0.375C32.9922 0.375 33.1973 0.511719 33.4023 0.785156L40.2383 10.834C40.375 11.1074 40.375 11.5176 40.1699 11.791L21.3027 35.1016C20.9609 35.5117 20.3457 35.5117 20.0039 35.1016L1.13672 11.791C0.931641 11.5176 0.931641 11.1074 1.13672 10.834L7.97266 0.785156C8.10938 0.511719 8.38281 0.375 8.65625 0.375H32.7188ZM31.3516 3.65625H27.4551L31.0098 10.2188H35.7266L31.3516 3.65625ZM17.543 3.65625L14.0566 10.2188H27.3184L23.7637 3.65625H17.543ZM9.95508 3.65625L5.64844 10.2188H10.2969L13.8516 3.65625H9.95508ZM7.01562 13.5L15.2188 24.4375L10.502 13.5H7.01562ZM14.0566 13.5L20.6875 30.1797L27.25 13.5H14.0566ZM26.1562 24.4375L34.291 13.5H30.8047L26.1562 24.4375Z" fill="#6844ED"/>
</svg>
