<svg width="35" height="27" viewBox="0 0 35 27" fill="none" xmlns="http://www.w3.org/2000/svg">
<path d="M31.7188 5.125C33.4961 5.125 35 6.62891 35 8.40625V23.7188C35 25.5645 33.4961 27 31.7188 27H3.28125C1.43555 27 0 25.5645 0 23.7188V4.03125C0 2.25391 1.43555 0.75 3.28125 0.75H14.2188L18.5938 5.125H31.7188ZM25.1562 16.6094V15.5156C25.1562 14.9688 24.6094 14.4219 24.0625 14.4219H10.9375C10.3223 14.4219 9.84375 14.9688 9.84375 15.5156V16.6094C9.84375 17.2246 10.3223 17.7031 10.9375 17.7031H24.0625C24.6094 17.7031 25.1562 17.2246 25.1562 16.6094Z" fill="#6844ED"/>
</svg>
