<svg width="130" height="18" viewBox="0 0 130 18" fill="none" xmlns="http://www.w3.org/2000/svg">
<path d="M8.09375 1.56738C8.46875 0.817383 9.53125 0.848633 9.875 1.56738L11.9375 5.72363L16.5 6.37988C17.3125 6.50488 17.625 7.50488 17.0312 8.09863L13.75 11.3174L14.5312 15.8486C14.6562 16.6611 13.7812 17.2861 13.0625 16.9111L9 14.7549L4.90625 16.9111C4.1875 17.2861 3.3125 16.6611 3.4375 15.8486L4.21875 11.3174L0.9375 8.09863C0.34375 7.50488 0.65625 6.50488 1.46875 6.37988L6.0625 5.72363L8.09375 1.56738Z" fill="#FF9900"/>
<path d="M36.0938 1.56738C36.4688 0.817383 37.5312 0.848633 37.875 1.56738L39.9375 5.72363L44.5 6.37988C45.3125 6.50488 45.625 7.50488 45.0312 8.09863L41.75 11.3174L42.5312 15.8486C42.6562 16.6611 41.7812 17.2861 41.0625 16.9111L37 14.7549L32.9062 16.9111C32.1875 17.2861 31.3125 16.6611 31.4375 15.8486L32.2188 11.3174L28.9375 8.09863C28.3438 7.50488 28.6562 6.50488 29.4688 6.37988L34.0625 5.72363L36.0938 1.56738Z" fill="#FF9900"/>
<path d="M64.0938 1.56738C64.4688 0.817383 65.5312 0.848633 65.875 1.56738L67.9375 5.72363L72.5 6.37988C73.3125 6.50488 73.625 7.50488 73.0312 8.09863L69.75 11.3174L70.5312 15.8486C70.6562 16.6611 69.7812 17.2861 69.0625 16.9111L65 14.7549L60.9062 16.9111C60.1875 17.2861 59.3125 16.6611 59.4375 15.8486L60.2188 11.3174L56.9375 8.09863C56.3438 7.50488 56.6562 6.50488 57.4688 6.37988L62.0625 5.72363L64.0938 1.56738Z" fill="#FF9900"/>
<path d="M92.0938 1.56738C92.4688 0.817383 93.5312 0.848633 93.875 1.56738L95.9375 5.72363L100.5 6.37988C101.312 6.50488 101.625 7.50488 101.031 8.09863L97.75 11.3174L98.5312 15.8486C98.6562 16.6611 97.7812 17.2861 97.0625 16.9111L93 14.7549L88.9062 16.9111C88.1875 17.2861 87.3125 16.6611 87.4375 15.8486L88.2188 11.3174L84.9375 8.09863C84.3438 7.50488 84.6562 6.50488 85.4688 6.37988L90.0625 5.72363L92.0938 1.56738Z" fill="#FF9900"/>
<path d="M120.094 1.56738C120.469 0.817383 121.531 0.848633 121.875 1.56738L123.938 5.72363L128.5 6.37988C129.312 6.50488 129.625 7.50488 129.031 8.09863L125.75 11.3174L126.531 15.8486C126.656 16.6611 125.781 17.2861 125.062 16.9111L121 14.7549L116.906 16.9111C116.188 17.2861 115.312 16.6611 115.438 15.8486L116.219 11.3174L112.938 8.09863C112.344 7.50488 112.656 6.50488 113.469 6.37988L118.062 5.72363L120.094 1.56738Z" fill="#FF9900"/>
</svg>
