<svg width="96" height="30" viewBox="0 0 96 30" fill="none" xmlns="http://www.w3.org/2000/svg">
<g clip-path="url(#clip0_126_11330)">
<path d="M11.9766 10.7045V13.9091H19.7101C19.5048 15.6818 18.8889 17.0455 17.9307 17.9318C16.8357 19.0227 15.0563 20.25 11.9766 20.25C7.25442 20.25 3.55877 16.4318 3.55877 11.7273C3.55877 7.02273 7.18598 3.20455 11.9766 3.20455C14.5088 3.20455 16.4251 4.22727 17.7939 5.52273L20.0523 3.27273C18.1361 1.43182 15.5354 0 11.9766 0C5.47504 0 0 5.25 0 11.7273C0 18.2045 5.47504 23.4545 11.9766 23.4545C15.467 23.4545 18.1361 22.2955 20.1892 20.1818C22.3108 18.0682 22.9951 15.0682 22.9951 12.6818C22.9951 11.9318 22.9267 11.25 22.8583 10.7045H11.9766Z" fill="#696969"/>
<path d="M32.5762 8.04541C28.4015 8.04541 24.9111 11.25 24.9111 15.6136C24.9111 19.9772 28.333 23.1818 32.5762 23.1818C36.8193 23.1818 40.2412 20.0454 40.2412 15.6818C40.2412 11.25 36.8193 8.04541 32.5762 8.04541ZM32.5762 20.25C30.2493 20.25 28.2646 18.3409 28.2646 15.6818C28.2646 12.9545 30.2493 11.1136 32.5762 11.1136C34.9031 11.1136 36.8878 12.9545 36.8878 15.6818C36.8878 18.3409 34.9031 20.25 32.5762 20.25Z" fill="#696969"/>
<path d="M70.012 9.74996H69.8751C69.1223 8.86359 67.6851 8.04541 65.8373 8.04541C62.0047 8.04541 58.7197 11.3181 58.7197 15.6136C58.7197 19.8409 62.0047 23.1818 65.8373 23.1818C67.6851 23.1818 69.1223 22.3636 69.8751 21.4772H70.012V22.5681C70.012 25.4318 68.4379 27 65.9741 27C63.921 27 62.6891 25.5681 62.1416 24.2727L59.2672 25.5C60.0885 27.4772 62.3469 30 66.0426 30C69.9435 30 73.297 27.6818 73.297 22.0909V8.4545H70.1489V9.74996H70.012ZM66.1795 20.25C63.8526 20.25 62.1416 18.2727 62.1416 15.6818C62.1416 13.0227 63.921 11.1136 66.1795 11.1136C68.4379 11.1136 70.2173 13.0909 70.2173 15.75C70.2857 18.3409 68.5063 20.25 66.1795 20.25Z" fill="#696969"/>
<path d="M49.6172 8.04541C45.4425 8.04541 41.9521 11.25 41.9521 15.6136C41.9521 19.9772 45.374 23.1818 49.6172 23.1818C53.8604 23.1818 57.2822 20.0454 57.2822 15.6818C57.2822 11.25 53.8604 8.04541 49.6172 8.04541ZM49.6172 20.25C47.2903 20.25 45.3056 18.3409 45.3056 15.6818C45.3056 12.9545 47.2903 11.1136 49.6172 11.1136C51.9441 11.1136 53.9288 12.9545 53.9288 15.6818C53.9288 18.3409 51.9441 20.25 49.6172 20.25Z" fill="#696969"/>
<path d="M75.8291 0.340942H79.1141V23.25H75.8291V0.340942Z" fill="#696969"/>
<path d="M89.243 20.25C87.5321 20.25 86.3686 19.5 85.5474 17.9318L95.7446 13.7727L95.4024 12.8863C94.7865 11.1818 92.8018 8.04541 88.9008 8.04541C84.9999 8.04541 81.7148 11.1136 81.7148 15.6136C81.7148 19.8409 84.9314 23.1818 89.243 23.1818C92.7333 23.1818 94.7181 21.0681 95.6077 19.8409L93.0071 18.1363C92.1174 19.4318 90.954 20.25 89.243 20.25ZM89.0377 10.909C90.4065 10.909 91.5699 11.5909 91.9121 12.5454L85.0683 15.409C84.9999 12.2727 87.3268 10.909 89.0377 10.909Z" fill="#696969"/>
</g>
<defs>
<clipPath id="clip0_126_11330">
<rect width="95.7447" height="30" fill="white"/>
</clipPath>
</defs>
</svg>
