<svg width="16" height="16" viewBox="0 0 16 16" fill="none" xmlns="http://www.w3.org/2000/svg">
<path d="M7.75 3.25C9.40625 3.25 10.75 4.59375 10.75 6.25C10.75 7.90625 9.40625 9.25 7.75 9.25C6.09375 9.25 4.75 7.90625 4.75 6.25C4.75 4.59375 6.09375 3.25 7.75 3.25ZM7.75 7.75C8.5625 7.75 9.25 7.09375 9.25 6.25C9.25 5.4375 8.5625 4.75 7.75 4.75C6.90625 4.75 6.25 5.4375 6.25 6.25C6.25 7.09375 6.90625 7.75 7.75 7.75ZM7.75 0.25C12.0312 0.25 15.5 3.71875 15.5 8C15.5 12.2812 12.0312 15.75 7.75 15.75C3.46875 15.75 0 12.2812 0 8C0 3.71875 3.46875 0.25 7.75 0.25ZM7.75 14.25C9.28125 14.25 10.7188 13.6875 11.8125 12.75C11.3438 12.0312 10.5312 11.5625 9.625 11.5312C8.96875 11.7188 8.34375 11.8125 7.75 11.8125C7.125 11.8125 6.5 11.7188 5.84375 11.5312C4.9375 11.5312 4.125 12.0312 3.65625 12.75C4.75 13.6875 6.1875 14.25 7.75 14.25ZM12.8125 11.625C13.5625 10.625 14 9.375 14 8C14 4.5625 11.1875 1.75 7.75 1.75C4.28125 1.75 1.5 4.5625 1.5 8C1.5 9.375 1.90625 10.625 2.65625 11.625C3.40625 10.6562 4.59375 10 5.9375 10C6.25 10 6.75 10.3125 7.75 10.3125C8.71875 10.3125 9.21875 10 9.53125 10C10.875 10 12.0625 10.6562 12.8125 11.625Z" fill="#6844ED"/>
</svg>
