<svg width="11" height="11" viewBox="0 0 11 11" fill="none" xmlns="http://www.w3.org/2000/svg">
<path d="M2.34375 10.5H0.164062V3.49219H2.34375V10.5ZM1.24219 2.55469C0.5625 2.55469 0 1.96875 0 1.26562C0 0.585938 0.5625 0.0234375 1.24219 0.0234375C1.94531 0.0234375 2.50781 0.585938 2.50781 1.26562C2.50781 1.96875 1.94531 2.55469 1.24219 2.55469ZM10.4766 10.5H8.32031V7.10156C8.32031 6.28125 8.29688 5.25 7.17188 5.25C6.04688 5.25 5.88281 6.11719 5.88281 7.03125V10.5H3.70312V3.49219H5.78906V4.45312H5.8125C6.11719 3.91406 6.82031 3.32812 7.875 3.32812C10.0781 3.32812 10.5 4.78125 10.5 6.65625V10.5H10.4766Z" fill="#696969"/>
</svg>
