<svg width="166" height="40" viewBox="0 0 166 40" fill="none" xmlns="http://www.w3.org/2000/svg">
<path d="M24.7578 38.1714C3.49894 34.1241 6.02653 3.68579 27.6295 3.09287C28.2107 3.05586 29.0898 3.3466 29.2793 2.57144C29.3207 2.41031 29.3032 2.23969 29.2298 2.09036C29.1564 1.94104 29.0321 1.82286 28.8793 1.75716C26.307 0.595244 23.5161 -0.0038333 20.6936 1.84562e-05C-5.83883 1.09754 -5.83193 38.9061 20.6937 40C22.0687 39.9991 23.4401 39.8579 24.7864 39.5785C24.9503 39.5449 25.0972 39.4549 25.2016 39.3242C25.306 39.1935 25.3613 39.0303 25.3579 38.8631C25.3545 38.6958 25.2926 38.535 25.183 38.4087C25.0734 38.2823 24.9229 38.1984 24.7578 38.1714Z" fill="#3468F0"/>
<path d="M37.8937 14.1286C34.7233 5.52721 23.288 3.06358 16.8794 9.62877C14.4816 12.0302 13.1348 15.2851 13.1348 18.6787C13.1348 22.0723 14.4816 25.3272 16.8794 27.7286C17.5026 28.3507 18.187 28.9083 18.9223 29.3929C19.0618 29.4835 19.2286 29.5225 19.3939 29.5033C19.5592 29.4841 19.7125 29.4078 19.8276 29.2877C19.9427 29.1675 20.0123 29.011 20.0243 28.845C20.0364 28.6791 19.9902 28.5141 19.8937 28.3786C18.3143 26.1747 17.6216 23.4572 17.9534 20.7662C18.2851 18.0751 19.617 15.6072 21.6845 13.8529C23.7519 12.0986 26.4036 11.1861 29.1128 11.2967C31.822 11.4074 34.3905 12.5331 36.308 14.4502C36.633 14.8207 37.0644 15.3279 37.5937 14.9929C37.7359 14.9056 37.8434 14.7719 37.8981 14.6143C37.9528 14.4568 37.9512 14.2852 37.8937 14.1286Z" fill="#3468F0"/>
<path d="M28.5862 13.7785C26.525 13.7804 24.5486 14.5995 23.0905 16.0564C21.6323 17.5132 20.8114 19.4888 20.8076 21.55C20.8813 22.2699 20.6868 23.6572 21.6861 23.7143C21.8534 23.7106 22.0141 23.6486 22.1406 23.539C22.2671 23.4295 22.3514 23.2793 22.379 23.1142C23.7952 15.6959 34.4974 16.8654 34.3147 24.4072C34.3109 24.5037 34.3265 24.6 34.3606 24.6903C34.3947 24.7807 34.4466 24.8633 34.5132 24.9333C34.5798 25.0032 34.6598 25.059 34.7484 25.0975C34.837 25.1359 34.9324 25.1562 35.029 25.1571C35.1668 25.1585 35.3019 25.1192 35.4175 25.0443C35.5331 24.9693 35.6241 24.862 35.679 24.7357C36.1337 23.7353 36.3676 22.6488 36.3647 21.55C36.361 19.4888 35.54 17.5132 34.0819 16.0564C32.6237 14.5996 30.6474 13.7804 28.5862 13.7785Z" fill="#3468F0"/>
<path d="M47.578 34V6H57.378L62.218 30.4H62.938L67.778 6H77.578V34H72.458V9.88H71.738L66.938 34H58.218L53.418 9.88H52.698V34H47.578ZM89.3714 34.32C87.8248 34.32 86.4648 33.9733 85.2914 33.28C84.1448 32.56 83.2514 31.5733 82.6114 30.32C81.9714 29.0667 81.6514 27.6267 81.6514 26V14.16H86.6914V25.6C86.6914 27.0933 87.0514 28.2133 87.7714 28.96C88.5181 29.7067 89.5714 30.08 90.9314 30.08C92.4781 30.08 93.6781 29.5733 94.5314 28.56C95.3848 27.52 95.8114 26.08 95.8114 24.24V14.16H100.851V34H95.8914V31.4H95.1714C94.8514 32.0667 94.2514 32.72 93.3714 33.36C92.4914 34 91.1581 34.32 89.3714 34.32ZM105.26 34V14.16H110.22V16.76H110.94C111.26 16.0667 111.86 15.4133 112.74 14.8C113.62 14.16 114.953 13.84 116.74 13.84C118.287 13.84 119.633 14.2 120.78 14.92C121.953 15.6133 122.86 16.5867 123.5 17.84C124.14 19.0667 124.46 20.5067 124.46 22.16V34H119.42V22.56C119.42 21.0667 119.047 19.9467 118.3 19.2C117.58 18.4533 116.54 18.08 115.18 18.08C113.633 18.08 112.433 18.6 111.58 19.64C110.727 20.6533 110.3 22.08 110.3 23.92V34H105.26ZM128.308 28.28C127.482 29.4267 127.055 30.36 127.028 31.08C127.002 31.7733 127.295 32.2933 127.908 32.64C128.522 32.96 129.348 33.1467 130.388 33.2L130.188 34C129.068 33.9467 128.095 33.92 127.268 33.92C126.468 33.8933 125.708 33.88 124.988 33.88C124.375 33.88 123.868 33.8933 123.468 33.92C123.068 33.92 122.655 33.9467 122.228 34L122.388 33.2C122.868 33.0667 123.322 32.8533 123.748 32.56C124.148 32.2667 124.615 31.8267 125.148 31.24C125.655 30.6533 126.242 29.8933 126.908 28.96L143.588 5.48C143.935 5.50667 144.282 5.52 144.628 5.52C145.002 5.52 145.335 5.50667 145.628 5.48L147.228 30.64C147.308 31.6 147.548 32.2667 147.948 32.64C148.375 32.9867 148.788 33.1733 149.188 33.2L149.028 34C148.362 33.9467 147.468 33.92 146.348 33.92C145.255 33.8933 144.215 33.88 143.228 33.88C142.028 33.88 140.895 33.8933 139.828 33.92C138.762 33.92 137.895 33.9467 137.228 34L137.388 33.2C138.668 33.1467 139.575 32.92 140.108 32.52C140.668 32.0933 140.908 31.2 140.828 29.84L139.868 11.44L141.228 10L128.308 28.28ZM132.028 22.48H143.708L143.388 23.28H131.308L132.028 22.48ZM157.921 6.64C157.974 5.49333 158.388 4.61333 159.161 4C159.961 3.38666 160.908 3.08 162.001 3.08C162.988 3.08 163.734 3.32 164.241 3.8C164.774 4.25333 165.014 4.89333 164.961 5.72C164.908 6.76 164.481 7.61333 163.681 8.28C162.881 8.92 161.921 9.24 160.801 9.24C159.868 9.24 159.134 9.01333 158.601 8.56C158.094 8.08 157.868 7.44 157.921 6.64ZM156.401 16.72C156.854 15.3867 156.708 14.72 155.961 14.72C155.481 14.72 155.041 14.96 154.641 15.44C154.241 15.92 153.828 16.7333 153.401 17.88L152.601 19.92H151.841L152.961 16.88C153.334 15.8133 153.801 14.9867 154.361 14.4C154.948 13.8133 155.588 13.4 156.281 13.16C157.001 12.8933 157.748 12.76 158.521 12.76C159.454 12.76 160.188 12.9333 160.721 13.28C161.254 13.6267 161.614 14.08 161.801 14.64C161.988 15.1733 162.054 15.7733 162.001 16.44C161.948 17.08 161.814 17.72 161.601 18.36L157.401 30.6C157.161 31.32 157.094 31.84 157.201 32.16C157.334 32.4533 157.588 32.6 157.961 32.6C158.308 32.6 158.681 32.4 159.081 32C159.508 31.6 159.974 30.7467 160.481 29.44L161.201 27.52H161.961L160.921 30.44C160.548 31.5333 160.068 32.3733 159.481 32.96C158.894 33.5467 158.254 33.96 157.561 34.2C156.894 34.44 156.214 34.56 155.521 34.56C154.374 34.56 153.494 34.3067 152.881 33.8C152.294 33.2933 151.974 32.56 151.921 31.6C151.868 30.64 152.054 29.5067 152.481 28.2L156.401 16.72Z" fill="#030014"/>
</svg>
