<svg width="210" height="40" viewBox="0 0 210 40" fill="none" xmlns="http://www.w3.org/2000/svg">
<g clip-path="url(#clip0_81_462)">
<path d="M27.0226 4.13512C25.9673 3.54934 22.9421 3.91154 19.3087 5.03628C12.9498 9.383 7.58297 15.7868 7.20845 26.0703C7.14027 26.3162 6.51307 26.0368 6.38902 25.9608C4.67185 22.6694 3.99154 19.2037 5.42533 14.204C5.69258 13.7591 4.81885 13.2113 4.66176 13.3678C4.34704 13.683 3.03507 15.0807 2.16371 16.5921C-2.15549 24.0849 0.669074 33.6855 8.22577 37.8871C15.7809 42.0952 25.3213 39.3807 29.528 31.8232C34.3947 23.1003 29.8758 5.72867 27.0228 4.13538L27.0226 4.13512Z" fill="#82B541"/>
<path d="M54.0658 8.32178C45.1077 8.32178 38.6055 14.9816 38.6055 24.1576C38.6055 33.4089 45.0908 39.8701 54.3779 39.8701C59.0689 39.8701 62.7828 38.4033 65.7364 35.3836C66.6185 34.4311 66.7134 33.5131 66.7134 33.1622C66.7134 31.6664 65.601 30.5798 64.0684 30.5798C63.2959 30.5798 62.6497 30.8716 61.9085 31.5569C60.2361 33.1153 58.0336 34.7072 54.3779 34.7072C49.2945 34.7072 45.1603 30.8906 44.8999 25.9893H65.1321C67.3322 25.9893 68.401 24.9607 68.401 22.8455C68.401 22.2227 68.401 21.7733 68.2757 20.8867C67.1858 13.0194 61.8743 8.32283 54.0664 8.32283L54.0658 8.32178ZM54.0658 13.2342C58.9233 13.2342 62.0403 16.3299 62.2325 21.3263H44.9062C45.3611 16.7022 49.2706 13.2342 54.0656 13.2342H54.0658Z" fill="white"/>
<path d="M87.7205 8.32178C83.6511 8.32178 79.622 10.6617 78.0479 13.9117V11.9032C78.0479 8.79176 75.6365 8.63414 75.1536 8.63414C73.7248 8.63414 72.1978 9.49281 72.1978 11.9032V36.1618C72.1978 39.3928 74.7645 39.5561 75.2788 39.5561C75.7931 39.5561 78.361 39.3928 78.361 36.1618V23.1574C78.361 17.4992 81.5673 13.5472 86.1577 13.5472C90.6038 13.5472 92.7659 16.4651 92.7659 22.4687V36.1618C92.7659 39.3928 95.3339 39.5561 95.8482 39.5561C96.3625 39.5561 98.9292 39.3928 98.9292 36.1618V20.5332C98.9292 14.6301 95.9846 8.32361 87.7205 8.32361V8.32178Z" fill="white"/>
<path d="M126.816 8.63477C125.392 8.63477 124.359 9.4655 123.744 11.1L115.311 32.3044L106.943 11.1C106.288 9.44098 105.263 8.63477 103.809 8.63477C102.109 8.63477 100.727 9.96067 100.727 11.5908C100.727 11.9943 100.772 12.5175 101.113 13.3348L110.804 36.2164C111.959 38.9768 113.858 39.5561 115.249 39.5561C116.638 39.5561 118.539 38.9768 119.696 36.2178L129.45 13.2089C129.783 12.4017 129.834 11.8091 129.834 11.5286C129.834 9.87963 128.535 8.63516 126.816 8.63516V8.63477Z" fill="white"/>
<path d="M144.731 8.32189C140.789 8.32189 137.117 9.41975 134.394 11.4109C133.471 12.0481 133.021 12.843 133.021 13.8425C133.021 15.2188 134.072 16.2976 135.416 16.2976C135.997 16.2976 136.648 16.0662 137.245 15.648C139.586 14.0874 141.786 13.3596 144.167 13.3596C148.724 13.3596 151.34 15.6771 151.34 19.7187V20.3884C141.111 20.3995 130.707 21.6349 130.707 30.5341C130.707 36.939 136.18 39.8067 141.604 39.8067C145.924 39.8067 149.374 38.095 151.588 34.8538V36.4124C151.588 38.7333 153.146 39.5563 154.483 39.5563C154.765 39.5563 157.251 39.4679 157.251 36.4124V20.0927C157.251 12.7207 152.569 8.32031 144.73 8.32031L144.731 8.32189ZM150.043 24.9262H151.34V26.3459C151.34 31.539 148.033 34.8941 142.918 34.8941C141.529 34.8941 136.997 34.571 136.997 30.4088C136.997 25.4941 144.442 24.9262 150.043 24.9262Z" fill="white"/>
<path d="M173.304 14.2348C176.001 14.2348 176.137 12.1364 176.137 11.716C176.137 10.4683 175.393 9.1345 173.304 9.1345H167.759V3.52563C167.759 1.02018 166.134 0.131348 164.741 0.131348C164.226 0.131348 161.66 0.29461 161.66 3.52563V30.1603C161.66 36.3069 164.692 39.5558 170.429 39.5558C171.913 39.5558 173.36 39.293 174.306 38.8525C175.39 38.3115 176.012 37.4216 176.012 36.412C176.012 34.9877 174.979 33.9548 173.555 33.9548C173.28 33.9548 172.888 34.023 172.457 34.147C171.929 34.2791 171.571 34.3304 171.18 34.3304C168.846 34.3304 167.759 32.8066 167.759 29.5343V14.2322H173.304V14.2348Z" fill="white"/>
<path d="M193.682 8.32178C184.36 8.32178 177.597 14.9291 177.597 24.0317C177.597 28.4635 179.236 32.5027 182.21 35.4049C185.161 38.2837 189.235 39.8691 193.682 39.8691C202.888 39.8691 209.83 33.0606 209.83 24.032C209.83 14.9293 203.037 8.32204 193.682 8.32204L193.682 8.32178ZM193.682 34.6431C187.289 34.6431 183.947 29.3046 183.947 24.0311C183.947 16.7843 188.993 13.484 193.682 13.484C198.37 13.484 203.417 16.7843 203.417 24.0311C203.417 31.3227 198.37 34.6431 193.682 34.6431Z" fill="white"/>
</g>
<defs>
<clipPath id="clip0_81_462">
<rect width="209.967" height="40" fill="white"/>
</clipPath>
</defs>
</svg>
