<svg width="204" height="40" viewBox="0 0 204 40" fill="none" xmlns="http://www.w3.org/2000/svg">
<g clip-path="url(#clip0_81_449)">
<path d="M23.5932 7.51651L11.7966 15.033L23.5932 22.5495L11.7966 30.066L0 22.5089L11.7966 14.9924L0 7.51651L11.7966 0L23.5932 7.51651ZM11.7356 32.4835L23.5322 24.967L35.3288 32.4835L23.5322 40L11.7356 32.4835ZM23.5932 22.5089L35.3898 14.9924L23.5932 7.51651L35.3288 0L47.1254 7.51651L35.3288 15.033L47.1254 22.5495L35.3288 30.066L23.5932 22.5089Z" fill="#0061FF"/>
<path d="M56.3799 7.51674H65.9189C72.0002 7.51674 77.024 11.0312 77.024 19.0556V20.7417C77.024 28.827 72.3256 32.4634 66.1019 32.4634H56.3799V7.51674ZM61.7087 12.047V27.9129H65.7968C69.2545 27.9129 71.5731 25.6579 71.5731 20.6401V19.3197C71.5731 14.3019 69.1324 12.047 65.6138 12.047H61.7087ZM79.8511 12.2907H84.1223L84.8138 16.9835C85.6273 13.794 87.7019 12.0876 91.4646 12.0876H92.7867V17.471H90.59C86.2578 17.471 85.2002 18.9743 85.2002 23.2405V32.5244H79.9324V12.2907H79.8511ZM93.8443 22.8138V22.245C93.8443 15.4802 98.1765 11.7829 104.075 11.7829C110.095 11.7829 114.305 15.4802 114.305 22.245V22.8138C114.305 29.4568 110.217 33.0322 104.075 33.0322C97.546 32.9713 93.8443 29.4771 93.8443 22.8138ZM108.915 22.7529V22.245C108.915 18.4868 107.024 16.2318 104.014 16.2318C101.065 16.2318 99.1121 18.3039 99.1121 22.245V22.7529C99.1121 26.3893 101.004 28.4614 104.014 28.4614C107.024 28.4004 108.915 26.3893 108.915 22.7529ZM117.071 12.2907H121.465L121.973 16.1099C123.031 13.5503 125.288 11.7829 128.624 11.7829C133.77 11.7829 137.166 15.4802 137.166 22.3263V22.8951C137.166 29.5381 133.404 33.0525 128.624 33.0525C125.431 33.0525 123.234 31.6102 122.156 29.2943V39.5127H117.01L117.071 12.2907ZM131.817 22.7529V22.306C131.817 18.2836 129.743 16.2928 126.976 16.2928C124.027 16.2928 122.075 18.5477 122.075 22.306V22.692C122.075 26.2674 123.966 28.5223 126.915 28.5223C129.946 28.4614 131.817 26.5315 131.817 22.7529ZM144.956 28.7864L144.509 32.4837H139.993V5.52588H145.139V15.8662C146.278 13.2252 148.536 11.7829 151.729 11.7829C156.57 11.8438 160.149 15.1754 160.149 21.8794V22.5091C160.149 29.213 156.753 33.0525 151.607 33.0525C148.21 32.9713 146.014 31.407 144.956 28.7864ZM154.739 22.5091V22.0012C154.739 18.3039 152.726 16.2318 149.899 16.2318C147.01 16.2318 144.997 18.5477 144.997 22.0622V22.5091C144.997 26.2674 146.949 28.4614 149.838 28.4614C152.929 28.4614 154.739 26.5315 154.739 22.5091ZM162.407 22.8138V22.245C162.407 15.4802 166.739 11.7829 172.638 11.7829C178.658 11.7829 182.868 15.4802 182.868 22.245V22.8138C182.868 29.4568 178.719 33.0322 172.638 33.0322C166.109 32.9713 162.407 29.4771 162.407 22.8138ZM177.519 22.7529V22.245C177.519 18.4868 175.627 16.2318 172.617 16.2318C169.668 16.2318 167.715 18.3039 167.715 22.245V22.7529C167.715 26.3893 169.607 28.4614 172.617 28.4614C175.648 28.4004 177.519 26.3893 177.519 22.7529ZM189.763 22.0012L182.665 12.2907H188.746L192.834 18.3649L196.983 12.2907H203.004L195.804 21.9403L203.39 32.4837H197.431L192.793 25.7798L188.278 32.4837H182.054L189.763 22.0012Z" fill="white"/>
</g>
<defs>
<clipPath id="clip0_81_449">
<rect width="203.39" height="40" fill="white"/>
</clipPath>
</defs>
</svg>
