<svg width="128" height="40" viewBox="0 0 128 40" fill="none" xmlns="http://www.w3.org/2000/svg">
<g clip-path="url(#clip0_81_452)">
<path d="M15.9689 14.2727V18.5455H26.2802C26.0064 20.9091 25.1852 22.7273 23.9077 23.9091C22.4476 25.3636 20.0751 27 15.9689 27C9.67256 27 4.74503 21.9091 4.74503 15.6364C4.74503 9.36364 9.58131 4.27273 15.9689 4.27273C19.3451 4.27273 21.9001 5.63636 23.7252 7.36364L26.7364 4.36364C24.1814 1.90909 20.7139 0 15.9689 0C7.30005 0 0 7 0 15.6364C0 24.2727 7.30005 31.2727 15.9689 31.2727C20.6226 31.2727 24.1814 29.7273 26.9189 26.9091C29.7477 24.0909 30.6602 20.0909 30.6602 16.9091C30.6602 15.9091 30.569 15 30.4777 14.2727H15.9689Z" fill="white"/>
<path d="M43.4354 10.7271C37.8691 10.7271 33.2153 14.9998 33.2153 20.818C33.2153 26.6361 37.7779 30.9089 43.4354 30.9089C49.0929 30.9089 53.6555 26.727 53.6555 20.9089C53.6555 14.9998 49.0929 10.7271 43.4354 10.7271ZM43.4354 26.9998C40.3329 26.9998 37.6866 24.4543 37.6866 20.9089C37.6866 17.2725 40.3329 14.818 43.4354 14.818C46.5379 14.818 49.1842 17.2725 49.1842 20.9089C49.1842 24.4543 46.5379 26.9998 43.4354 26.9998Z" fill="white"/>
<path d="M93.3493 12.9998H93.1668C92.1631 11.818 90.2468 10.7271 87.783 10.7271C82.673 10.7271 78.293 15.0907 78.293 20.818C78.293 26.4543 82.673 30.9089 87.783 30.9089C90.2468 30.9089 92.1631 29.818 93.1668 28.6361H93.3493V30.0907C93.3493 33.9089 91.2506 35.9998 87.9655 35.9998C85.228 35.9998 83.5855 34.0907 82.8555 32.3634L79.023 33.9998C80.118 36.6361 83.1292 39.9998 88.0568 39.9998C93.2581 39.9998 97.7293 36.9089 97.7293 29.4543V11.2725H93.5318V12.9998H93.3493ZM88.2393 26.9998C85.1368 26.9998 82.8555 24.3634 82.8555 20.9089C82.8555 17.3634 85.228 14.818 88.2393 14.818C91.2505 14.818 93.6231 17.4543 93.6231 20.9998C93.7143 24.4543 91.3418 26.9998 88.2393 26.9998Z" fill="white"/>
<path d="M66.1566 10.7271C60.5903 10.7271 55.9365 14.9998 55.9365 20.818C55.9365 26.6361 60.4991 30.9089 66.1566 30.9089C71.8141 30.9089 76.3767 26.727 76.3767 20.9089C76.3767 14.9998 71.8141 10.7271 66.1566 10.7271ZM66.1566 26.9998C63.0541 26.9998 60.4078 24.4543 60.4078 20.9089C60.4078 17.2725 63.0541 14.818 66.1566 14.818C69.2591 14.818 71.9054 17.2725 71.9054 20.9089C71.9054 24.4543 69.2591 26.9998 66.1566 26.9998Z" fill="white"/>
<path d="M101.105 0.45459H105.485V31H101.105V0.45459Z" fill="white"/>
<path d="M118.991 26.9998C116.709 26.9998 115.158 25.9998 114.063 23.9089L127.659 18.3634L127.203 17.1816C126.382 14.9089 123.736 10.7271 118.534 10.7271C113.333 10.7271 108.953 14.818 108.953 20.818C108.953 26.4543 113.242 30.9089 118.991 30.9089C123.644 30.9089 126.291 28.0907 127.477 26.4543L124.009 24.1816C122.823 25.9089 121.272 26.9998 118.991 26.9998ZM118.717 14.5452C120.542 14.5452 122.093 15.4543 122.549 16.727L113.424 20.5452C113.333 16.3634 116.436 14.5452 118.717 14.5452Z" fill="white"/>
</g>
<defs>
<clipPath id="clip0_81_452">
<rect width="127.66" height="40" fill="white"/>
</clipPath>
</defs>
</svg>
