<svg width="134" height="40" viewBox="0 0 134 40" fill="none" xmlns="http://www.w3.org/2000/svg">
<path d="M32.3168 17.7641C25.9738 13.993 15.5112 13.6463 9.45602 15.4861C8.48361 15.7813 7.4554 15.2318 7.16076 14.2584C6.86612 13.2845 7.41447 12.2558 8.38751 11.9599C15.3385 9.84741 26.8932 10.2556 34.1954 14.595C35.0702 15.1146 35.3571 16.2454 34.8385 17.1198C34.3197 17.9952 33.1892 18.2838 32.3168 17.7641ZM32.109 23.3496C31.6642 24.0726 30.7201 24.2991 29.9989 23.8554C24.7108 20.6012 16.647 19.6585 10.3907 21.5596C9.57938 21.8051 8.72245 21.3472 8.47609 20.5364C8.23155 19.7242 8.68922 18.8679 9.49907 18.621C16.6461 16.4499 25.5306 17.5014 31.6043 21.2381C32.3254 21.6827 32.5524 22.6284 32.109 23.3496ZM29.7012 28.7137C29.3478 29.2941 28.5926 29.4762 28.015 29.1224C23.394 26.2951 17.5779 25.6564 10.7283 27.2228C10.0681 27.3744 9.41039 26.9601 9.25977 26.2995C9.10861 25.6388 9.52064 24.9803 10.1822 24.8296C17.6779 23.1141 24.1078 23.8524 29.2945 27.0253C29.8728 27.3788 30.0549 28.1351 29.7012 28.7137ZM20.6768 0.300014C9.80931 0.300014 0.999023 9.11958 0.999023 19.9993C0.999023 30.8799 9.80931 39.6992 20.6768 39.6992C31.5449 39.6992 40.3546 30.8799 40.3546 19.9993C40.3546 9.11958 31.5449 0.300014 20.6768 0.300014Z" fill="#17BE74"/>
<path d="M54.5357 18.4857C51.1382 17.6745 50.5331 17.1052 50.5331 15.9093C50.5331 14.779 51.5961 14.0187 53.1766 14.0187C54.7087 14.0187 56.2276 14.5962 57.8205 15.7851C57.8686 15.8211 57.929 15.8355 57.9885 15.826C58.0479 15.8171 58.1003 15.7846 58.1353 15.7352L59.7943 13.3941C59.8624 13.2979 59.8439 13.1648 59.752 13.0912C57.8564 11.5685 55.7219 10.8282 53.2269 10.8282C49.5584 10.8282 46.996 13.0319 46.996 16.1855C46.996 19.5671 49.2064 20.7644 53.0262 21.6886C56.2774 22.4383 56.826 23.0663 56.826 24.1893C56.826 25.4334 55.7165 26.2069 53.9309 26.2069C51.9479 26.2069 50.3301 25.5382 48.5205 23.9693C48.4756 23.9307 48.4141 23.9129 48.3572 23.9161C48.2975 23.9211 48.2428 23.9488 48.2047 23.9947L46.3446 26.2109C46.2666 26.3029 46.2765 26.4402 46.3665 26.5197C48.4721 28.4014 51.0613 29.3955 53.8557 29.3955C57.8087 29.3955 60.3632 27.233 60.3632 23.8862C60.3632 21.0579 58.6751 19.4935 54.5357 18.4857Z" fill="white"/>
<path d="M72.1761 22.2772C72.1761 24.6657 70.7066 26.3322 68.6024 26.3322C66.5221 26.3322 64.9529 24.5899 64.9529 22.2772C64.9529 19.9649 66.5221 18.2223 68.6024 18.2223C70.6728 18.2223 72.1761 19.9272 72.1761 22.2772ZM69.3066 15.1319C67.5931 15.1319 66.1877 15.8075 65.0288 17.1919V15.6336C65.0288 15.5106 64.9292 15.4104 64.8063 15.4104H61.7643C61.6414 15.4104 61.542 15.5106 61.542 15.6336V32.9477C61.542 33.0707 61.6414 33.1709 61.7643 33.1709H64.8063C64.9292 33.1709 65.0288 33.0707 65.0288 32.9477V27.4826C66.188 28.7849 67.5936 29.421 69.3066 29.421C72.4903 29.421 75.7133 26.9674 75.7133 22.2772C75.7133 17.586 72.4903 15.1319 69.3066 15.1319Z" fill="white"/>
<path d="M83.9744 26.3569C81.7935 26.3569 80.1494 24.6027 80.1494 22.2769C80.1494 19.9413 81.7367 18.2464 83.9241 18.2464C86.119 18.2464 87.7742 20.0005 87.7742 22.3279C87.7742 24.6632 86.1761 26.3569 83.9744 26.3569ZM83.9744 15.1315C79.8743 15.1315 76.6621 18.2923 76.6621 22.3279C76.6621 26.3197 79.8522 29.4473 83.9241 29.4473C88.0388 29.4473 91.2608 26.2972 91.2608 22.2769C91.2608 18.2701 88.0609 15.1315 83.9744 15.1315Z" fill="white"/>
<path d="M100.017 15.4097H96.669V11.9832C96.669 11.8602 96.5698 11.7602 96.4469 11.7602H93.4051C93.282 11.7602 93.1819 11.8602 93.1819 11.9832V15.4097H91.7191C91.5965 15.4097 91.4976 15.5099 91.4976 15.6329V18.2504C91.4976 18.3733 91.5965 18.4735 91.7191 18.4735H93.1819V25.2464C93.1819 27.9835 94.5426 29.3711 97.2263 29.3711C98.3175 29.3711 99.2229 29.1455 100.076 28.6612C100.145 28.6224 100.189 28.5476 100.189 28.468V25.9755C100.189 25.8985 100.148 25.8261 100.083 25.7856C100.017 25.744 99.9342 25.7419 99.8663 25.7755C99.2803 26.0707 98.7137 26.2069 98.0805 26.2069C97.1046 26.2069 96.669 25.7635 96.669 24.7691V18.4735H100.017C100.14 18.4735 100.238 18.3733 100.238 18.2504V15.6329C100.238 15.5099 100.14 15.4097 100.017 15.4097Z" fill="white"/>
<path d="M111.68 15.424V15.0031C111.68 13.7651 112.154 13.213 113.218 13.213C113.852 13.213 114.361 13.3391 114.932 13.5296C115.002 13.5517 115.075 13.5407 115.132 13.4985C115.191 13.4564 115.224 13.3889 115.224 13.3174V10.751C115.224 10.6529 115.161 10.5661 115.067 10.5374C114.464 10.3579 113.693 10.1734 112.539 10.1734C109.728 10.1734 108.243 11.7575 108.243 14.7528V15.3974H106.782C106.659 15.3974 106.559 15.4974 106.559 15.6204V18.2512C106.559 18.3742 106.659 18.4743 106.782 18.4743H108.243V28.9212C108.243 29.0443 108.343 29.1443 108.465 29.1443H111.507C111.63 29.1443 111.73 29.0443 111.73 28.9212V18.4743H114.571L118.922 28.9185C118.428 30.0158 117.942 30.2342 117.279 30.2342C116.743 30.2342 116.179 30.0739 115.601 29.7578C115.547 29.7279 115.483 29.723 115.424 29.7411C115.366 29.7618 115.317 29.8049 115.293 29.8616L114.262 32.1262C114.213 32.2331 114.254 32.3589 114.357 32.4143C115.434 32.998 116.406 33.2471 117.606 33.2471C119.853 33.2471 121.094 32.1993 122.189 29.3812L127.467 15.7279C127.493 15.6592 127.485 15.5818 127.443 15.5207C127.402 15.4604 127.334 15.424 127.26 15.424H124.093C123.999 15.424 123.914 15.4842 123.883 15.5733L120.638 24.8507L117.085 15.5672C117.052 15.4809 116.969 15.424 116.877 15.424H111.68Z" fill="white"/>
<path d="M104.918 15.4098H101.876C101.753 15.4098 101.653 15.5101 101.653 15.6331V28.9205C101.653 29.0436 101.753 29.1436 101.876 29.1436H104.918C105.041 29.1436 105.141 29.0436 105.141 28.9205V15.6331C105.141 15.5101 105.041 15.4098 104.918 15.4098Z" fill="white"/>
<path d="M103.413 9.36013C102.208 9.36013 101.229 10.3371 101.229 11.5434C101.229 12.7506 102.208 13.7285 103.413 13.7285C104.617 13.7285 105.594 12.7506 105.594 11.5434C105.594 10.3371 104.617 9.36013 103.413 9.36013Z" fill="white"/>
<path d="M130.189 16.7322H129.631V17.4438H130.189C130.467 17.4438 130.633 17.3075 130.633 17.0878C130.633 16.8563 130.467 16.7322 130.189 16.7322ZM130.55 17.7473L131.156 18.5962H130.645L130.1 17.8176H129.631V18.5962H129.204V16.3462H130.206C130.728 16.3462 131.072 16.6138 131.072 17.0639C131.072 17.4327 130.859 17.6581 130.55 17.7473ZM130.075 15.5977C128.979 15.5977 128.149 16.4702 128.149 17.5391C128.149 18.6072 128.973 19.4682 130.064 19.4682C131.161 19.4682 131.991 18.5962 131.991 17.5269C131.991 16.4587 131.167 15.5977 130.075 15.5977ZM130.064 19.6826C128.86 19.6826 127.923 18.7145 127.923 17.5391C127.923 16.3634 128.872 15.3844 130.075 15.3844C131.279 15.3844 132.216 16.3524 132.216 17.5269C132.216 18.7025 131.268 19.6826 130.064 19.6826Z" fill="white"/>
</svg>
