<svg width="128" height="40" viewBox="0 0 128 40" fill="none" xmlns="http://www.w3.org/2000/svg">
<g clip-path="url(#clip0_81_460)">
<path d="M67.2794 10.05C67.2794 11.4915 66.1229 12.6527 64.6871 12.6527C63.2514 12.6527 62.0949 11.4915 62.0949 10.05C62.0949 8.60861 63.2115 7.44745 64.6871 7.44745C66.1627 7.48749 67.2794 8.64865 67.2794 10.05ZM56.5913 15.2953C56.5913 15.5355 56.5913 15.9359 56.5913 15.9359C56.5913 15.9359 55.3549 14.3343 52.7228 14.3343C48.3757 14.3343 44.9858 17.6577 44.9858 22.2623C44.9858 26.8268 48.3359 30.1902 52.7228 30.1902C55.3948 30.1902 56.5913 28.5485 56.5913 28.5485V29.2292C56.5913 29.5495 56.8306 29.7898 57.1496 29.7898H60.38V14.7347C60.38 14.7347 57.4288 14.7347 57.1496 14.7347C56.8306 14.7347 56.5913 15.015 56.5913 15.2953ZM56.5913 24.9449C55.993 25.8258 54.7966 26.5866 53.3609 26.5866C50.8085 26.5866 48.8543 24.985 48.8543 22.2623C48.8543 19.5395 50.8085 17.9379 53.3609 17.9379C54.7567 17.9379 56.0329 18.7387 56.5913 19.5796V24.9449ZM62.7728 14.7347H66.6014V29.7898H62.7728V14.7347ZM119.962 14.3343C117.33 14.3343 116.094 15.9359 116.094 15.9359V7.48749H112.265V29.7898C112.265 29.7898 115.217 29.7898 115.496 29.7898C115.815 29.7898 116.054 29.5095 116.054 29.2292V28.5485C116.054 28.5485 117.29 30.1902 119.923 30.1902C124.27 30.1902 127.659 26.8268 127.659 22.2623C127.659 17.6977 124.27 14.3343 119.962 14.3343ZM119.324 26.5465C117.849 26.5465 116.692 25.7858 116.094 24.9049V19.5395C116.692 18.7387 117.968 17.8979 119.324 17.8979C121.877 17.8979 123.831 19.4995 123.831 22.2222C123.831 24.9449 121.877 26.5465 119.324 26.5465ZM110.271 20.8609V29.8298H106.443V21.3013C106.443 18.8188 105.645 17.8178 103.492 17.8178C102.335 17.8178 101.139 18.4184 100.381 19.2993V29.7898H96.5522V14.7347H99.5831C99.9022 14.7347 100.141 15.015 100.141 15.2953V15.9359C101.258 14.7748 102.734 14.3343 104.209 14.3343C105.884 14.3343 107.28 14.8148 108.397 15.7758C109.753 16.8969 110.271 18.3383 110.271 20.8609ZM87.2599 14.3343C84.6277 14.3343 83.3914 15.9359 83.3914 15.9359V7.48749H79.5628V29.7898C79.5628 29.7898 82.514 29.7898 82.7932 29.7898C83.1122 29.7898 83.3515 29.5095 83.3515 29.2292V28.5485C83.3515 28.5485 84.5878 30.1902 87.22 30.1902C91.567 30.1902 94.9569 26.8268 94.9569 22.2623C94.9968 17.6977 91.6069 14.3343 87.2599 14.3343ZM86.6218 26.5465C85.1462 26.5465 83.9896 25.7858 83.3914 24.9049V19.5395C83.9896 18.7387 85.2658 17.8979 86.6218 17.8979C89.1742 17.8979 91.1283 19.4995 91.1283 22.2222C91.1283 24.9449 89.1742 26.5465 86.6218 26.5465ZM76.2527 14.3343C77.4092 14.3343 78.0074 14.5345 78.0074 14.5345V18.0981C78.0074 18.0981 74.817 17.017 72.8229 19.2993V29.8298H68.9943V14.7347C68.9943 14.7347 71.9455 14.7347 72.2247 14.7347C72.5437 14.7347 72.783 15.015 72.783 15.2953V15.9359C73.5009 15.0951 75.0562 14.3343 76.2527 14.3343ZM36.4912 28.4284C36.2918 27.9479 36.0924 27.4274 35.8929 26.987C35.5739 26.2663 35.2548 25.5856 34.9757 24.9449L34.9358 24.9049C32.184 18.8989 29.2328 12.8128 26.1221 6.80681L26.0024 6.56657C25.6834 5.96597 25.3643 5.32533 25.0453 4.68468C24.6465 3.96396 24.2476 3.2032 23.6096 2.48248C22.3334 0.880881 20.4988 0 18.5446 0C16.5506 0 14.7559 0.880881 13.4399 2.4024C12.8416 3.12312 12.4029 3.88388 12.0041 4.6046C11.6851 5.24525 11.366 5.88589 11.047 6.48649L10.9273 6.72673C7.85649 12.7327 4.86541 18.8188 2.11361 24.8248L2.07373 24.9049C1.79456 25.5455 1.47551 26.2262 1.15646 26.9469C0.957053 27.3874 0.757647 27.8679 0.558242 28.3884C0.0397866 29.8699 -0.119738 31.2713 0.0796678 32.7127C0.51836 35.7157 2.51242 38.2382 5.26422 39.3594C6.30113 39.7998 7.37792 40 8.49459 40C8.81364 40 9.21245 39.96 9.5315 39.9199C10.8476 39.7598 12.2035 39.3193 13.5196 38.5586C15.1547 37.6376 16.7101 36.3163 18.4649 34.3944C20.2197 36.3163 21.8149 37.6376 23.4101 38.5586C24.7262 39.3193 26.0822 39.7598 27.3983 39.9199C27.7173 39.96 28.1161 40 28.4352 40C29.5518 40 30.6685 39.7998 31.6655 39.3594C34.4572 38.2382 36.4114 35.6757 36.8501 32.7127C37.1691 31.3113 37.0096 29.9099 36.4912 28.4284ZM18.5048 30.5105C16.3512 27.7878 14.9553 25.2252 14.4768 23.0631C14.2774 22.1421 14.2375 21.3413 14.3571 20.6206C14.4369 19.98 14.6762 19.4194 14.9952 18.9389C15.753 17.8579 17.0292 17.1772 18.5048 17.1772C19.9804 17.1772 21.2964 17.8178 22.0143 18.9389C22.3334 19.4194 22.5726 19.98 22.6524 20.6206C22.772 21.3413 22.7322 22.1822 22.5328 23.0631C22.0542 25.1852 20.6583 27.7477 18.5048 30.5105ZM34.4173 32.3924C34.1382 34.4745 32.7423 36.2763 30.7882 37.0771C29.831 37.4775 28.7941 37.5976 27.7572 37.4775C26.7602 37.3574 25.7631 37.037 24.7262 36.4364C23.2905 35.6356 21.8548 34.3944 20.1798 32.5526C22.8119 29.3093 24.4072 26.3463 25.0054 23.7037C25.2846 22.4625 25.3244 21.3413 25.2048 20.3003C25.0453 19.2993 24.6863 18.3784 24.128 17.5776C22.8917 15.7758 20.8179 14.7347 18.5048 14.7347C16.1917 14.7347 14.1178 15.8158 12.8815 17.5776C12.3232 18.3784 11.9643 19.2993 11.8047 20.3003C11.6452 21.3413 11.6851 22.5025 12.0041 23.7037C12.6024 26.3463 14.2375 29.3493 16.8298 32.5926C15.1946 34.4344 13.719 35.6757 12.2833 36.4765C11.2464 37.0771 10.2494 37.3974 9.25233 37.5175C8.17554 37.6376 7.13863 37.4775 6.22137 37.1171C4.26719 36.3163 2.87135 34.5145 2.59218 32.4324C2.47254 31.4314 2.5523 30.4304 2.95111 29.3093C3.07075 28.9089 3.27016 28.5085 3.46957 28.028C3.74873 27.3874 4.06778 26.7067 4.38683 26.026L4.42671 25.9459C7.17851 19.98 10.1297 13.8939 13.2006 7.96797L13.3202 7.72773C13.6393 7.12713 13.9583 6.48649 14.2774 5.88589C14.5964 5.24524 14.9553 4.64464 15.394 4.12412C16.2315 3.16316 17.3482 2.64264 18.5845 2.64264C19.8208 2.64264 20.9375 3.16316 21.775 4.12412C22.2137 4.64464 22.5726 5.24524 22.8917 5.88589C23.2107 6.48649 23.5298 7.12713 23.8488 7.72773L23.9685 7.96797C26.9994 13.9339 29.9507 20.02 32.7024 25.986V26.026C33.0215 26.6667 33.3007 27.3874 33.6197 28.028C33.8191 28.5085 34.0185 28.9089 34.1382 29.3093C34.4572 30.3503 34.5769 31.3514 34.4173 32.3924Z" fill="white"/>
</g>
<defs>
<clipPath id="clip0_81_460">
<rect width="127.66" height="40" fill="white"/>
</clipPath>
</defs>
</svg>
