<svg width="17" height="16" viewBox="0 0 17 16" fill="none" xmlns="http://www.w3.org/2000/svg">
<path d="M13.25 0C15.625 0 17 3.03125 15.0938 4.71875L8.46875 10.6875L7.59375 13.375C7.46875 13.7188 7.21875 13.9688 6.90625 14.0625L1.03125 16L0 14.9375L1.9375 9.09375C2.03125 8.75 2.28125 8.5 2.625 8.40625L5.28125 7.5L11.2812 0.90625C11.8125 0.3125 12.5312 0 13.25 0ZM6.625 13.0625L7.5625 10.3125L5.6875 8.4375L2.9375 9.34375C2.90625 9.375 1.375 13.9062 1.375 13.9062L3.53125 11.75C3.5 11.6875 3.46875 11.5938 3.46875 11.5C3.46875 10.9688 3.9375 10.5 4.46875 10.5C5.03125 10.5 5.46875 10.9688 5.46875 11.5C5.46875 12.0625 5.03125 12.5 4.46875 12.5C4.40625 12.5 4.3125 12.5 4.25 12.4688L2.09375 14.625C2.09375 14.625 6.625 13.0938 6.625 13.0625ZM14.4062 3.96875C14.75 3.65625 14.9688 3.25 14.9688 2.78125C15 1.8125 14.1562 1 13.25 1C12.7812 1.03125 12.3125 1.21875 12.0312 1.5625L6.4375 7.75L8.25 9.5625L14.4062 3.96875Z" fill="#696969"/>
</svg>
