<svg width="80" height="80" viewBox="0 0 80 80" fill="none" xmlns="http://www.w3.org/2000/svg">
<circle cx="40" cy="40" r="40" fill="url(#paint0_linear_222_2291)"/>
<g clip-path="url(#clip0_222_2291)">
<path d="M50.8125 40.5C50.6156 40.5 50.4188 40.4381 50.2519 40.3144C49.7756 39.96 38.625 31.5581 38.625 24.8063C38.625 21.0525 41.6794 18 45.4331 18C47.5725 18 49.545 18.9956 50.8125 20.6325C52.0819 18.9956 54.0544 18 56.1919 18C59.9456 18 63 21.0525 63 24.8063C63 31.5581 51.8494 39.96 51.3731 40.3144C51.2062 40.4381 51.0094 40.5 50.8125 40.5ZM45.4331 19.875C42.7144 19.875 40.5 22.0875 40.5 24.8063C40.5 29.3569 47.4825 35.7712 50.8125 38.3813C54.1425 35.7712 61.125 29.3588 61.125 24.8063C61.125 22.0875 58.9106 19.875 56.1919 19.875C54.2269 19.875 52.4531 21.0356 51.6731 22.8338C51.5231 23.1769 51.1856 23.3981 50.8125 23.3981C50.4394 23.3981 50.1 23.1769 49.9519 22.8338C49.1738 21.0356 47.4 19.875 45.4331 19.875Z" fill="#E6F85E"/>
<path d="M54.5624 49.875H30.1874C29.7411 49.875 29.3567 49.56 29.2686 49.1213L25.5186 30.3713C25.4624 30.0956 25.5355 29.8106 25.7117 29.5931C25.888 29.3756 26.158 29.25 26.4374 29.25H35.8124C36.3299 29.25 36.7499 29.67 36.7499 30.1875C36.7499 30.705 36.3299 31.125 35.8124 31.125H27.5811L30.9561 48H53.7936L55.3311 40.3163C55.4342 39.8063 55.948 39.4744 56.4336 39.5813C56.9417 39.6825 57.2717 40.1756 57.1705 40.6837L55.483 49.1213C55.393 49.56 55.0086 49.875 54.5624 49.875Z" fill="#E6F85E"/>
<path d="M30.1856 49.8751C29.7487 49.8751 29.3588 49.5676 29.2688 49.1213L24.6206 25.8826C24.36 24.572 23.1975 23.6213 21.8625 23.6213L18.9394 23.6251C18.4219 23.6251 18 23.2051 18 22.6876C18 22.1701 18.42 21.7501 18.9356 21.7501L21.8569 21.7463H21.8625C24.09 21.7463 26.0231 23.3307 26.46 25.5151L31.1062 48.7538C31.2094 49.262 30.8794 49.7551 30.3694 49.8563C30.3094 49.8695 30.2475 49.8751 30.1856 49.8751Z" fill="#E6F85E"/>
<path d="M58.3125 53.625H26.4375C24.8869 53.625 23.625 52.3631 23.625 50.8125C23.625 49.2619 24.8869 48 26.4375 48H30.1875C30.705 48 31.125 48.42 31.125 48.9375C31.125 49.455 30.705 49.875 30.1875 49.875H26.4375C25.9219 49.875 25.5 50.295 25.5 50.8125C25.5 51.33 25.9219 51.75 26.4375 51.75H58.3125C58.83 51.75 59.25 52.17 59.25 52.6875C59.25 53.205 58.83 53.625 58.3125 53.625Z" fill="#E6F85E"/>
<path d="M33 63C30.9319 63 29.25 61.3181 29.25 59.25C29.25 57.1819 30.9319 55.5 33 55.5C35.0681 55.5 36.75 57.1819 36.75 59.25C36.75 61.3181 35.0681 63 33 63ZM33 57.375C31.965 57.375 31.125 58.2169 31.125 59.25C31.125 60.2831 31.965 61.125 33 61.125C34.035 61.125 34.875 60.2831 34.875 59.25C34.875 58.2169 34.035 57.375 33 57.375Z" fill="#E6F85E"/>
<path d="M49.875 63C47.8069 63 46.125 61.3181 46.125 59.25C46.125 57.1819 47.8069 55.5 49.875 55.5C51.9431 55.5 53.625 57.1819 53.625 59.25C53.625 61.3181 51.9431 63 49.875 63ZM49.875 57.375C48.84 57.375 48 58.2169 48 59.25C48 60.2831 48.84 61.125 49.875 61.125C50.91 61.125 51.75 60.2831 51.75 59.25C51.75 58.2169 50.91 57.375 49.875 57.375Z" fill="#E6F85E"/>
</g>
<defs>
<linearGradient id="paint0_linear_222_2291" x1="40" y1="19.2" x2="40" y2="80" gradientUnits="userSpaceOnUse">
<stop stop-color="white" stop-opacity="0"/>
<stop offset="1" stop-color="#E6F85E" stop-opacity="0.1"/>
</linearGradient>
<clipPath id="clip0_222_2291">
<rect width="45" height="45" fill="white" transform="translate(18 18)"/>
</clipPath>
</defs>
</svg>
