<svg width="80" height="80" viewBox="0 0 80 80" fill="none" xmlns="http://www.w3.org/2000/svg">
<circle cx="40" cy="40" r="40" fill="url(#paint0_linear_222_2282)"/>
<path d="M28.5387 59.427C28.7101 59.9897 29.0574 60.4826 29.5296 60.8333C30.0018 61.184 30.574 61.3741 31.1622 61.3755C31.4287 61.3757 31.6939 61.3378 31.9497 61.263L49.7787 55.8945L52.9872 55.476C53.344 55.4299 53.6882 55.314 54.0001 55.1347C54.312 54.9555 54.5855 54.7165 54.8049 54.4314C55.0244 54.1464 55.1854 53.8209 55.2789 53.4735C55.3724 53.1261 55.3965 52.7637 55.3497 52.407L53.6577 39.492L58.9857 31.32L60.2997 29.3355L60.9297 28.35C61.3719 27.6733 61.5271 26.8487 61.3613 26.0575C61.1955 25.2663 60.7222 24.5734 60.0455 24.1312C59.3688 23.6891 58.5441 23.5338 57.7529 23.6996C56.9618 23.8655 56.2689 24.3388 55.8267 25.0155L55.1787 26.01L53.8827 27.99L52.4292 30.213L51.3447 21.9555C51.2981 21.5991 51.1818 21.2554 51.0023 20.944C50.8228 20.6326 50.5837 20.3596 50.2987 20.1407C50.0137 19.9217 49.6884 19.761 49.3413 19.6678C48.9941 19.5746 48.6321 19.5507 48.2757 19.5975L29.3397 22.086C28.6508 22.1749 28.0219 22.5234 27.5812 23.0603C27.1405 23.5972 26.9212 24.282 26.9682 24.975L21.5232 26.613C20.8288 26.8221 20.2458 27.2984 19.9024 27.9372C19.559 28.5759 19.4832 29.3249 19.6917 30.0195L28.5387 59.427ZM55.9392 27.3105L57.3612 28.2375L58.7787 29.1645L58.2207 30.0195L55.3812 28.1655L55.9392 27.3105ZM56.9562 25.749C57.2027 25.3719 57.5888 25.1081 58.0298 25.0157C58.4707 24.9232 58.9303 25.0098 59.3075 25.2562C59.6846 25.5027 59.9484 25.8889 60.0408 26.3298C60.1332 26.7708 60.0467 27.2304 59.8002 27.6075L59.5212 28.035L56.6997 26.1765L56.9562 25.749ZM54.6432 29.295L56.0652 30.222L57.4827 31.149L48.8202 44.415L47.3982 43.488L45.9807 42.561L54.6432 29.295ZM44.2932 47.4345L44.5632 46.5705C45.0158 46.6875 45.4174 46.95 45.7062 47.3175L45.0222 47.9115C44.9484 47.9785 44.8545 48.0192 44.7551 48.0271C44.6558 48.035 44.5566 48.0096 44.4732 47.955C44.3898 47.9005 44.3268 47.8197 44.2943 47.7255C44.2617 47.6313 44.2613 47.5289 44.2932 47.4345ZM46.7232 46.431C46.2701 45.8721 45.6532 45.4692 44.9592 45.279L45.4092 43.8075L47.8797 45.423L46.7232 46.431ZM28.5927 23.9535C28.7041 23.8087 28.8429 23.6873 29.0012 23.5962C29.1594 23.5051 29.3341 23.4461 29.5152 23.4225L48.4512 20.9385C48.5126 20.934 48.5743 20.934 48.6357 20.9385C48.9677 20.9452 49.2862 21.0705 49.5338 21.2917C49.7814 21.5129 49.9417 21.8154 49.9857 22.1445L51.2997 31.95L47.8527 37.2195L41.0757 38.1195C40.8967 38.1308 40.7295 38.2128 40.6109 38.3474C40.4924 38.482 40.4321 38.6582 40.4435 38.8372C40.4548 39.0163 40.5368 39.1834 40.6714 39.302C40.806 39.4206 40.9822 39.4808 41.1612 39.4695H41.2512L46.8807 38.7L44.4822 42.3765C44.4814 42.3915 44.4814 42.4065 44.4822 42.4215C44.465 42.4497 44.4514 42.4799 44.4417 42.5115L44.0232 43.8615L34.4292 45.153C34.3406 45.1589 34.254 45.1822 34.1743 45.2216C34.0947 45.261 34.0236 45.3157 33.9651 45.3825C33.9066 45.4494 33.8618 45.5271 33.8334 45.6113C33.8049 45.6954 33.7933 45.7843 33.7992 45.873C33.8051 45.9616 33.8284 46.0482 33.8678 46.1279C33.9072 46.2075 33.9619 46.2786 34.0287 46.3371C34.0956 46.3956 34.1733 46.4404 34.2575 46.4688C34.3416 46.4973 34.4306 46.5089 34.5192 46.503H34.6047L43.5462 45.333L43.0152 47.052C42.8996 47.4253 42.9086 47.8262 43.0409 48.1939C43.1733 48.5617 43.4217 48.8764 43.7487 49.0905C44.0413 49.2833 44.3838 49.3865 44.7342 49.3875C45.1686 49.3847 45.5874 49.2249 45.9132 48.9375L49.4592 45.8685L49.4952 45.828C49.5227 45.8026 49.5469 45.7739 49.5672 45.7425L52.5012 41.2425L53.9997 52.5825C54.0239 52.7632 54.0121 52.9468 53.965 53.1229C53.9179 53.299 53.8364 53.464 53.7252 53.6085C53.6176 53.7515 53.4826 53.8718 53.3281 53.9621C53.1736 54.0525 53.0026 54.1113 52.8252 54.135L33.8712 56.6235C33.6907 56.6469 33.5073 56.6344 33.3316 56.5869C33.1558 56.5394 32.9912 56.4577 32.847 56.3466C32.7028 56.2354 32.582 56.097 32.4913 55.9391C32.4007 55.7812 32.342 55.607 32.3187 55.4265L28.3182 24.9795C28.2704 24.6146 28.3691 24.2457 28.5927 23.9535ZM21.9147 27.9L27.1347 26.3295L30.9777 55.602C31.0646 56.2579 31.3858 56.8601 31.8821 57.2977C32.3784 57.7352 33.0161 57.9784 33.6777 57.9825C33.7982 57.9824 33.9186 57.9734 34.0377 57.9555L41.4537 56.9835L31.5537 59.9625C31.2034 60.0676 30.8258 60.0295 30.5036 59.8565C30.1813 59.6836 29.9408 59.39 29.8347 59.04L20.9832 29.6325C20.9306 29.4576 20.9129 29.274 20.9312 29.0922C20.9496 28.9105 21.0035 28.7341 21.09 28.5732C21.1765 28.4123 21.2939 28.2701 21.4354 28.1546C21.5769 28.039 21.7398 27.9525 21.9147 27.9ZM35.5227 27.18C35.4997 27.0028 35.5479 26.8237 35.6567 26.682C35.7655 26.5403 35.9261 26.4475 36.1032 26.424L46.9032 25.002C46.9919 24.9905 47.0819 24.9965 47.1682 25.0198C47.2545 25.0431 47.3354 25.0831 47.4062 25.1376C47.477 25.1922 47.5364 25.2601 47.581 25.3376C47.6256 25.4151 47.6544 25.5006 47.666 25.5892C47.6775 25.6779 47.6714 25.7679 47.6482 25.8542C47.6249 25.9405 47.5848 26.0214 47.5303 26.0922C47.4758 26.1631 47.4078 26.2225 47.3303 26.267C47.2529 26.3116 47.1674 26.3405 47.0787 26.352L36.2787 27.7695H36.1932C36.0291 27.7688 35.8708 27.7087 35.7476 27.6003C35.6243 27.492 35.5445 27.3427 35.5227 27.18ZM32.2557 33.777C32.2444 33.6882 32.2509 33.5981 32.2747 33.5119C32.2985 33.4257 32.3393 33.3451 32.3945 33.2747C32.4498 33.2044 32.5185 33.1457 32.5967 33.1022C32.6748 33.0586 32.7608 33.031 32.8497 33.021L47.6997 31.05C47.8787 31.0267 48.0597 31.0755 48.2027 31.1856C48.3458 31.2958 48.4392 31.4582 48.4625 31.6372C48.4857 31.8163 48.4369 31.9972 48.3268 32.1402C48.2167 32.2833 48.0542 32.3767 47.8752 32.4L33.0117 34.362H32.9262C32.7628 34.3614 32.605 34.302 32.4819 34.1945C32.3587 34.0871 32.2784 33.9388 32.2557 33.777ZM37.3002 39.285C37.3129 39.3734 37.3079 39.4635 37.2855 39.5499C37.2631 39.6364 37.2237 39.7176 37.1698 39.7887C37.1158 39.8599 37.0482 39.9196 36.9709 39.9645C36.8937 40.0093 36.8083 40.0384 36.7197 40.05L33.8082 40.4325H33.7227C33.5437 40.4444 33.3673 40.3848 33.2322 40.2666C33.0972 40.1485 33.0147 39.9815 33.0027 39.8025C32.9908 39.6235 33.0505 39.447 33.1686 39.312C33.2867 39.177 33.4537 39.0944 33.6327 39.0825L36.5442 38.7C36.6323 38.6886 36.7217 38.6948 36.8074 38.718C36.8931 38.7413 36.9734 38.7813 37.0436 38.8356C37.1138 38.89 37.1727 38.9576 37.2167 39.0347C37.2607 39.1118 37.2891 39.1969 37.3002 39.285ZM34.6497 51.975C34.6267 51.7978 34.6749 51.6187 34.7837 51.477C34.8925 51.3353 35.0531 51.2425 35.2302 51.219L40.4097 50.5395C40.4984 50.5277 40.5885 50.5334 40.6749 50.5564C40.7613 50.5794 40.8423 50.6192 40.9134 50.6736C40.9844 50.7279 41.0441 50.7957 41.0889 50.873C41.1337 50.9504 41.1629 51.0359 41.1747 51.1245C41.1865 51.2131 41.1808 51.3032 41.1578 51.3897C41.1348 51.4761 41.095 51.5571 41.0407 51.6282C40.9863 51.6992 40.9185 51.7588 40.8412 51.8037C40.7638 51.8485 40.6784 51.8777 40.5897 51.8895L35.4012 52.5555H35.3157C35.1535 52.5549 34.9969 52.4959 34.8746 52.3893C34.7522 52.2827 34.6724 52.1356 34.6497 51.975Z" fill="#E6F85E"/>
<defs>
<linearGradient id="paint0_linear_222_2282" x1="40" y1="19.2" x2="40" y2="80" gradientUnits="userSpaceOnUse">
<stop stop-color="white" stop-opacity="0"/>
<stop offset="1" stop-color="#E6F85E" stop-opacity="0.1"/>
</linearGradient>
</defs>
</svg>
