<svg width="80" height="80" viewBox="0 0 80 80" fill="none" xmlns="http://www.w3.org/2000/svg">
<circle cx="40" cy="40" r="40" fill="url(#paint0_linear_222_2327)"/>
<g clip-path="url(#clip0_222_2327)">
<path d="M22.3827 32.9219L22.3763 32.9155C22.033 32.5724 21.4767 32.5724 21.1334 32.9155C20.7902 33.2588 20.7902 33.8153 21.1334 34.1585L21.1398 34.1648C21.3115 34.3364 21.5364 34.4222 21.7613 34.4222C21.9862 34.4222 22.2111 34.3364 22.3827 34.1648C22.7259 33.8217 22.7259 33.2652 22.3827 32.9219Z" fill="#E6F85E"/>
<path d="M48.933 20.6253C48.5897 20.2821 48.0333 20.2821 47.69 20.6253C47.3468 20.9685 47.3468 21.525 47.69 21.8682L47.6953 21.8734C47.8662 22.0443 48.0895 22.1295 48.3129 22.1295C48.5381 22.1295 48.7633 22.043 48.9356 21.8708C49.2787 21.5275 49.2762 20.9684 48.933 20.6253Z" fill="#E6F85E"/>
<path d="M62.36 50.7128C62.1802 50.2619 61.6691 50.042 61.2181 50.222C60.7672 50.4019 60.5475 50.913 60.7273 51.3638C61.5612 53.4546 61.3625 55.7704 60.2663 57.6562C59.8172 56.4 58.774 55.4035 57.4291 55.0486L57.1934 54.9864C57.5261 54.4329 57.7179 53.7855 57.7179 53.094V52.3619C57.7179 50.3299 56.0647 48.6768 54.0327 48.6768C52.0007 48.6768 50.3476 50.3299 50.3476 52.3619V53.094C50.3476 53.7855 50.5394 54.4328 50.872 54.9863L50.6363 55.0485C49.2921 55.4033 48.249 56.3991 47.7996 57.6546C46.2007 54.8976 46.5791 51.2997 48.9368 48.942C50.964 46.9146 53.9991 46.281 56.6691 47.3286C57.121 47.506 57.6309 47.2832 57.8081 46.8313C57.9854 46.3795 57.7627 45.8695 57.3108 45.6922C53.9907 44.3898 50.2155 45.1774 47.6937 47.6991C47.274 48.1188 46.9011 48.573 46.5774 49.055L38.5584 44.7672C39.7303 42.0543 39.7303 38.9524 38.5584 36.2395L46.5805 31.95C46.9028 32.4319 47.2736 32.8876 47.6938 33.3076C49.387 35.0008 51.6382 35.9332 54.0326 35.9332C56.4271 35.9332 58.6782 35.0008 60.3714 33.3076C63.8667 29.8124 63.8667 24.1252 60.3714 20.63C57.8342 18.0928 54.0407 17.3122 50.7078 18.6418C50.2569 18.8216 50.0371 19.3328 50.217 19.7836C50.3967 20.2345 50.9081 20.4547 51.3588 20.2744C54.0391 19.2054 57.0888 19.8331 59.1289 21.8729C61.4866 24.2306 61.865 27.8285 60.266 30.5855C59.8165 29.3301 58.7736 28.3341 57.4292 27.9794L57.1936 27.9172C57.5263 27.3637 57.718 26.7164 57.718 26.0248V25.2927C57.718 23.2607 56.0649 21.6076 54.0329 21.6076C52.0009 21.6076 50.3478 23.2607 50.3478 25.2927V26.0248C50.3478 26.7164 50.5395 27.3636 50.8722 27.9171L50.6365 27.9793C49.2921 28.3341 48.2489 29.3301 47.7996 30.5859C46.7119 28.7121 46.508 26.4115 47.3235 24.3322C47.5008 23.8804 47.2781 23.3704 46.8263 23.1932C46.3744 23.0157 45.8645 23.2386 45.6872 23.6905C44.8231 25.8934 44.8798 28.2958 45.7517 30.4001L37.7303 34.6892C37.3259 34.0629 36.8504 33.4695 36.3025 32.9215C34.6387 31.2577 32.5306 30.2074 30.206 29.8838C27.9579 29.5707 25.625 29.9887 23.637 31.0599C23.2097 31.2902 23.0499 31.8233 23.2801 32.2504C23.5104 32.6778 24.0437 32.8376 24.4706 32.6074C27.9265 30.7452 32.2809 31.3855 35.0594 34.1643C37.9418 37.0467 38.4467 41.4194 36.5754 44.8244C36.0159 43.2796 34.7292 42.0553 33.0726 41.618L32.41 41.4432C32.9387 40.702 33.2511 39.7965 33.2511 38.8188V37.8662C33.2511 35.3681 31.2188 33.3358 28.7207 33.3358C26.2226 33.3358 24.1903 35.3681 24.1903 37.8662V38.8188C24.1903 39.7966 24.5026 40.702 25.0314 41.4432L24.3688 41.6181C22.7147 42.0547 21.4294 43.2758 20.8686 44.8172C19.4426 42.2004 19.3703 38.9526 20.8249 36.253C21.0551 35.8257 20.8954 35.2926 20.4681 35.0625C20.0405 34.8321 19.5077 34.9919 19.2775 35.4192C18.2062 37.4074 17.7885 39.7403 18.1011 41.9883C18.4247 44.3129 19.475 46.4211 21.1388 48.0849C23.2291 50.1752 25.9749 51.2204 28.7206 51.2204C31.4664 51.2204 34.2121 50.1752 36.3025 48.0849C36.8505 47.5369 37.326 46.9435 37.7302 46.3173L45.7469 50.6038C45.3017 51.678 45.0684 52.8399 45.0684 54.0378C45.0684 56.4323 46.0008 58.6834 47.694 60.3766C49.442 62.1244 51.7375 62.9981 54.033 62.9981C56.3286 62.9981 58.6243 62.1243 60.3719 60.3767C62.909 57.8396 63.6895 54.0462 62.36 50.7128ZM52.1056 25.293C52.1056 24.2301 52.9702 23.3655 54.033 23.3655C55.0958 23.3655 55.9604 24.2302 55.9604 25.293V26.0251C55.9604 27.0879 55.0958 27.9524 54.033 27.9524C52.9702 27.9524 52.1056 27.0878 52.1056 26.0251V25.293ZM49.3159 32.1584V31.9755C49.3159 30.8983 50.0434 29.9541 51.085 29.6791L52.406 29.3305C52.8969 29.5731 53.4491 29.7102 54.0328 29.7102C54.6166 29.7102 55.1687 29.5731 55.6596 29.3306L56.9806 29.6792C58.0222 29.9541 58.7496 30.8983 58.7496 31.9756V32.41C58.7496 32.4117 58.7499 32.4134 58.7499 32.4151C57.4401 33.553 55.7847 34.1756 54.0327 34.1756C52.2669 34.1756 50.599 33.5431 49.2844 32.3881C49.3044 32.3148 49.3159 32.2381 49.3159 32.1584ZM25.9481 37.8666C25.9481 36.3378 27.1918 35.094 28.7208 35.094C30.2497 35.094 31.4935 36.3377 31.4935 37.8666V38.8193C31.4935 40.3481 30.2497 41.592 28.7208 41.592C27.1919 41.592 25.9481 40.3483 25.9481 38.8193V37.8666ZM35.1231 46.7769C35.1018 46.7986 35.081 46.8206 35.0594 46.8421C31.5643 50.3374 25.877 50.3374 22.3818 46.8422C22.36 46.8204 22.3396 46.7978 22.3181 46.7759V46.5622C22.3181 45.0405 23.3458 43.7063 24.8173 43.318L26.634 42.8385C27.259 43.1643 27.9684 43.3496 28.7206 43.3496C29.4729 43.3496 30.1822 43.1643 30.8071 42.8385L32.6239 43.3179C34.0953 43.7062 35.1231 45.0403 35.1231 46.5621V46.7769ZM52.1056 52.3621C52.1056 51.2992 52.9702 50.4346 54.033 50.4346C55.0958 50.4346 55.9604 51.2993 55.9604 52.3621V53.0942C55.9604 54.157 55.0958 55.0216 54.033 55.0216C52.9702 55.0216 52.1056 54.157 52.1056 53.0942V52.3621ZM49.2846 59.4571C49.3044 59.3838 49.3159 59.3071 49.3159 59.2275V59.0447C49.3159 57.9675 50.0434 57.0231 51.085 56.7482L52.4059 56.3996C52.8969 56.6422 53.4491 56.7793 54.0328 56.7793C54.6165 56.7793 55.1687 56.6422 55.6597 56.3996L56.9806 56.7482C58.0222 57.0231 58.7496 57.9674 58.7496 59.0447V59.479C58.7496 59.4806 58.7499 59.4821 58.7499 59.4837C56.0409 61.8336 51.9835 61.8249 49.2846 59.4571Z" fill="#E6F85E"/>
<path d="M60.3763 47.6944C60.0331 47.3512 59.4767 47.3512 59.1334 47.6944L59.1282 47.6996C58.785 48.0428 58.7876 48.5967 59.1308 48.9398C59.3017 49.1108 59.5262 49.196 59.751 49.196C59.9774 49.196 60.2041 49.1096 60.3764 48.9373C60.7195 48.5942 60.7195 48.0377 60.3763 47.6944Z" fill="#E6F85E"/>
</g>
<defs>
<linearGradient id="paint0_linear_222_2327" x1="40" y1="19.2" x2="40" y2="80" gradientUnits="userSpaceOnUse">
<stop stop-color="white" stop-opacity="0"/>
<stop offset="1" stop-color="#E6F85E" stop-opacity="0.1"/>
</linearGradient>
<clipPath id="clip0_222_2327">
<rect width="45" height="45" fill="white" transform="translate(18 18)"/>
</clipPath>
</defs>
</svg>
