<svg width="80" height="80" viewBox="0 0 80 80" fill="none" xmlns="http://www.w3.org/2000/svg">
<circle cx="40" cy="40" r="40" fill="url(#paint0_linear_222_2315)"/>
<path d="M47.0126 32.3109C42.6363 25.8725 36.7912 22.4505 33.7302 24.5472C33.3932 24.7846 33.1003 25.0791 32.8648 25.4175C32.8648 25.4423 25.7786 39.7829 25.7786 39.7829L21.8225 42.4631C21.2152 42.8754 20.6951 43.4033 20.2918 44.0166C19.8886 44.6299 19.6101 45.3167 19.4724 46.0377C19.3346 46.7586 19.3402 47.4997 19.4889 48.2185C19.6376 48.9373 19.9265 49.6197 20.339 50.2269L20.517 50.489C21.3509 51.7036 22.63 52.5406 24.0769 52.8183C25.5238 53.096 27.0218 52.7921 28.2461 51.9725L34.6005 61.3335C35.5352 62.4857 37.3302 63.6329 39.5456 62.2829C39.9381 62.0284 40.2729 61.6945 40.5284 61.3027C40.7839 60.9109 40.9545 60.47 41.0291 60.0082C41.1186 59.5489 41.1162 59.0764 41.022 58.6181C40.9278 58.1597 40.7436 57.7246 40.4802 57.3379L34.8824 49.0796C34.8824 49.0796 48.1154 48.0263 48.1648 48.0066C48.578 47.9201 48.9697 47.752 49.317 47.512C50.8896 46.4439 51.4533 44.2038 50.9093 41.2022C50.4198 38.4379 49.0302 35.3077 47.0126 32.3109ZM21.956 49.5148L21.778 49.2527C21.4934 48.8337 21.2942 48.3627 21.1919 47.8666C21.0895 47.3705 21.086 46.8591 21.1815 46.3616C21.2771 45.8642 21.4698 45.3905 21.7486 44.9676C22.0275 44.5447 22.387 44.181 22.8066 43.8972L26.2236 41.573L30.7335 48.2142L27.3165 50.5384C26.8974 50.8234 26.4262 51.023 25.9299 51.1258C25.4336 51.2286 24.9219 51.2326 24.4241 51.1375C23.9263 51.0424 23.4521 50.8502 23.0286 50.5718C22.6051 50.2933 22.2406 49.9342 21.956 49.5148ZM39.056 58.312C39.3263 58.7142 39.426 59.2071 39.3333 59.6827C39.2406 60.1583 38.9631 60.5777 38.5615 60.8489C38.1586 61.1194 37.6649 61.2192 37.1885 61.1266C36.7121 61.0339 36.2919 60.7562 36.0198 60.3544L29.6852 51.023L32.2319 49.2923L32.9044 49.2379L39.056 58.312ZM32.3703 47.5417L27.4549 40.3022L32.1429 30.7434C32.5978 33.4285 33.928 36.6181 36.0544 39.7483C38.1808 42.8785 40.6533 45.2917 42.9775 46.706L32.3703 47.5417ZM46.9582 46.3895C44.5945 46.2362 40.7472 43.5708 37.4885 38.7692C34.2297 33.9675 33.1714 29.423 33.8983 27.1631C34.0296 26.739 34.2916 26.3671 34.6468 26.1007C35.002 25.8342 35.4324 25.6869 35.8764 25.6796C38.2203 25.6796 42.211 28.3598 45.5637 33.3C47.4527 36.0791 48.8275 38.9868 49.2033 41.5285C49.9401 46.3895 46.9582 46.3895 46.9582 46.3895Z" fill="#E6F85E"/>
<path d="M40.8309 32.494C40.2252 32.3751 39.6018 32.3781 38.9973 32.5029C38.3927 32.6277 37.8191 32.8718 37.31 33.2209C37.2162 33.2859 37.1361 33.3687 37.0742 33.4646C37.0124 33.5605 36.97 33.6676 36.9496 33.7799C36.9292 33.8922 36.931 34.0074 36.9551 34.1189C36.9792 34.2304 37.025 34.3362 37.09 34.43C37.1549 34.5238 37.2377 34.604 37.3336 34.6658C37.4295 34.7276 37.5367 34.77 37.6489 34.7904C37.7612 34.8109 37.8764 34.809 37.9879 34.7849C38.0995 34.7608 38.2052 34.715 38.299 34.6501C38.6215 34.4312 38.9838 34.278 39.3655 34.1992C39.7471 34.1204 40.1405 34.1175 40.5232 34.1908C40.906 34.264 41.2705 34.4119 41.5961 34.6261C41.9217 34.8402 42.2019 35.1164 42.4207 35.4388C42.6396 35.7612 42.7928 36.1236 42.8716 36.5052C42.9504 36.8868 42.9532 37.2803 42.88 37.663C42.8068 38.0457 42.6589 38.4103 42.4447 38.7359C42.2306 39.0614 41.9544 39.3416 41.632 39.5605C41.48 39.6655 41.3655 39.8164 41.3054 39.9911C41.2453 40.1658 41.2427 40.3551 41.298 40.5314C41.3533 40.7077 41.4635 40.8617 41.6126 40.9709C41.7617 41.08 41.9418 41.1386 42.1265 41.138C42.3028 41.1413 42.4757 41.0894 42.621 40.9896C43.3902 40.4686 43.9874 39.731 44.337 38.8703C44.6866 38.0095 44.7728 37.0644 44.5848 36.1546C44.3968 35.2449 43.943 34.4113 43.2809 33.7597C42.6188 33.108 41.7782 32.6675 40.8655 32.494H40.8309Z" fill="#E6F85E"/>
<path d="M48.0807 26.2928H48.1647C48.3788 26.2927 48.5852 26.2133 48.7441 26.07C48.903 25.9266 49.0032 25.7294 49.0252 25.5165L49.6928 19.0286C49.708 18.9138 49.7 18.7972 49.6693 18.6856C49.6387 18.574 49.5859 18.4697 49.5142 18.3789C49.4425 18.288 49.3534 18.2125 49.252 18.1567C49.1506 18.1009 49.039 18.0661 48.9239 18.0542C48.8088 18.0422 48.6925 18.0535 48.5818 18.0874C48.4711 18.1212 48.3684 18.1769 48.2796 18.2512C48.1909 18.3254 48.1179 18.4167 48.065 18.5197C48.0122 18.6226 47.9805 18.7351 47.9719 18.8505L47.3092 25.3434C47.2857 25.5716 47.3538 25.7998 47.4984 25.9778C47.6431 26.1558 47.8525 26.2691 48.0807 26.2928Z" fill="#E6F85E"/>
<path d="M59.2666 24.9576C59.1396 24.766 58.9419 24.6325 58.7168 24.5862C58.4917 24.5399 58.2574 24.5845 58.065 24.7103L52.037 28.6664C51.8805 28.7697 51.7617 28.9211 51.6987 29.0978C51.6357 29.2745 51.6318 29.4668 51.6876 29.6459C51.7434 29.825 51.8559 29.9811 52.0081 30.0907C52.1603 30.2004 52.344 30.2576 52.5315 30.2537C52.7064 30.2578 52.8786 30.2095 53.026 30.1153L59.054 26.1592C59.241 26.0276 59.3684 25.8274 59.4082 25.6023C59.448 25.3771 59.3971 25.1453 59.2666 24.9576Z" fill="#E6F85E"/>
<path d="M61.1112 35.5203L54.0991 34.2593C53.8729 34.2186 53.6397 34.2695 53.451 34.4007C53.2623 34.5319 53.1334 34.7328 53.0928 34.959C53.0521 35.1852 53.103 35.4184 53.2342 35.6071C53.3654 35.7958 53.5663 35.9247 53.7925 35.9653L60.7996 37.2263H60.9529C61.1734 37.2328 61.3881 37.1548 61.553 37.0082C61.7179 36.8617 61.8206 36.6578 61.8402 36.4381C61.8598 36.2184 61.7947 35.9995 61.6583 35.8261C61.5219 35.6528 61.3244 35.5381 61.1062 35.5054L61.1112 35.5203Z" fill="#E6F85E"/>
<defs>
<linearGradient id="paint0_linear_222_2315" x1="40" y1="19.2" x2="40" y2="80" gradientUnits="userSpaceOnUse">
<stop stop-color="white" stop-opacity="0"/>
<stop offset="1" stop-color="#E6F85E" stop-opacity="0.1"/>
</linearGradient>
</defs>
</svg>
