<svg width="80" height="80" viewBox="0 0 80 80" fill="none" xmlns="http://www.w3.org/2000/svg">
<circle cx="40" cy="40" r="40" fill="url(#paint0_linear_222_2339)"/>
<g clip-path="url(#clip0_222_2339)">
<path d="M58.0909 18C55.3835 18 53.1818 20.2017 53.1818 22.9091C53.1818 23.7559 53.397 24.5528 53.7758 25.2491L45.7339 33.291C44.6253 32.4278 43.2376 31.9091 41.7273 31.9091C40.2169 31.9091 38.8293 32.4278 37.7198 33.2902L31.4452 27.0155C31.7332 26.5287 31.9091 25.9691 31.9091 25.3636C31.9091 23.5587 30.4413 22.0909 28.6364 22.0909C26.8315 22.0909 25.3636 23.5587 25.3636 25.3636C25.3636 27.1685 26.8315 28.6364 28.6364 28.6364C29.2418 28.6364 29.8015 28.4605 30.2883 28.1725L36.5629 34.4471C35.7005 35.5565 35.1818 36.9442 35.1818 38.4545C35.1818 39.9649 35.7005 41.3525 36.5629 42.4612L26.2015 52.8235C25.3293 52.0323 24.1765 51.5455 22.9091 51.5455C20.2017 51.5455 18 53.7472 18 56.4545C18 59.1619 20.2017 61.3636 22.9091 61.3636C25.6165 61.3636 27.8182 59.1619 27.8182 56.4545C27.8182 55.6077 27.603 54.8108 27.2242 54.1145L37.7206 43.6181C38.6255 44.3217 39.717 44.793 40.9099 44.9427V53.2555C38.592 53.6465 36.819 55.6625 36.819 58.0909C36.819 60.7983 39.0207 63 41.7281 63C44.4355 63 46.6372 60.7983 46.6372 58.0909C46.6372 55.6634 44.8642 53.6474 42.5463 53.2555V44.9427C43.7392 44.793 44.8306 44.3217 45.7355 43.6181L52.0102 49.8927C51.7214 50.3804 51.5455 50.94 51.5455 51.5455C51.5455 53.3504 53.0133 54.8182 54.8182 54.8182C56.6231 54.8182 58.0909 53.3504 58.0909 51.5455C58.0909 49.7405 56.6231 48.2727 54.8182 48.2727C54.2127 48.2727 53.6531 48.4486 53.1663 48.7366L46.8916 42.462C47.754 41.3525 48.2727 39.9649 48.2727 38.4545C48.2727 36.9442 47.754 35.5565 46.8916 34.4479L54.7994 26.5402C55.6707 27.3314 56.8235 27.8182 58.0909 27.8182C60.7983 27.8182 63 25.6165 63 22.9091C63 20.2017 60.7983 18 58.0909 18ZM27 25.3636C27 24.4612 27.7339 23.7273 28.6364 23.7273C29.5388 23.7273 30.2727 24.4612 30.2727 25.3636C30.2727 26.2661 29.5388 27 28.6364 27C27.7339 27 27 26.2661 27 25.3636ZM22.9091 59.7273C21.1042 59.7273 19.6364 58.2595 19.6364 56.4545C19.6364 54.6496 21.1042 53.1818 22.9091 53.1818C24.714 53.1818 26.1818 54.6496 26.1818 56.4545C26.1818 58.2595 24.714 59.7273 22.9091 59.7273ZM45 58.0909C45 59.8958 43.5322 61.3636 41.7273 61.3636C39.9224 61.3636 38.4545 59.8958 38.4545 58.0909C38.4545 56.286 39.9224 54.8182 41.7273 54.8182C43.5322 54.8182 45 56.286 45 58.0909ZM41.7273 43.3636C39.0199 43.3636 36.8182 41.1619 36.8182 38.4545C36.8182 35.7472 39.0199 33.5455 41.7273 33.5455C44.4346 33.5455 46.6364 35.7472 46.6364 38.4545C46.6364 41.1619 44.4346 43.3636 41.7273 43.3636ZM56.4545 51.5455C56.4545 52.4479 55.7206 53.1818 54.8182 53.1818C53.9157 53.1818 53.1818 52.4479 53.1818 51.5455C53.1818 50.643 53.9157 49.9091 54.8182 49.9091C55.7206 49.9091 56.4545 50.643 56.4545 51.5455ZM58.0909 26.1818C56.286 26.1818 54.8182 24.714 54.8182 22.9091C54.8182 21.1042 56.286 19.6364 58.0909 19.6364C59.8958 19.6364 61.3636 21.1042 61.3636 22.9091C61.3636 24.714 59.8958 26.1818 58.0909 26.1818Z" fill="#E6F85E"/>
</g>
<defs>
<linearGradient id="paint0_linear_222_2339" x1="40" y1="19.2" x2="40" y2="80" gradientUnits="userSpaceOnUse">
<stop stop-color="white" stop-opacity="0"/>
<stop offset="1" stop-color="#E6F85E" stop-opacity="0.1"/>
</linearGradient>
<clipPath id="clip0_222_2339">
<rect width="45" height="45" fill="white" transform="translate(18 18)"/>
</clipPath>
</defs>
</svg>
