<svg width="80" height="80" viewBox="0 0 80 80" fill="none" xmlns="http://www.w3.org/2000/svg">
<circle cx="40" cy="40" r="40" fill="url(#paint0_linear_222_2303)"/>
<g clip-path="url(#clip0_222_2303)">
<path d="M50.6899 54.6783H42.2157L41.3291 53.7917L43.554 51.5668C43.7984 51.3222 43.9005 50.9746 43.8268 50.6367C43.7532 50.2989 43.5158 50.0253 43.1919 49.9048L31.5781 45.5825C31.1705 45.4308 30.7259 45.5275 30.4182 45.8354C30.1104 46.1431 30.0136 46.5877 30.1654 46.9954L33.0247 54.6783H21.3808C20.2435 54.6783 19.3184 53.7532 19.3184 52.616V38.396C19.3184 38.0319 19.0233 37.7368 18.6592 37.7368C18.295 37.7368 18 38.0319 18 38.396V52.616C18 54.4802 19.5166 55.9968 21.3808 55.9968H33.5154L34.4876 58.609C34.6081 58.9331 34.8818 59.1705 35.2196 59.2442C35.5574 59.3179 35.9053 59.2158 36.1495 58.9714L38.3745 56.7465L40.6394 59.0114C40.8536 59.2255 41.1348 59.3324 41.4161 59.3324C41.6974 59.3324 41.9788 59.2254 42.1929 59.0114L43.594 57.6104C44.0222 57.182 44.0221 56.485 43.5939 56.0567C43.5939 56.0567 43.5939 56.0567 43.5938 56.0567L43.5341 55.997H50.6898C51.0539 55.997 51.349 55.7019 51.349 55.3378C51.349 54.9737 51.0539 54.6783 50.6899 54.6783ZM41.4162 57.9234L38.8406 55.3479C38.7119 55.2192 38.5432 55.1549 38.3745 55.1549C38.2058 55.1549 38.037 55.2192 37.9083 55.3479L35.556 57.7002L31.5684 46.9856L42.2829 50.9733L39.9306 53.3256C39.6731 53.5831 39.6731 54.0004 39.9306 54.2579L42.5062 56.8333L41.4162 57.9234Z" fill="#E6F85E"/>
<path d="M59.6192 21.668H57.3145C56.9504 21.668 56.6554 21.963 56.6554 22.3271C56.6554 22.6913 56.9504 22.9863 57.3145 22.9863H59.6192C60.7564 22.9863 61.6816 23.9115 61.6816 25.0488V29.1788H19.3184V25.0488C19.3184 23.9116 20.2435 22.9863 21.3808 22.9863H54.2659C54.63 22.9863 54.925 22.6913 54.925 22.3271C54.925 21.963 54.63 21.668 54.2659 21.668H21.3808C19.5166 21.668 18 23.1846 18 25.0488V35.4297C18 35.7938 18.295 36.0889 18.6592 36.0889C19.0233 36.0889 19.3184 35.7938 19.3184 35.4297V30.4973H61.6816V52.616C61.6816 53.7532 60.7565 54.6785 59.6192 54.6785H53.8484C53.4843 54.6785 53.1892 54.9735 53.1892 55.3376C53.1892 55.7018 53.4843 55.9968 53.8484 55.9968H59.6192C61.4834 55.9968 63 54.4802 63 52.616V25.0488C63 23.1846 61.4834 21.668 59.6192 21.668Z" fill="#E6F85E"/>
<path d="M22.3682 26.0825C22.3682 26.7569 22.9148 27.3036 23.5891 27.3036C24.2634 27.3036 24.8101 26.7569 24.8101 26.0825C24.8101 25.4082 24.2634 24.8616 23.5891 24.8616C22.9148 24.8616 22.3682 25.4082 22.3682 26.0825Z" fill="#E6F85E"/>
<path d="M26.124 26.0825C26.124 26.7569 26.6707 27.3036 27.345 27.3036C28.0193 27.3036 28.566 26.7569 28.566 26.0825C28.566 25.4082 28.0193 24.8616 27.345 24.8616C26.6707 24.8616 26.124 25.4082 26.124 26.0825Z" fill="#E6F85E"/>
<path d="M29.8799 26.0825C29.8799 26.7569 30.4266 27.3036 31.1009 27.3036C31.7752 27.3036 32.3218 26.7569 32.3218 26.0825C32.3218 25.4082 31.7752 24.8616 31.1009 24.8616C30.4266 24.8616 29.8799 25.4082 29.8799 26.0825Z" fill="#E6F85E"/>
<path d="M26.0691 45.0099H26.0729C26.3515 45.0099 26.6002 44.8346 26.6937 44.572L28.3266 39.9901L29.8868 44.5637C29.9775 44.8295 30.2269 45.0087 30.5079 45.01H30.5107C30.7906 45.01 31.04 44.8331 31.1327 44.5688L33.3462 38.2542C33.4666 37.9107 33.2857 37.5345 32.9421 37.414C32.5988 37.2936 32.2224 37.4745 32.1019 37.8182L30.519 42.3339L28.964 37.7754C28.7877 37.1961 27.903 37.1908 27.7192 37.767L26.0841 42.3553L24.5288 37.8292C24.4105 37.4849 24.0356 37.3014 23.6912 37.4201C23.3469 37.5384 23.1637 37.9134 23.2821 38.2577L25.4495 44.5649C25.5404 44.8298 25.789 45.0082 26.0691 45.0099Z" fill="#E6F85E"/>
<path d="M38.2654 45.0097H38.2692C38.5478 45.0097 38.7965 44.8344 38.89 44.5718L40.5229 39.9899L42.0831 44.5635C42.1738 44.8293 42.4232 45.0085 42.7042 45.0098H42.7069C42.9869 45.0098 43.2363 44.8329 43.329 44.5686L45.5425 38.254C45.6629 37.9105 45.482 37.5343 45.1383 37.4138C44.795 37.2934 44.4187 37.4743 44.2982 37.8179L42.7153 42.3337L41.1603 37.7752C40.9839 37.1959 40.0993 37.1906 39.9155 37.7668L38.2804 42.3551L36.7251 37.8291C36.6068 37.4847 36.2317 37.3013 35.8875 37.42C35.5432 37.5383 35.36 37.9133 35.4784 38.2576L37.6458 44.5648C37.7368 44.8296 37.9854 45.008 38.2654 45.0097Z" fill="#E6F85E"/>
<path d="M50.2636 45.0099H50.2673C50.5459 45.0099 50.7946 44.8346 50.8882 44.572L52.521 39.9901L54.0812 44.5637C54.1719 44.8295 54.4214 45.0087 54.7023 45.01H54.7051C54.985 45.01 55.2344 44.8331 55.3272 44.5688L57.5405 38.2542C57.6609 37.9107 57.48 37.5345 57.1364 37.414C56.793 37.2936 56.4167 37.4745 56.2962 37.8182L54.7134 42.3339L53.1585 37.7754C52.9822 37.1961 52.0974 37.1908 51.9137 37.767L50.2785 42.3553L48.7232 37.8293C48.6048 37.485 48.2303 37.3017 47.8856 37.4202C47.5413 37.5385 47.358 37.9135 47.4764 38.2578L49.6439 44.565C49.7349 44.8298 49.9834 45.0082 50.2636 45.0099Z" fill="#E6F85E"/>
</g>
<defs>
<linearGradient id="paint0_linear_222_2303" x1="40" y1="19.2" x2="40" y2="80" gradientUnits="userSpaceOnUse">
<stop stop-color="white" stop-opacity="0"/>
<stop offset="1" stop-color="#E6F85E" stop-opacity="0.1"/>
</linearGradient>
<clipPath id="clip0_222_2303">
<rect width="45" height="45" fill="white" transform="translate(18 18)"/>
</clipPath>
</defs>
</svg>
