<svg width="80" height="81" viewBox="0 0 80 81" fill="none" xmlns="http://www.w3.org/2000/svg">
<circle cx="40" cy="40.0049" r="40" fill="#09B6A2"/>
<path d="M52.6562 39.8799C54.9414 39.8799 56.875 41.8135 56.875 44.0986V50.6611C56.875 53.0049 54.9414 54.8799 52.6562 54.8799H45.1562C42.8125 54.8799 40.9375 53.0049 40.9375 50.6611V39.4111C40.9375 33.4932 45.7422 28.6299 51.7188 28.6299H52.1875C53.7109 28.6299 55 29.9189 55 31.4424V34.2549C55 35.8369 53.7109 37.0674 52.1875 37.0674H51.7188C50.3711 37.0674 49.375 38.1221 49.375 39.4111V39.8799H52.6562ZM54.0625 50.6611V44.0986C54.0625 43.3369 53.418 42.6924 52.6562 42.6924H46.5625V39.4111C46.5625 36.5986 48.8477 34.2549 51.7188 34.2549H52.1875V31.4424H51.7188C47.3242 31.4424 43.75 35.0166 43.75 39.4111V50.6611C43.75 51.4814 44.3359 52.0674 45.1562 52.0674H52.6562C53.418 52.0674 54.0625 51.4814 54.0625 50.6611ZM34.8438 39.8799C37.1289 39.8799 39.0625 41.8135 39.0625 44.0986V50.6611C39.0625 53.0049 37.1289 54.8799 34.8438 54.8799H27.3438C25 54.8799 23.125 53.0049 23.125 50.6611V39.4111C23.125 33.4932 27.9297 28.6299 33.9062 28.6299H34.375C35.8984 28.6299 37.1875 29.9189 37.1875 31.4424V34.2549C37.1875 35.8369 35.8984 37.0674 34.375 37.0674H33.9062C32.5586 37.0674 31.5625 38.1221 31.5625 39.4111V39.8799H34.8438ZM36.25 50.6611V44.0986C36.25 43.3369 35.6055 42.6924 34.8438 42.6924H28.75V39.4111C28.75 36.5986 31.0352 34.2549 33.9062 34.2549H34.375V31.4424H33.9062C29.5117 31.4424 25.9375 35.0166 25.9375 39.4111V50.6611C25.9375 51.4814 26.5234 52.0674 27.3438 52.0674H34.8438C35.6055 52.0674 36.25 51.4814 36.25 50.6611Z" fill="white"/>
</svg>
