<svg width="80" height="80" viewBox="0 0 80 80" fill="none" xmlns="http://www.w3.org/2000/svg">
<circle cx="40" cy="40" r="40" fill="#6844ED"/>
<path d="M52.6562 39.875C54.9414 39.875 56.875 41.8086 56.875 44.0938V50.6562C56.875 53 54.9414 54.875 52.6562 54.875H45.1562C42.8125 54.875 40.9375 53 40.9375 50.6562V39.4062C40.9375 33.4883 45.7422 28.625 51.7188 28.625H52.1875C53.7109 28.625 55 29.9141 55 31.4375V34.25C55 35.832 53.7109 37.0625 52.1875 37.0625H51.7188C50.3711 37.0625 49.375 38.1172 49.375 39.4062V39.875H52.6562ZM54.0625 50.6562V44.0938C54.0625 43.332 53.418 42.6875 52.6562 42.6875H46.5625V39.4062C46.5625 36.5938 48.8477 34.25 51.7188 34.25H52.1875V31.4375H51.7188C47.3242 31.4375 43.75 35.0117 43.75 39.4062V50.6562C43.75 51.4766 44.3359 52.0625 45.1562 52.0625H52.6562C53.418 52.0625 54.0625 51.4766 54.0625 50.6562ZM34.8438 39.875C37.1289 39.875 39.0625 41.8086 39.0625 44.0938V50.6562C39.0625 53 37.1289 54.875 34.8438 54.875H27.3438C25 54.875 23.125 53 23.125 50.6562V39.4062C23.125 33.4883 27.9297 28.625 33.9062 28.625H34.375C35.8984 28.625 37.1875 29.9141 37.1875 31.4375V34.25C37.1875 35.832 35.8984 37.0625 34.375 37.0625H33.9062C32.5586 37.0625 31.5625 38.1172 31.5625 39.4062V39.875H34.8438ZM36.25 50.6562V44.0938C36.25 43.332 35.6055 42.6875 34.8438 42.6875H28.75V39.4062C28.75 36.5938 31.0352 34.25 33.9062 34.25H34.375V31.4375H33.9062C29.5117 31.4375 25.9375 35.0117 25.9375 39.4062V50.6562C25.9375 51.4766 26.5234 52.0625 27.3438 52.0625H34.8438C35.6055 52.0625 36.25 51.4766 36.25 50.6562Z" fill="white"/>
</svg>
