<svg width="14" height="15" viewBox="0 0 14 15" fill="none" xmlns="http://www.w3.org/2000/svg">
<path d="M13.7812 6.84375C13.9375 6.96875 13.9375 7.21875 13.7812 7.375L7.25 13.9062C7.09375 14.0625 6.875 14.0625 6.71875 13.9062L0.1875 7.375C0.03125 7.21875 0.03125 6.96875 0.1875 6.84375L0.78125 6.21875C0.9375 6.0625 1.1875 6.0625 1.3125 6.21875L6.1875 11.0625V0.375C6.1875 0.1875 6.34375 0 6.5625 0H7.4375C7.625 0 7.8125 0.1875 7.8125 0.375V11.0625L12.6562 6.21875C12.7812 6.0625 13.0312 6.0625 13.1875 6.21875L13.7812 6.84375Z" fill="#6844ED"/>
</svg>
