<svg width="19" height="19" viewBox="0 0 19 19" fill="none" xmlns="http://www.w3.org/2000/svg">
<path d="M17.8594 16.7383C18.0352 16.9141 18.0352 17.1953 17.8594 17.3359L17.0508 18.1445C16.9102 18.3203 16.6289 18.3203 16.4531 18.1445L12.1992 13.8906C12.1289 13.7852 12.0938 13.6797 12.0938 13.5742V13.1172C10.793 14.207 9.14062 14.875 7.3125 14.875C3.26953 14.875 0 11.6055 0 7.5625C0 3.55469 3.26953 0.25 7.3125 0.25C11.3203 0.25 14.625 3.55469 14.625 7.5625C14.625 9.39062 13.9219 11.0781 12.832 12.3438H13.2891C13.3945 12.3438 13.5 12.4141 13.6055 12.4844L17.8594 16.7383ZM7.3125 13.1875C10.4062 13.1875 12.9375 10.6914 12.9375 7.5625C12.9375 4.46875 10.4062 1.9375 7.3125 1.9375C4.18359 1.9375 1.6875 4.46875 1.6875 7.5625C1.6875 10.6914 4.18359 13.1875 7.3125 13.1875Z" fill="white"/>
</svg>
