<svg width="35" height="32" viewBox="0 0 35 32" fill="none" xmlns="http://www.w3.org/2000/svg">
<path d="M35 14.6445V29C35 30.2305 33.9746 31.1875 32.8125 31.1875H2.1875C0.957031 31.1875 0 30.2305 0 29V19.1562V14.6445C0 14.0293 0.205078 13.4824 0.615234 13.0723L3.69141 9.99609C4.10156 9.58594 4.64844 9.3125 5.26367 9.3125H8.75V3.84375C8.75 2.06641 10.1855 0.5625 12.0312 0.5625H22.9688C24.7461 0.5625 26.25 2.06641 26.25 3.84375V9.3125H29.668C30.2832 9.3125 30.8301 9.58594 31.2402 9.99609L34.3164 13.0723C34.7266 13.4824 35 14.0293 35 14.6445ZM12.0312 3.84375V9.3125H22.9688V3.84375H12.0312ZM3.28125 15.0547V19.1562H9.29688V18.0625C9.29688 17.5156 9.77539 16.9688 10.3906 16.9688H11.4844C12.0312 16.9688 12.5781 17.5156 12.5781 18.0625V19.1562H22.4219V18.0625C22.4219 17.5156 22.9004 16.9688 23.5156 16.9688H24.6094C25.1562 16.9688 25.7031 17.5156 25.7031 18.0625V19.1562H31.7188V15.0547L29.2578 12.5938H5.67383L3.28125 15.0547ZM31.7188 27.9062V22.4375H25.7031V23.5312C25.7031 24.1465 25.1562 24.625 24.6094 24.625H23.5156C22.9004 24.625 22.4219 24.1465 22.4219 23.5312V22.4375H12.5781V23.5312C12.5781 24.1465 12.0312 24.625 11.4844 24.625H10.3906C9.77539 24.625 9.29688 24.1465 9.29688 23.5312V22.4375H3.28125V27.9062H31.7188Z" fill="#6844ED"/>
</svg>
