<svg width="35" height="36" viewBox="0 0 35 36" fill="none" xmlns="http://www.w3.org/2000/svg">
<path d="M30.8984 16.5762C30.9668 17.4648 30.9668 18.3535 30.8984 19.1738L33.0859 20.4727C33.7012 20.8145 34.043 21.5664 33.8379 22.3184C33.0859 25.1895 31.5137 27.7871 29.4629 29.9062C28.916 30.3848 28.0957 30.5215 27.4805 30.1797L25.293 28.8809C24.6094 29.4277 23.8574 29.8379 23.0371 30.1797V32.709C23.0371 33.4609 22.5586 34.0762 21.8066 34.2812C19.0039 35.0332 15.9277 35.0332 13.125 34.2812C12.373 34.0762 11.8945 33.4609 11.8945 32.709V30.1797C11.0742 29.8379 10.3223 29.4277 9.63867 28.8809L7.45117 30.1797C6.83594 30.5215 6.01562 30.3848 5.46875 29.9062C3.41797 27.7871 1.8457 25.1895 1.09375 22.3184C0.888672 21.5664 1.23047 20.8145 1.8457 20.4727L4.0332 19.1738C3.96484 18.7637 3.96484 18.3535 3.96484 17.9434C3.96484 17.4648 3.96484 17.0547 4.0332 16.5762L1.8457 15.3457C1.23047 15.0039 0.888672 14.252 1.09375 13.5C1.8457 10.6289 3.41797 8.03125 5.46875 5.91211C6.01562 5.43359 6.83594 5.29688 7.45117 5.63867L9.63867 6.9375C10.3223 6.39062 11.0742 5.98047 11.8945 5.63867V3.10938C11.8945 2.35742 12.373 1.74219 13.125 1.53711C15.9277 0.785156 19.0039 0.785156 21.8066 1.53711C22.5586 1.74219 23.0371 2.35742 23.0371 3.10938V5.63867C23.8574 5.98047 24.6094 6.39062 25.293 6.9375L27.4805 5.63867C28.0957 5.29688 28.916 5.43359 29.4629 5.91211C31.5137 8.03125 33.0859 10.6289 33.8379 13.5C34.043 14.252 33.7012 15.0039 33.0859 15.3457L30.8984 16.5762ZM27.2754 20.9512C27.8223 18.0801 27.8223 17.7383 27.2754 14.8672L30.2832 13.1582C29.7363 11.7227 28.9844 10.3555 27.959 9.19336L24.9512 10.9023C22.832 9.05664 22.4902 8.85156 19.7559 7.89453V4.4082C19.0039 4.27148 18.252 4.20312 17.5 4.20312C16.6797 4.20312 15.9277 4.27148 15.1758 4.4082V7.89453C12.4414 8.85156 12.168 9.05664 9.98047 10.9023L6.97266 9.19336C5.94727 10.3555 5.19531 11.7227 4.64844 13.1582L7.65625 14.8672C7.10938 17.7383 7.10938 18.0801 7.65625 20.9512L4.64844 22.6602C5.19531 24.0957 5.94727 25.4629 6.97266 26.625L9.98047 24.916C12.0996 26.7617 12.4414 26.9668 15.1758 27.9238V31.4102C15.9277 31.5469 16.6797 31.6152 17.4316 31.6152C18.252 31.6152 19.0039 31.5469 19.7559 31.4102V27.9238C22.4902 26.9668 22.7637 26.7617 24.9512 24.916L27.959 26.625C28.9844 25.4629 29.7363 24.0957 30.2832 22.6602L27.2754 20.9512ZM17.5 11.3125C21.0547 11.3125 24.0625 14.3203 24.0625 17.875C24.0625 21.498 21.0547 24.4375 17.5 24.4375C13.877 24.4375 10.9375 21.498 10.9375 17.875C10.9375 14.3203 13.877 11.3125 17.5 11.3125ZM17.5 21.1562C19.2773 21.1562 20.7812 19.7207 20.7812 17.875C20.7812 16.0977 19.2773 14.5938 17.5 14.5938C15.6543 14.5938 14.2188 16.0977 14.2188 17.875C14.2188 19.7207 15.6543 21.1562 17.5 21.1562Z" fill="#6844ED"/>
</svg>
