<svg width="40" height="32" viewBox="0 0 40 32" fill="none" xmlns="http://www.w3.org/2000/svg">
<path d="M36.0938 0.5625C37.8711 0.5625 39.375 2.06641 39.375 3.84375V27.9062C39.375 29.752 37.8711 31.1875 36.0938 31.1875H3.28125C1.43555 31.1875 0 29.752 0 27.9062V3.84375C0 2.06641 1.43555 0.5625 3.28125 0.5625H36.0938ZM36.0938 27.9062V3.84375H3.28125V27.9062H36.0938ZM14.2188 15.875C11.7578 15.875 9.84375 13.9609 9.84375 11.5C9.84375 9.10742 11.7578 7.125 14.2188 7.125C16.6113 7.125 18.5938 9.10742 18.5938 11.5C18.5938 13.9609 16.6113 15.875 14.2188 15.875ZM8.06641 24.625C7.24609 24.625 6.5625 24.0781 6.5625 23.3262V22.0273C6.5625 19.8398 8.61328 18.0625 11.1426 18.0625C11.8945 18.0625 12.373 18.6094 14.2188 18.6094C15.9961 18.6094 16.543 18.0625 17.2266 18.0625C19.7559 18.0625 21.875 19.8398 21.875 22.0273V23.3262C21.875 24.0781 21.1914 24.625 20.3027 24.625H8.06641ZM24.6094 20.25C24.2676 20.25 24.0625 20.0449 24.0625 19.7031V18.6094C24.0625 18.3359 24.2676 18.0625 24.6094 18.0625H32.2656C32.5391 18.0625 32.8125 18.3359 32.8125 18.6094V19.7031C32.8125 20.0449 32.5391 20.25 32.2656 20.25H24.6094ZM24.6094 15.875C24.2676 15.875 24.0625 15.6699 24.0625 15.3281V14.2344C24.0625 13.9609 24.2676 13.6875 24.6094 13.6875H32.2656C32.5391 13.6875 32.8125 13.9609 32.8125 14.2344V15.3281C32.8125 15.6699 32.5391 15.875 32.2656 15.875H24.6094ZM24.6094 11.5C24.2676 11.5 24.0625 11.2949 24.0625 10.9531V9.85938C24.0625 9.58594 24.2676 9.3125 24.6094 9.3125H32.2656C32.5391 9.3125 32.8125 9.58594 32.8125 9.85938V10.9531C32.8125 11.2949 32.5391 11.5 32.2656 11.5H24.6094Z" fill="#6844ED"/>
</svg>
