<svg width="38" height="36" viewBox="0 0 38 36" fill="none" xmlns="http://www.w3.org/2000/svg">
<path d="M28.9844 0.375C34.1797 0.375 37.1875 7.00586 33.0176 10.6973L18.5254 23.7539L16.6113 29.6328C16.3379 30.3848 15.791 30.9316 15.1074 31.1367L2.25586 35.375L0 33.0508L4.23828 20.2676C4.44336 19.5156 4.99023 18.9688 5.74219 18.7637L11.5527 16.7812L24.6777 2.35742C25.8398 1.05859 27.4121 0.375 28.9844 0.375ZM13.6035 28.1973L15.4492 22.7285V22.5918L12.7148 19.8574L12.6465 19.9258L7.17773 21.7031L4.78516 29.0859L8.20312 25.668C8.20312 25.5996 8.13477 25.5996 8.13477 25.5312C8.13477 24.6426 8.88672 23.8906 9.77539 23.8906C10.7324 23.8906 11.416 24.6426 11.416 25.5312C11.416 26.4883 10.7324 27.1719 9.77539 27.1719C9.77539 27.1719 9.77539 27.1719 9.70703 27.1719L6.28906 30.5898L13.6035 28.1973ZM30.7617 8.30469C31.377 7.75781 31.6504 7.14258 31.6504 6.45898C31.7188 4.95508 30.4199 3.65625 28.9844 3.65625C28.3008 3.65625 27.6172 3.99805 27.1387 4.54492L15.1758 17.7383L17.6367 20.1992L30.7617 8.30469Z" fill="#6844ED"/>
</svg>
