<svg width="35" height="36" viewBox="0 0 35 36" fill="none" xmlns="http://www.w3.org/2000/svg">
<path d="M17.5 4.75C25.9082 4.75 32.8125 11.6543 32.8125 20.0625C32.8125 20.1309 32.7441 20.1309 32.7441 20.1309C32.7441 23.5488 31.6504 26.6934 29.7363 29.2227L32.4707 32.0254C32.6758 32.1621 32.8125 32.4355 32.8125 32.7773C32.8125 33.0508 32.6758 33.3242 32.4707 33.5293L30.8984 35.1016C30.6934 35.3066 30.4199 35.375 30.1465 35.375C29.8047 35.375 29.5312 35.3066 29.3945 35.1016L26.6602 32.3672C24.0625 34.2812 20.918 35.375 17.4316 35.375C14.0137 35.375 10.8691 34.2812 8.33984 32.3672L5.53711 35.1016C5.40039 35.3066 5.12695 35.4434 4.78516 35.4434C4.51172 35.4434 4.23828 35.3066 4.0332 35.1016L2.46094 33.5293C2.25586 33.3242 2.11914 33.0508 2.11914 32.7773C2.11914 32.4355 2.25586 32.1621 2.46094 32.0254L5.19531 29.2227C3.28125 26.6934 2.1875 23.5488 2.1875 20.1309V20.0625C2.1875 11.6543 9.02344 4.75 17.5 4.75ZM17.5 32.0938C24.1309 32.0938 29.5312 26.7617 29.5312 20.0625C29.5312 13.4316 24.1309 8.03125 17.5 8.03125C10.8008 8.03125 5.46875 13.4316 5.46875 20.0625C5.46875 26.7617 10.8008 32.0938 17.5 32.0938ZM6.5625 0.375C8.27148 0.443359 9.84375 1.05859 11.0059 2.15234L1.02539 10.4922C0.341797 9.4668 0 8.23633 0 6.9375C0 3.38281 2.93945 0.375 6.5625 0.375ZM19.1406 20.4043L23.1055 23.6172C23.2422 23.6855 23.3105 23.8223 23.3105 24.0273C23.3105 24.1641 23.2422 24.3008 23.1738 24.3691L21.8066 26.0781C21.7383 26.2148 21.6016 26.2832 21.4648 26.2832H21.3965C21.2598 26.2832 21.123 26.2148 21.0547 26.1465L16.6797 22.6602C16.1328 22.25 15.8594 21.6348 15.8594 20.9512V11.8594C15.8594 11.5859 16.0645 11.3125 16.4062 11.3125H18.5938C18.8672 11.3125 19.1406 11.5859 19.1406 11.8594V20.4043ZM28.4375 0.375C31.9922 0.375 35 3.38281 35 6.9375C34.9316 8.23633 34.5898 9.4668 33.9062 10.4922L23.9258 2.15234C25.0879 1.05859 26.6602 0.443359 28.4375 0.375Z" fill="#6844ED"/>
</svg>
