<svg width="36" height="37" viewBox="0 0 36 37" fill="none" xmlns="http://www.w3.org/2000/svg">
<path d="M15.3125 8.00586V6.84375H15.1758C15.6543 5.95508 16.2695 5.20312 16.9531 4.51953C19.5508 1.85352 23.3105 0.828125 26.9336 1.7168C27.8223 1.92188 28.4375 2.60547 28.7109 3.42578C28.916 4.24609 28.7109 5.13477 28.0957 5.75L24.0625 9.71484L24.4043 11.9707L26.6602 12.3125L30.6934 8.2793C31.2402 7.73242 32.1289 7.45898 33.0176 7.66406C33.8379 7.9375 34.4531 8.55273 34.6582 9.44141C35.5469 12.9961 34.4531 16.8242 31.8555 19.4219C31.2402 20.0371 30.5566 20.584 29.873 20.9941L27.7539 18.875C27.6172 18.8066 27.4805 18.6699 27.4121 18.6016C28.1641 18.2598 28.916 17.7812 29.5312 17.0977C30.9668 15.7305 31.7188 13.8164 31.7188 11.9023L27.7539 15.7988L21.6016 14.7734L20.5762 8.62109L24.4727 4.72461H24.4043C22.4902 4.72461 20.6445 5.4082 19.2773 6.84375C17.5684 8.55273 16.8164 10.9453 17.2949 13.3379L15.3125 11.2871V8.00586ZM7.24609 32.4102L15.3809 24.2754C15.3809 25.5742 15.791 26.8047 16.4062 27.8984L9.57031 34.7344C8.47656 35.8281 7.04102 36.375 5.60547 36.375C4.10156 36.375 2.66602 35.8281 1.64062 34.7344C0.546875 33.709 0 32.2734 0 30.7695C0 29.334 0.546875 27.8984 1.64062 26.8047L10.8008 17.6445L13.125 19.9688L3.89648 29.1289C3.48633 29.6074 3.21289 30.1543 3.21289 30.7695C3.21289 31.3848 3.48633 32 3.89648 32.4102C4.78516 33.2988 6.35742 33.2988 7.24609 32.4102ZM34.248 28.4453C35.2051 29.4707 35.2051 31.043 34.248 32.0684L30.625 35.6914C29.5996 36.6484 28.0273 36.6484 27.002 35.6914L19.0039 27.625C17.4316 26.0527 17.1582 23.7285 18.0469 21.8145L10.8008 14.5H6.5625L0 5.75L4.375 1.375L13.125 7.9375V12.2441L20.3711 19.4902C22.2852 18.5332 24.6094 18.875 26.25 20.4473L34.248 28.4453Z" fill="#6844ED"/>
</svg>
