<svg width="100" height="30" viewBox="0 0 100 30" fill="none" xmlns="http://www.w3.org/2000/svg">
<g clip-path="url(#clip0_126_11315)">
<path d="M24.2378 13.3231C19.4806 10.4948 11.6336 10.2347 7.09226 11.6146C6.36295 11.836 5.59179 11.4238 5.37081 10.6938C5.14984 9.96337 5.56109 9.19184 6.29087 8.96989C11.5041 7.38556 20.1702 7.69167 25.6468 10.9463C26.3029 11.336 26.5181 12.1841 26.1291 12.8398C25.74 13.4964 24.8922 13.7129 24.2378 13.3231ZM24.082 17.5122C23.7484 18.0544 23.0403 18.2243 22.4994 17.8916C18.5333 15.4509 12.4855 14.7439 7.79326 16.1697C7.18478 16.3538 6.54208 16.0104 6.35731 15.4023C6.17391 14.7932 6.51716 14.1509 7.12455 13.9657C12.4848 12.3374 19.1482 13.1261 23.7035 15.9286C24.2443 16.262 24.4146 16.9713 24.082 17.5122ZM22.2762 21.5353C22.0111 21.9706 21.4447 22.1071 21.0115 21.8418C17.5458 19.7213 13.1837 19.2423 8.04646 20.4171C7.55135 20.5308 7.05804 20.2201 6.94507 19.7246C6.8317 19.2291 7.14072 18.7353 7.63693 18.6222C13.2587 17.3355 18.0811 17.8893 21.9711 20.269C22.4048 20.5341 22.5414 21.1013 22.2762 21.5353ZM15.5079 0.225012C7.35723 0.225012 0.749512 6.83969 0.749512 14.9994C0.749512 23.1599 7.35723 29.7744 15.5079 29.7744C23.6589 29.7744 30.2662 23.1599 30.2662 14.9994C30.2662 6.83969 23.6589 0.225012 15.5079 0.225012Z" fill="#17BE74"/>
<path d="M40.9018 13.8643C38.3536 13.2559 37.8998 12.8289 37.8998 11.932C37.8998 11.0842 38.6971 10.514 39.8825 10.514C41.0315 10.514 42.1707 10.9472 43.3653 11.8388C43.4015 11.8658 43.4468 11.8766 43.4914 11.8695C43.5359 11.8628 43.5752 11.8385 43.6015 11.8014L44.8457 10.0456C44.8968 9.97345 44.8829 9.87359 44.814 9.81837C43.3923 8.67634 41.7914 8.12112 39.9202 8.12112C37.1688 8.12112 35.247 9.77391 35.247 12.1391C35.247 14.6754 36.9048 15.5733 39.7697 16.2664C42.208 16.8287 42.6195 17.2997 42.6195 18.142C42.6195 19.0751 41.7874 19.6552 40.4482 19.6552C38.9609 19.6552 37.7476 19.1536 36.3904 17.977C36.3567 17.948 36.3106 17.9347 36.2679 17.9371C36.2231 17.9408 36.1821 17.9616 36.1535 17.996L34.7585 19.6582C34.7 19.7272 34.7074 19.8302 34.7749 19.8898C36.3541 21.3011 38.296 22.0466 40.3918 22.0466C43.3565 22.0466 45.2724 20.4247 45.2724 17.9147C45.2724 15.7934 44.0063 14.6201 40.9018 13.8643Z" fill="#696969"/>
<path d="M54.1323 16.7079C54.1323 18.4992 53.0302 19.7492 51.452 19.7492C49.8918 19.7492 48.7149 18.4424 48.7149 16.7079C48.7149 14.9737 49.8918 13.6667 51.452 13.6667C53.0048 13.6667 54.1323 14.9454 54.1323 16.7079ZM51.9802 11.3489C50.6951 11.3489 49.641 11.8556 48.7719 12.8939V11.7252C48.7719 11.633 48.6971 11.5578 48.605 11.5578H46.3235C46.2313 11.5578 46.1567 11.633 46.1567 11.7252V24.7108C46.1567 24.8031 46.2313 24.8782 46.3235 24.8782H48.605C48.6971 24.8782 48.7719 24.8031 48.7719 24.7108V20.612C49.6412 21.5887 50.6954 22.0657 51.9802 22.0657C54.368 22.0657 56.7852 20.2255 56.7852 16.7079C56.7852 13.1895 54.368 11.3489 51.9802 11.3489Z" fill="#696969"/>
<path d="M62.981 19.7677C61.3454 19.7677 60.1123 18.452 60.1123 16.7077C60.1123 14.956 61.3028 13.6848 62.9433 13.6848C64.5895 13.6848 65.8309 15.0004 65.8309 16.7459C65.8309 18.4974 64.6323 19.7677 62.981 19.7677ZM62.981 11.3486C59.9059 11.3486 57.4968 13.7192 57.4968 16.7459C57.4968 19.7398 59.8894 22.0854 62.9433 22.0854C66.0293 22.0854 68.4458 19.7229 68.4458 16.7077C68.4458 13.7026 66.0459 11.3486 62.981 11.3486Z" fill="#696969"/>
<path d="M75.0126 11.5573H72.5018V8.9874C72.5018 8.89513 72.4275 8.82015 72.3353 8.82015H70.054C69.9616 8.82015 69.8865 8.89513 69.8865 8.9874V11.5573H68.7895C68.6975 11.5573 68.6233 11.6324 68.6233 11.7247V13.6878C68.6233 13.78 68.6975 13.8551 68.7895 13.8551H69.8865V18.9348C69.8865 20.9876 70.9071 22.0283 72.9199 22.0283C73.7383 22.0283 74.4173 21.8591 75.0572 21.4959C75.1092 21.4668 75.1416 21.4107 75.1416 21.351V19.4816C75.1416 19.4239 75.1115 19.3696 75.0623 19.3392C75.0126 19.308 74.9508 19.3064 74.8998 19.3317C74.4603 19.553 74.0354 19.6552 73.5605 19.6552C72.8286 19.6552 72.5018 19.3226 72.5018 18.5769V13.8551H75.0126C75.1048 13.8551 75.179 13.78 75.179 13.6878V11.7247C75.179 11.6324 75.1048 11.5573 75.0126 11.5573Z" fill="#696969"/>
<path d="M83.76 11.568V11.2523C83.76 10.3238 84.1156 9.90972 84.9132 9.90972C85.3889 9.90972 85.771 10.0043 86.1988 10.1472C86.2515 10.1638 86.3065 10.1555 86.3493 10.1239C86.3934 10.0923 86.4183 10.0417 86.4183 9.98806V8.06322C86.4183 7.98965 86.371 7.92454 86.3004 7.90302C85.8483 7.7684 85.2699 7.63008 84.4039 7.63008C82.2963 7.63008 81.1825 8.81816 81.1825 11.0646V11.548H80.0864C79.9944 11.548 79.9189 11.623 79.9189 11.7153V13.6884C79.9189 13.7806 79.9944 13.8558 80.0864 13.8558H81.1825V21.6909C81.1825 21.7832 81.2569 21.8582 81.3489 21.8582H83.6304C83.7226 21.8582 83.7977 21.7832 83.7977 21.6909V13.8558H85.928L89.1913 21.6889C88.8208 22.5119 88.4566 22.6756 87.9592 22.6756C87.5572 22.6756 87.1339 22.5554 86.7011 22.3184C86.6604 22.2959 86.6123 22.2922 86.5682 22.3058C86.5247 22.3213 86.488 22.3537 86.4695 22.3962L85.6962 24.0946C85.6594 24.1749 85.6908 24.2691 85.768 24.3108C86.5753 24.7485 87.3042 24.9353 88.2047 24.9353C89.8895 24.9353 90.8207 24.1495 91.6418 22.0359L95.6002 11.7959C95.6199 11.7444 95.6141 11.6864 95.5826 11.6405C95.5512 11.5953 95.5006 11.568 95.4453 11.568H93.07C92.999 11.568 92.9352 11.6131 92.9119 11.68L90.4787 18.638L87.8135 11.6754C87.7892 11.6107 87.727 11.568 87.6577 11.568H83.76Z" fill="#696969"/>
<path d="M78.689 11.5574H76.4073C76.3151 11.5574 76.2402 11.6325 76.2402 11.7248V21.6904C76.2402 21.7827 76.3151 21.8577 76.4073 21.8577H78.689C78.781 21.8577 78.8561 21.7827 78.8561 21.6904V11.7248C78.8561 11.6325 78.781 11.5574 78.689 11.5574Z" fill="#696969"/>
<path d="M77.5597 7.01998C76.656 7.01998 75.9224 7.75269 75.9224 8.65741C75.9224 9.56285 76.656 10.2963 77.5597 10.2963C78.4633 10.2963 79.1961 9.56285 79.1961 8.65741C79.1961 7.75269 78.4633 7.01998 77.5597 7.01998Z" fill="#696969"/>
<path d="M97.6419 12.5492H97.2239V13.0829H97.6419C97.8506 13.0829 97.9752 12.9806 97.9752 12.8159C97.9752 12.6423 97.8506 12.5492 97.6419 12.5492ZM97.913 13.3105L98.3671 13.9471H97.9842L97.5753 13.3632H97.2239V13.9471H96.9033V12.2597H97.655C98.0464 12.2597 98.304 12.4603 98.304 12.7979C98.304 13.0745 98.1444 13.2436 97.913 13.3105ZM97.557 11.6983C96.7345 11.6983 96.1121 12.3527 96.1121 13.1543C96.1121 13.9554 96.7301 14.6012 97.5485 14.6012C98.3708 14.6012 98.9938 13.9471 98.9938 13.1451C98.9938 12.344 98.3754 11.6983 97.557 11.6983ZM97.5485 14.762C96.6455 14.762 95.9429 14.0359 95.9429 13.1543C95.9429 12.2726 96.6547 11.5383 97.557 11.5383C98.4598 11.5383 99.1626 12.2643 99.1626 13.1451C99.1626 14.0269 98.4514 14.762 97.5485 14.762Z" fill="#696969"/>
</g>
<defs>
<clipPath id="clip0_126_11315">
<rect width="99.9119" height="30" fill="white"/>
</clipPath>
</defs>
</svg>
