<svg width="45" height="45" viewBox="0 0 45 45" fill="none" xmlns="http://www.w3.org/2000/svg">
<path d="M41.5413 3.40309C40.4868 2.35114 39.0581 1.76038 37.5686 1.76038C36.0791 1.76038 34.6504 2.35114 33.5959 3.40309L15.2725 21.7265C15.1661 21.8328 15.0824 21.9596 15.0264 22.0992L11.0678 32.5125C10.9993 32.7025 10.9864 32.9082 11.0307 33.1053C11.075 33.3024 11.1746 33.4828 11.3178 33.6253C11.461 33.7677 11.6419 33.8664 11.8393 33.9097C12.0366 33.9529 12.2422 33.939 12.4319 33.8695L22.8381 29.9109C22.9762 29.8592 23.101 29.7775 23.2038 29.6718L41.5413 11.3484C42.5932 10.2939 43.184 8.86522 43.184 7.37574C43.184 5.88626 42.5932 4.45758 41.5413 3.40309ZM21.8538 28.0125L13.8803 31.064L16.9178 23.0625L31.6413 8.35308L36.6053 13.275L21.8538 28.0125ZM40.0788 9.84371L38.11 11.8125L33.1459 6.89058L35.0866 4.92184C35.5786 4.43413 36.2037 4.10264 36.8834 3.96901C37.5632 3.83537 38.2673 3.90554 38.9073 4.17071C39.5473 4.43588 40.0947 4.88422 40.4807 5.45944C40.8668 6.03465 41.0743 6.71111 41.0772 7.40387C41.0734 8.31587 40.7154 9.19072 40.0788 9.84371Z" fill="#E6F85E"/>
<path d="M37.8916 22.1484C37.7532 22.159 37.6183 22.197 37.4947 22.2602C37.3712 22.3234 37.2614 22.4105 37.1717 22.5165C37.0821 22.6225 37.0144 22.7452 36.9727 22.8776C36.9309 23.0099 36.9158 23.1493 36.9283 23.2875C36.9283 23.7094 36.9775 24.1453 36.9775 24.5742C36.975 28.2869 35.7249 31.8911 33.4278 34.8079C31.1308 37.7247 27.9201 39.7849 24.3114 40.6576C20.7028 41.5304 16.9055 41.1651 13.5294 39.6203C10.1533 38.0756 7.39432 35.4411 5.69548 32.1398C4.4906 29.8128 3.86356 27.2299 3.86736 24.6094C3.86551 22.433 4.29235 20.2776 5.12349 18.2662C5.95464 16.2548 7.17383 14.4268 8.71143 12.8866C10.249 11.3464 12.075 10.1241 14.0849 9.28955C16.0949 8.455 18.2496 8.0245 20.426 8.02266C20.876 8.02266 21.2556 8.02266 21.6002 8.06484C21.8799 8.09002 22.1582 8.00304 22.3738 7.82305C22.5893 7.64306 22.7246 7.3848 22.7498 7.10508C22.775 6.82536 22.688 6.54709 22.508 6.3315C22.328 6.11591 22.0697 5.98065 21.79 5.95547C21.3822 5.92031 20.9392 5.90625 20.426 5.90625C16.735 5.90487 13.1264 6.99766 10.0563 9.04653C6.98624 11.0954 4.59242 14.0084 3.17738 17.4173C1.76234 20.8263 1.3896 24.5782 2.10627 28.1989C2.82294 31.8197 4.59685 35.1467 7.20381 37.7595C9.81078 40.3724 13.1338 42.1538 16.7529 42.8787C20.372 43.6035 24.1248 43.2392 27.5369 41.8319C30.949 40.4246 33.8674 38.0373 35.9232 34.9719C37.979 31.9064 39.0799 28.3003 39.0869 24.6094C39.0869 24.1172 39.0869 23.625 39.0306 23.1469C39.0245 23.0054 38.9898 22.8667 38.9286 22.7391C38.8674 22.6114 38.781 22.4975 38.6745 22.4042C38.5681 22.3109 38.4438 22.2401 38.3092 22.1961C38.1747 22.1522 38.0326 22.136 37.8916 22.1484Z" fill="#E6F85E"/>
</svg>
