<svg width="45" height="45" viewBox="0 0 45 45" fill="none" xmlns="http://www.w3.org/2000/svg">
<g clip-path="url(#clip0_219_1288)">
<path d="M3.08314 8.02546C3.13278 8.10817 3.1989 8.17979 3.27738 8.23587L6.71039 10.688L17.0808 21.0586L18.0752 20.0641L7.66391 9.6524C7.6365 9.62508 7.6069 9.60003 7.57541 9.57752L4.21377 7.17653L1.58839 2.8008L2.80075 1.58844L7.17638 4.21391L9.57729 7.5752C9.59979 7.60672 9.62487 7.63632 9.65226 7.6637L12.3295 10.3409L13.3241 9.34655L10.6878 6.71053L8.23564 3.27752C8.17956 3.19904 8.10794 3.13293 8.02523 3.08328L3.05352 0.100187C2.91909 0.0194722 2.76153 -0.0139898 2.6059 0.00512019C2.45026 0.0242302 2.30548 0.0948154 2.19457 0.205656L0.205778 2.19462C0.0949374 2.30553 0.0243522 2.45032 0.00524226 2.60595C-0.0138677 2.76158 0.0195942 2.91914 0.100309 3.05358L3.08314 8.02546Z" fill="#E6F85E"/>
<path d="M13.5625 11.5773L14.5567 10.5831L21.0545 17.0808L20.0603 18.075L13.5625 11.5773Z" fill="#E6F85E"/>
<path d="M34.183 26.2992L30.9398 24.909L29.9297 22.8887L28.6719 23.5176L29.7969 25.7684C29.8712 25.917 29.9958 26.0346 30.1484 26.1002L33.5043 27.5384L39.5807 33.6148L40.5751 32.6203L34.4029 26.4482C34.3397 26.385 34.2651 26.3344 34.183 26.2992Z" fill="#E6F85E"/>
<path d="M41.9109 33.9559L40.9165 34.9503L42.3579 36.3917C42.7536 36.7826 43.068 37.2479 43.2832 37.7607C43.4984 38.2736 43.61 38.8239 43.6117 39.3801C43.6134 39.9363 43.5051 40.4873 43.293 41.0014C43.0809 41.5156 42.7693 41.9827 42.376 42.376C41.9827 42.7693 41.5156 43.0809 41.0014 43.2929C40.4873 43.505 39.9363 43.6133 39.3801 43.6116C38.8239 43.6099 38.2736 43.4982 37.7607 43.283C37.2479 43.0679 36.7826 42.7534 36.3917 42.3577L27.5384 33.5045L26.1001 30.1487C26.0345 29.996 25.917 29.8714 25.7683 29.7971L23.5176 28.6721L22.8887 29.9298L24.909 30.94L26.2992 34.1832C26.3345 34.2655 26.3852 34.3402 26.4486 34.4035L35.3975 43.3525C36.4524 44.4074 37.8832 45 39.375 45C40.8669 45 42.2976 44.4074 43.3525 43.3525C44.4074 42.2976 45 40.8668 45 39.375C45 37.8832 44.4074 36.4524 43.3525 35.3975L41.9109 33.9559Z" fill="#E6F85E"/>
<path d="M33.9055 31.7984C33.4886 31.7987 33.0812 31.9225 32.7347 32.1542C32.3882 32.3859 32.1181 32.7151 31.9585 33.1002C31.799 33.4853 31.7571 33.909 31.8381 34.3179C31.9192 34.7268 32.1195 35.1025 32.414 35.3976L38.3802 41.3638C38.7763 41.7584 39.3127 41.9799 39.8717 41.9799C40.4308 41.9799 40.9671 41.7584 41.3632 41.3638C41.7582 40.968 41.9801 40.4315 41.9801 39.8723C41.9801 39.313 41.7582 38.7766 41.3632 38.3807L35.3971 32.4141C35.2015 32.2179 34.969 32.0625 34.7129 31.9568C34.4569 31.8511 34.1824 31.7973 33.9055 31.7984ZM40.3689 40.3694C40.237 40.5011 40.0582 40.575 39.8717 40.575C39.6853 40.575 39.5065 40.5011 39.3745 40.3694L33.4083 34.4032C33.2764 34.2713 33.2023 34.0924 33.2024 33.906C33.2024 33.7195 33.2765 33.5406 33.4084 33.4088C33.5402 33.2769 33.7191 33.2029 33.9056 33.2029C34.0921 33.2029 34.2709 33.277 34.4027 33.4089L40.3688 39.3751C40.5005 39.507 40.5745 39.6858 40.5745 39.8722C40.5745 40.0586 40.5006 40.2374 40.3689 40.3694Z" fill="#E6F85E"/>
<path d="M33.6248 16.3476C35.0167 16.8645 36.5203 17.0049 37.9838 16.7548C39.4473 16.5046 40.819 15.8728 41.9602 14.923C43.1014 13.9732 43.9719 12.7391 44.4836 11.3453C44.9953 9.95156 45.1303 8.44743 44.8748 6.98482C44.85 6.84208 44.7817 6.71048 44.6792 6.60803L43.5246 5.45298C43.3927 5.32113 43.2139 5.24707 43.0274 5.24707C42.841 5.24707 42.6621 5.32113 42.5303 5.45298L38.3042 9.67902L35.6938 9.30619L35.321 6.69584L39.5472 2.4697C39.6125 2.40441 39.6643 2.32689 39.6996 2.24157C39.735 2.15626 39.7532 2.06481 39.7532 1.97246C39.7532 1.88011 39.735 1.78867 39.6996 1.70335C39.6643 1.61803 39.6125 1.54051 39.5472 1.47522L38.3926 0.320866C38.2901 0.218466 38.1586 0.150199 38.0159 0.125397C36.5533 -0.129968 35.0492 0.00505294 33.6555 0.516829C32.2618 1.0286 31.0277 1.89902 30.078 3.04021C29.1282 4.18139 28.4963 5.55295 28.2461 7.01643C27.9959 8.4799 28.1362 9.98349 28.6529 11.3754L15.6749 24.3534L16.6693 25.3476L29.9763 12.041C30.0764 11.9409 30.144 11.813 30.1701 11.6739C30.1963 11.5348 30.1799 11.3911 30.1231 11.2615C29.6197 10.1136 29.4323 8.8521 29.5802 7.60749C29.7282 6.36287 30.2061 5.18041 30.9645 4.18252C31.7229 3.18464 32.7342 2.40759 33.8938 1.93183C35.0533 1.45606 36.319 1.29888 37.5597 1.47654L38.0556 1.97233L34.0781 5.95017C34.0009 6.02736 33.9428 6.12146 33.9083 6.22501C33.8738 6.32856 33.8639 6.43872 33.8793 6.54677L34.3764 10.0272C34.3979 10.1779 34.4677 10.3175 34.5753 10.425C34.6829 10.5326 34.8225 10.6024 34.9731 10.6239L38.4536 11.121C38.5616 11.1364 38.6718 11.1265 38.7753 11.092C38.8788 11.0575 38.9729 10.9994 39.0502 10.9222L43.0277 6.94474L43.5235 7.44053C43.701 8.68114 43.5436 9.94663 43.0678 11.106C42.592 12.2654 41.8151 13.2766 40.8173 14.035C39.8196 14.7933 38.6373 15.2713 37.3928 15.4193C36.1484 15.5674 34.887 15.3803 33.7391 14.8772C33.6095 14.8204 33.4658 14.804 33.3267 14.8302C33.1876 14.8564 33.0597 14.9239 32.9596 15.024L15.024 32.959C14.924 33.059 14.8564 33.187 14.8302 33.326C14.804 33.4651 14.8204 33.6089 14.8773 33.7385C15.3806 34.8863 15.5681 36.1479 15.4201 37.3925C15.2722 38.6371 14.7943 39.8195 14.0359 40.8174C13.2775 41.8153 12.2662 42.5924 11.1066 43.0681C9.94703 43.5439 8.68138 43.7011 7.44066 43.5234L6.94478 43.0276L10.9223 39.0498C10.9994 38.9726 11.0576 38.8785 11.0921 38.7749C11.1266 38.6714 11.1365 38.5612 11.1211 38.4532L10.624 34.9727C10.6025 34.8221 10.5327 34.6825 10.4251 34.5749C10.3175 34.4673 10.1779 34.3975 10.0273 34.376L6.54681 33.8789C6.43876 33.8635 6.32859 33.8734 6.22504 33.9079C6.12149 33.9424 6.0274 34.0005 5.95021 34.0777L1.97289 38.0554L1.47675 37.5596C1.2993 36.319 1.45661 35.0535 1.93239 33.8941C2.40818 32.7346 3.18516 31.7234 4.18292 30.9651C5.18068 30.2067 6.36297 29.7288 7.60744 29.5807C8.8519 29.4327 10.1133 29.6198 11.2612 30.1229C11.3908 30.1797 11.5345 30.1961 11.6736 30.1699C11.8127 30.1437 11.9406 30.0762 12.0407 29.9761L15.5036 26.5128L14.5092 25.5184L11.3749 28.6528C9.98301 28.1359 8.47939 27.9955 7.01585 28.2456C5.55232 28.4958 4.18069 29.1276 3.03947 30.0774C1.89824 31.0272 1.02781 32.2613 0.516074 33.6551C0.00433689 35.0488 -0.130594 36.553 0.124904 38.0156C0.149773 38.1583 0.218064 38.2899 0.320461 38.3924L1.47517 39.547C1.60703 39.6788 1.78586 39.7529 1.97232 39.7529C2.15879 39.7529 2.33762 39.6788 2.46947 39.547L6.69561 35.3209L9.30596 35.6938L9.67879 38.3041L5.45319 42.5303C5.38788 42.5955 5.33607 42.6731 5.30073 42.7584C5.26538 42.8437 5.24719 42.9351 5.24719 43.0275C5.24719 43.1198 5.26538 43.2113 5.30073 43.2966C5.33607 43.3819 5.38788 43.4594 5.45319 43.5247L6.6078 44.6791C6.71024 44.7815 6.8418 44.8498 6.9845 44.8746C8.44709 45.1299 9.95116 44.9949 11.3449 44.4831C12.7386 43.9714 13.9726 43.1009 14.9224 41.9598C15.8722 40.8186 16.5041 39.447 16.7543 37.9835C17.0045 36.5201 16.8642 35.0165 16.3475 33.6246L33.6248 16.3476Z" fill="#E6F85E"/>
</g>
<defs>
<clipPath id="clip0_219_1288">
<rect width="45" height="45" fill="white"/>
</clipPath>
</defs>
</svg>
