<svg width="45" height="45" viewBox="0 0 45 45" fill="none" xmlns="http://www.w3.org/2000/svg">
<g clip-path="url(#clip0_219_1338)">
<path d="M40.7812 10.5469V1.40625C40.7812 1.01812 40.467 0.703125 40.0781 0.703125H14.7656C14.3768 0.703125 14.0625 1.01812 14.0625 1.40625V3.51562H11.9531C11.5643 3.51562 11.25 3.83063 11.25 4.21875V4.92188H9.14062C8.7518 4.92188 8.4375 5.23688 8.4375 5.625V10.5469H4.21875C2.28023 10.5469 0.703125 12.124 0.703125 14.0625V40.7812C0.703125 42.7198 2.28023 44.2969 4.21875 44.2969H4.92188H40.7812C42.7198 44.2969 44.2969 42.7198 44.2969 40.7812V14.0625C44.2969 12.124 42.7198 10.5469 40.7812 10.5469ZM42.8906 14.0625V22.5183C42.3014 22.0718 41.5758 21.7969 40.7812 21.7969V11.9531C41.9442 11.9531 42.8906 12.8995 42.8906 14.0625ZM39.375 2.10938V21.7969H15.4688V2.10938H39.375ZM14.0625 4.92188V21.7969H12.6562V4.92188H14.0625ZM11.25 6.32812V21.7969H10.5469C10.3064 21.7969 10.0709 21.8215 9.84375 21.8679V6.32812H11.25ZM4.21875 42.8906C3.05578 42.8906 2.10938 41.9442 2.10938 40.7812V14.0625C2.10938 12.8995 3.05578 11.9531 4.21875 11.9531H8.4375V22.5183C7.58883 23.1609 7.03125 24.1692 7.03125 25.3125V40.7812C7.03125 41.9442 6.08484 42.8906 4.92188 42.8906H4.21875ZM7.71609 42.8906C8.16258 42.3014 8.4375 41.5758 8.4375 40.7812V25.3125C8.4375 24.1495 9.38391 23.2031 10.5469 23.2031H11.9714C11.5249 23.7923 11.25 24.518 11.25 25.3125V40.7812C11.25 41.9442 10.3036 42.8906 9.14062 42.8906H7.71609ZM42.8906 40.7812C42.8906 41.9442 41.9442 42.8906 40.7812 42.8906H11.9348C12.3813 42.3014 12.6562 41.5758 12.6562 40.7812V25.3125C12.6562 24.1495 13.6027 23.2031 14.7656 23.2031H40.7812C41.9442 23.2031 42.8906 24.1495 42.8906 25.3125V40.7812Z" fill="#E6F85E"/>
<path d="M41.4844 37.2656H33.0469C32.658 37.2656 32.3438 37.5799 32.3438 37.9688V40.7812C32.3438 41.1701 32.658 41.4844 33.0469 41.4844H41.4844C41.8732 41.4844 42.1875 41.1701 42.1875 40.7812V37.9688C42.1875 37.5799 41.8732 37.2656 41.4844 37.2656ZM40.7812 40.0781H33.75V38.6719H40.7812V40.0781Z" fill="#E6F85E"/>
<path d="M30.2344 40.0781H31.6406V41.4844H30.2344V40.0781Z" fill="#E6F85E"/>
<path d="M21.7969 13.3594H18.9844C18.5955 13.3594 18.2812 13.6744 18.2812 14.0625V20.3906C18.2812 20.7787 18.5955 21.0938 18.9844 21.0938H21.7969C22.1857 21.0938 22.5 20.7787 22.5 20.3906V14.0625C22.5 13.6744 22.1857 13.3594 21.7969 13.3594ZM21.0938 19.6875H19.6875V14.7656H21.0938V19.6875Z" fill="#E6F85E"/>
<path d="M23.2031 8.4375V20.3906C23.2031 20.7788 23.5174 21.0938 23.9062 21.0938H26.7188C27.1076 21.0938 27.4219 20.7788 27.4219 20.3906V8.4375C27.4219 8.04937 27.1076 7.73438 26.7188 7.73438H23.9062C23.5174 7.73438 23.2031 8.04937 23.2031 8.4375ZM24.6094 9.14062H26.0156V19.6875H24.6094V9.14062Z" fill="#E6F85E"/>
<path d="M28.8281 21.0938H31.6406C32.0295 21.0938 32.3438 20.7788 32.3438 20.3906V10.5469C32.3438 10.1587 32.0295 9.84375 31.6406 9.84375H28.8281C28.4393 9.84375 28.125 10.1587 28.125 10.5469V20.3906C28.125 20.7788 28.4393 21.0938 28.8281 21.0938ZM29.5312 11.25H30.9375V19.6875H29.5312V11.25Z" fill="#E6F85E"/>
<path d="M33.75 21.0938H36.5625C36.9513 21.0938 37.2656 20.7787 37.2656 20.3906V4.21875C37.2656 3.83062 36.9513 3.51562 36.5625 3.51562H33.75C33.3612 3.51562 33.0469 3.83062 33.0469 4.21875V20.3906C33.0469 20.7787 33.3612 21.0938 33.75 21.0938ZM34.4531 4.92188H35.8594V19.6875H34.4531V4.92188Z" fill="#E6F85E"/>
<path d="M16.1719 2.8125H20.3906V4.21875H16.1719V2.8125Z" fill="#E6F85E"/>
<path d="M21.7969 2.8125H26.0156V4.21875H21.7969V2.8125Z" fill="#E6F85E"/>
<path d="M16.1719 4.92188H26.0156V6.32812H16.1719V4.92188Z" fill="#E6F85E"/>
</g>
<defs>
<clipPath id="clip0_219_1338">
<rect width="45" height="45" fill="white"/>
</clipPath>
</defs>
</svg>
