<svg width="11" height="11" viewBox="0 0 11 11" fill="none" xmlns="http://www.w3.org/2000/svg">
<path d="M5.10938 0.414062C5.20312 0.296875 5.39062 0.296875 5.50781 0.414062L10.4062 5.3125C10.5234 5.42969 10.5234 5.59375 10.4062 5.71094L5.50781 10.6094C5.39062 10.7266 5.20312 10.7266 5.10938 10.6094L4.64062 10.1641C4.52344 10.0469 4.52344 9.85938 4.64062 9.76562L8.27344 6.10938H0.28125C0.117188 6.10938 0 5.99219 0 5.82812V5.17188C0 5.03125 0.117188 4.89062 0.28125 4.89062H8.27344L4.64062 1.25781C4.52344 1.16406 4.52344 0.976562 4.64062 0.859375L5.10938 0.414062Z" fill="#696969"/>
</svg>
